<?xml version="1.0" encoding="utf-8" standalone="no"?>
<!DOCTYPE svg PUBLIC "-//W3C//DTD SVG 1.1//EN"
  "http://www.w3.org/Graphics/SVG/1.1/DTD/svg11.dtd">
<svg xmlns:xlink="http://www.w3.org/1999/xlink" width="705.6pt" height="417.6pt" viewBox="0 0 705.6 417.6" xmlns="http://www.w3.org/2000/svg" version="1.1">
 <metadata>
  <rdf:RDF xmlns:dc="http://purl.org/dc/elements/1.1/" xmlns:cc="http://creativecommons.org/ns#" xmlns:rdf="http://www.w3.org/1999/02/22-rdf-syntax-ns#">
   <cc:Work>
    <dc:type rdf:resource="http://purl.org/dc/dcmitype/StillImage"/>
    <dc:date>2026-07-15T11:24:26.470528</dc:date>
    <dc:format>image/svg+xml</dc:format>
    <dc:creator>
     <cc:Agent>
      <dc:title>Matplotlib v3.10.9, https://matplotlib.org/</dc:title>
     </cc:Agent>
    </dc:creator>
   </cc:Work>
  </rdf:RDF>
 </metadata>
 <defs>
  <style type="text/css">*{stroke-linejoin: round; stroke-linecap: butt}</style>
 </defs>
 <g id="figure_1">
  <g id="patch_1">
   <path d="M 0 417.6 
L 705.6 417.6 
L 705.6 0 
L 0 0 
z
" style="fill: #fbfaf8"/>
  </g>
  <g id="axes_1">
   <g id="patch_2">
    <path d="M 101.9 374.2 
L 675.9 374.2 
L 675.9 74.08 
L 101.9 74.08 
z
" style="fill: #fbfaf8"/>
   </g>
   <g id="matplotlib.axis_1">
    <g id="xtick_1">
     <g id="line2d_1">
      <path d="M 101.9 374.2 
L 101.9 74.08 
" clip-path="url(#pccfb0c42e8)" style="fill: none; stroke: #e7e4dc; stroke-width: 0.8; stroke-linecap: square"/>
     </g>
     <g id="line2d_2">
      <defs>
       <path id="m4e7edcd6c4" d="M 0 0 
L 0 3.5 
" style="stroke: #6c685f; stroke-width: 0.8"/>
      </defs>
      <g>
       <use xlink:href="#m4e7edcd6c4" x="101.9" y="374.2" style="fill: #6c685f; stroke: #6c685f; stroke-width: 0.8"/>
      </g>
     </g>
     <g id="text_1">
      <text style="font-size: 10.5px; font-family: 'DejaVu Sans Mono'; text-anchor: middle; fill: #6c685f" x="101.9" y="389.234141" transform="rotate(-0 101.9 389.234141)">0</text>
     </g>
    </g>
    <g id="xtick_2">
     <g id="line2d_3">
      <path d="M 197.566667 374.2 
L 197.566667 74.08 
" clip-path="url(#pccfb0c42e8)" style="fill: none; stroke: #e7e4dc; stroke-width: 0.8; stroke-linecap: square"/>
     </g>
     <g id="line2d_4">
      <g>
       <use xlink:href="#m4e7edcd6c4" x="197.566667" y="374.2" style="fill: #6c685f; stroke: #6c685f; stroke-width: 0.8"/>
      </g>
     </g>
     <g id="text_2">
      <text style="font-size: 10.5px; font-family: 'DejaVu Sans Mono'; text-anchor: middle; fill: #6c685f" x="197.566667" y="389.234141" transform="rotate(-0 197.566667 389.234141)">2,000</text>
     </g>
    </g>
    <g id="xtick_3">
     <g id="line2d_5">
      <path d="M 293.233333 374.2 
L 293.233333 74.08 
" clip-path="url(#pccfb0c42e8)" style="fill: none; stroke: #e7e4dc; stroke-width: 0.8; stroke-linecap: square"/>
     </g>
     <g id="line2d_6">
      <g>
       <use xlink:href="#m4e7edcd6c4" x="293.233333" y="374.2" style="fill: #6c685f; stroke: #6c685f; stroke-width: 0.8"/>
      </g>
     </g>
     <g id="text_3">
      <text style="font-size: 10.5px; font-family: 'DejaVu Sans Mono'; text-anchor: middle; fill: #6c685f" x="293.233333" y="389.234141" transform="rotate(-0 293.233333 389.234141)">4,000</text>
     </g>
    </g>
    <g id="xtick_4">
     <g id="line2d_7">
      <path d="M 388.9 374.2 
L 388.9 74.08 
" clip-path="url(#pccfb0c42e8)" style="fill: none; stroke: #e7e4dc; stroke-width: 0.8; stroke-linecap: square"/>
     </g>
     <g id="line2d_8">
      <g>
       <use xlink:href="#m4e7edcd6c4" x="388.9" y="374.2" style="fill: #6c685f; stroke: #6c685f; stroke-width: 0.8"/>
      </g>
     </g>
     <g id="text_4">
      <text style="font-size: 10.5px; font-family: 'DejaVu Sans Mono'; text-anchor: middle; fill: #6c685f" x="388.9" y="389.234141" transform="rotate(-0 388.9 389.234141)">6,000</text>
     </g>
    </g>
    <g id="xtick_5">
     <g id="line2d_9">
      <path d="M 484.566667 374.2 
L 484.566667 74.08 
" clip-path="url(#pccfb0c42e8)" style="fill: none; stroke: #e7e4dc; stroke-width: 0.8; stroke-linecap: square"/>
     </g>
     <g id="line2d_10">
      <g>
       <use xlink:href="#m4e7edcd6c4" x="484.566667" y="374.2" style="fill: #6c685f; stroke: #6c685f; stroke-width: 0.8"/>
      </g>
     </g>
     <g id="text_5">
      <text style="font-size: 10.5px; font-family: 'DejaVu Sans Mono'; text-anchor: middle; fill: #6c685f" x="484.566667" y="389.234141" transform="rotate(-0 484.566667 389.234141)">8,000</text>
     </g>
    </g>
    <g id="xtick_6">
     <g id="line2d_11">
      <path d="M 580.233333 374.2 
L 580.233333 74.08 
" clip-path="url(#pccfb0c42e8)" style="fill: none; stroke: #e7e4dc; stroke-width: 0.8; stroke-linecap: square"/>
     </g>
     <g id="line2d_12">
      <g>
       <use xlink:href="#m4e7edcd6c4" x="580.233333" y="374.2" style="fill: #6c685f; stroke: #6c685f; stroke-width: 0.8"/>
      </g>
     </g>
     <g id="text_6">
      <text style="font-size: 10.5px; font-family: 'DejaVu Sans Mono'; text-anchor: middle; fill: #6c685f" x="580.233333" y="389.234141" transform="rotate(-0 580.233333 389.234141)">10,000</text>
     </g>
    </g>
    <g id="xtick_7">
     <g id="line2d_13">
      <path d="M 675.9 374.2 
L 675.9 74.08 
" clip-path="url(#pccfb0c42e8)" style="fill: none; stroke: #e7e4dc; stroke-width: 0.8; stroke-linecap: square"/>
     </g>
     <g id="line2d_14">
      <g>
       <use xlink:href="#m4e7edcd6c4" x="675.9" y="374.2" style="fill: #6c685f; stroke: #6c685f; stroke-width: 0.8"/>
      </g>
     </g>
     <g id="text_7">
      <text style="font-size: 10.5px; font-family: 'DejaVu Sans Mono'; text-anchor: middle; fill: #6c685f" x="675.9" y="389.234141" transform="rotate(-0 675.9 389.234141)">12,000</text>
     </g>
    </g>
    <g id="text_8">
     <text style="font-size: 11px; font-family: 'DejaVu Sans Mono'; text-anchor: middle; fill: #6c685f" x="388.9" y="403.776094" transform="rotate(-0 388.9 403.776094)">max degree d</text>
    </g>
   </g>
   <g id="matplotlib.axis_2">
    <g id="ytick_1">
     <g id="line2d_15">
      <path d="M 101.9 374.2 
L 675.9 374.2 
" clip-path="url(#pccfb0c42e8)" style="fill: none; stroke: #e7e4dc; stroke-width: 0.8; stroke-linecap: square"/>
     </g>
     <g id="line2d_16">
      <defs>
       <path id="m8a1799ce9a" d="M 0 0 
L -3.5 0 
" style="stroke: #6c685f; stroke-width: 0.8"/>
      </defs>
      <g>
       <use xlink:href="#m8a1799ce9a" x="101.9" y="374.2" style="fill: #6c685f; stroke: #6c685f; stroke-width: 0.8"/>
      </g>
     </g>
     <g id="text_9">
      <text style="font-size: 10.5px; font-family: 'DejaVu Sans Mono'; text-anchor: end; fill: #6c685f" x="94.9" y="378.21707" transform="rotate(-0 94.9 378.21707)">0</text>
     </g>
    </g>
    <g id="ytick_2">
     <g id="line2d_17">
      <path d="M 101.9 274.16 
L 675.9 274.16 
" clip-path="url(#pccfb0c42e8)" style="fill: none; stroke: #e7e4dc; stroke-width: 0.8; stroke-linecap: square"/>
     </g>
     <g id="line2d_18">
      <g>
       <use xlink:href="#m8a1799ce9a" x="101.9" y="274.16" style="fill: #6c685f; stroke: #6c685f; stroke-width: 0.8"/>
      </g>
     </g>
     <g id="text_10">
      <text style="font-size: 10.5px; font-family: 'DejaVu Sans Mono'; text-anchor: end; fill: #6c685f" x="94.9" y="278.17707" transform="rotate(-0 94.9 278.17707)">100 billion</text>
     </g>
    </g>
    <g id="ytick_3">
     <g id="line2d_19">
      <path d="M 101.9 174.12 
L 675.9 174.12 
" clip-path="url(#pccfb0c42e8)" style="fill: none; stroke: #e7e4dc; stroke-width: 0.8; stroke-linecap: square"/>
     </g>
     <g id="line2d_20">
      <g>
       <use xlink:href="#m8a1799ce9a" x="101.9" y="174.12" style="fill: #6c685f; stroke: #6c685f; stroke-width: 0.8"/>
      </g>
     </g>
     <g id="text_11">
      <text style="font-size: 10.5px; font-family: 'DejaVu Sans Mono'; text-anchor: end; fill: #6c685f" x="94.9" y="178.13707" transform="rotate(-0 94.9 178.13707)">200 billion</text>
     </g>
    </g>
    <g id="ytick_4">
     <g id="line2d_21">
      <path d="M 101.9 74.08 
L 675.9 74.08 
" clip-path="url(#pccfb0c42e8)" style="fill: none; stroke: #e7e4dc; stroke-width: 0.8; stroke-linecap: square"/>
     </g>
     <g id="line2d_22">
      <g>
       <use xlink:href="#m8a1799ce9a" x="101.9" y="74.08" style="fill: #6c685f; stroke: #6c685f; stroke-width: 0.8"/>
      </g>
     </g>
     <g id="text_12">
      <text style="font-size: 10.5px; font-family: 'DejaVu Sans Mono'; text-anchor: end; fill: #6c685f" x="94.9" y="78.09707" transform="rotate(-0 94.9 78.09707)">300 billion</text>
     </g>
    </g>
    <g id="text_13">
     <text style="font-size: 11px; font-family: 'DejaVu Sans Mono'; text-anchor: middle; fill: #6c685f" x="19.002109" y="224.14" transform="rotate(-90 19.002109 224.14)">degree sequences to test</text>
    </g>
   </g>
   <g id="patch_3">
    <path d="M 101.9 374.2 
L 101.9 74.08 
" style="fill: none; stroke: #e7e4dc; stroke-width: 0.8; stroke-linejoin: miter; stroke-linecap: square"/>
   </g>
   <g id="patch_4">
    <path d="M 675.9 374.2 
L 675.9 74.08 
" style="fill: none; stroke: #e7e4dc; stroke-width: 0.8; stroke-linejoin: miter; stroke-linecap: square"/>
   </g>
   <g id="patch_5">
    <path d="M 101.9 374.2 
L 675.9 374.2 
" style="fill: none; stroke: #e7e4dc; stroke-width: 0.8; stroke-linejoin: miter; stroke-linecap: square"/>
   </g>
   <g id="patch_6">
    <path d="M 101.9 74.08 
L 675.9 74.08 
" style="fill: none; stroke: #e7e4dc; stroke-width: 0.8; stroke-linejoin: miter; stroke-linecap: square"/>
   </g>
   <g id="line2d_23">
    <path d="M 102.0435 374.2 
L 143.706333 374.089066 
L 165.948833 373.800616 
L 184.556 373.341186 
L 201.154167 372.712529 
L 216.413 371.915188 
L 230.715167 370.947274 
L 244.252 369.80981 
L 257.167 368.502734 
L 269.555833 367.026771 
L 281.514167 365.379256 
L 293.089833 363.561048 
L 304.330667 361.571508 
L 315.2845 359.407997 
L 325.999167 357.065435 
L 336.474667 354.547939 
L 346.758833 351.847646 
L 356.851667 348.967541 
L 366.753167 345.911452 
L 376.511167 342.667522 
L 386.125667 339.237613 
L 395.6445 335.605312 
L 405.019833 331.790034 
L 414.2995 327.773925 
L 423.4835 323.557172 
L 432.571833 319.140329 
L 441.612333 314.499088 
L 450.557167 309.657242 
L 459.454167 304.588386 
L 468.303333 299.290201 
L 477.104667 293.760554 
L 485.858167 287.997494 
L 494.563833 281.999247 
L 503.221667 275.764215 
L 511.8795 269.254241 
L 520.4895 262.501694 
L 529.0995 255.465534 
L 537.661667 248.181434 
L 546.223833 240.605356 
L 554.786 232.731562 
L 563.348167 224.554314 
L 571.910333 216.067876 
L 580.4725 207.266508 
L 589.034667 198.144475 
L 597.596833 188.696037 
L 606.159 178.915457 
L 614.721167 168.796999 
L 623.283333 158.334923 
L 631.893333 147.462102 
L 640.503333 136.230178 
L 649.161167 124.567858 
L 657.819 112.530603 
L 666.476833 100.112481 
L 675.1825 87.235727 
L 675.9 86.156825 
L 675.9 86.156825 
" clip-path="url(#pccfb0c42e8)" style="fill: none; stroke: #0072b2; stroke-width: 2.2; stroke-linecap: round"/>
   </g>
   <g id="line2d_24">
    <path d="M 102.091333 374.2 
L 112.806 374.090298 
L 116.776167 373.817533 
L 119.8375 373.38882 
L 122.4205 372.807802 
L 124.7165 372.069116 
L 126.821167 371.164008 
L 128.830167 370.056589 
L 130.7435 368.743653 
L 132.561167 367.228568 
L 134.378833 365.417922 
L 136.148667 363.336513 
L 137.9185 360.905364 
L 139.688333 358.087331 
L 141.458167 354.843396 
L 143.228 351.132666 
L 145.045667 346.790825 
L 146.863333 341.863105 
L 148.728833 336.143542 
L 150.594333 329.696833 
L 152.507667 322.267471 
L 154.468833 313.724474 
L 156.43 304.168449 
L 158.439 293.248364 
L 160.495833 280.79339 
L 162.552667 266.953645 
L 164.657333 251.255272 
L 166.809833 233.478668 
L 168.962333 213.84063 
L 171.162667 191.711427 
L 173.410833 166.812363 
L 175.706833 138.838133 
L 178.002833 108.124957 
L 180.346667 73.766872 
L 181.112 61.858903 
L 181.112 61.858903 
" clip-path="url(#pccfb0c42e8)" style="fill: none; stroke: #e69f00; stroke-width: 2.2; stroke-linecap: round"/>
   </g>
   <g id="line2d_25">
    <path d="M 102.139167 374.2 
L 107.018167 374.093649 
L 108.405333 373.839923 
L 109.457667 373.429937 
L 110.3665 372.831919 
L 111.179667 372.025098 
L 111.945 370.95467 
L 112.710333 369.499011 
L 113.475667 367.562402 
L 114.288833 364.854013 
L 115.102 361.325916 
L 115.915167 356.804707 
L 116.776167 350.71654 
L 117.637167 343.03186 
L 118.546 332.861493 
L 119.502667 319.450311 
L 120.459333 302.764451 
L 121.463833 281.099637 
L 122.468333 254.47098 
L 123.520667 220.368852 
L 124.573 178.904299 
L 125.673167 126.452335 
L 126.773333 63.291108 
L 126.821167 60.278425 
L 126.821167 60.278425 
" clip-path="url(#pccfb0c42e8)" style="fill: none; stroke: #009e73; stroke-width: 2.2; stroke-linecap: round"/>
   </g>
   <g id="line2d_26">
    <path d="M 102.187 374.2 
L 105.152667 374.090503 
L 105.870167 373.822402 
L 106.396333 373.385458 
L 106.874667 372.682011 
L 107.353 371.532007 
L 107.831333 369.732738 
L 108.309667 367.019149 
L 108.835833 362.570977 
L 109.362 356.031036 
L 109.888167 346.676975 
L 110.462167 332.20598 
L 111.036167 311.8836 
L 111.658 281.218212 
L 112.279833 238.892344 
L 112.9495 176.464053 
L 113.619167 91.681416 
L 113.858333 54.876877 
L 113.858333 54.876877 
" clip-path="url(#pccfb0c42e8)" style="fill: none; stroke: #d55e00; stroke-width: 2.2; stroke-linecap: round"/>
   </g>
   <g id="line2d_27">
    <path d="M 102.234833 374.2 
L 104.291667 374.100076 
L 104.722167 373.858714 
L 105.057 373.420899 
L 105.391833 372.57 
L 105.726667 371.022013 
L 106.0615 368.354307 
L 106.444167 363.145495 
L 106.826833 354.378573 
L 107.2095 340.222767 
L 107.64 314.688636 
L 108.0705 274.210614 
L 108.501 212.113872 
L 108.979333 106.880938 
L 109.170667 50.775351 
L 109.170667 50.775351 
" clip-path="url(#pccfb0c42e8)" style="fill: none; stroke: #cc79a7; stroke-width: 2.2; stroke-linecap: round"/>
   </g>
   <g id="text_14">
    <text style="font-weight: 700; font-size: 11px; font-family: 'DejaVu Sans Mono'; text-anchor: start; fill: #0072b2" x="642.066667" y="184.338454" transform="rotate(-0 642.066667 184.338454)">c = 3</text>
   </g>
   <g id="text_15">
    <text style="font-weight: 700; font-size: 11px; font-family: 'DejaVu Sans Mono'; text-anchor: start; fill: #e69f00" x="186.346667" y="90.08" transform="rotate(-0 186.346667 90.08)">c = 4</text>
   </g>
   <g id="text_16">
    <text style="font-weight: 700; font-size: 11px; font-family: 'DejaVu Sans Mono'; text-anchor: start; fill: #009e73" x="133.051333" y="162.1136" transform="rotate(-0 133.051333 162.1136)">c = 5</text>
   </g>
   <g id="text_17">
    <text style="font-weight: 700; font-size: 11px; font-family: 'DejaVu Sans Mono'; text-anchor: start; fill: #d55e00" x="120.3755" y="237.1436" transform="rotate(-0 120.3755 237.1436)">c = 6</text>
   </g>
   <g id="text_18">
    <text style="font-weight: 700; font-size: 11px; font-family: 'DejaVu Sans Mono'; text-anchor: start; fill: #cc79a7" x="115.735667" y="312.1736" transform="rotate(-0 115.735667 312.1736)">c = 7</text>
   </g>
   <g id="text_19">
    <text style="font-size: 10.5px; font-family: 'DejaVu Sans Mono'; fill: #b0432e" transform="translate(197.516667 328.527878)">the 2024 campaign:</text>
    <text style="font-size: 10.5px; font-family: 'DejaVu Sans Mono'; fill: #b0432e" transform="translate(197.516667 340.424706)">59,626,630,700 sequences</text>
    <text style="font-size: 10.5px; font-family: 'DejaVu Sans Mono'; fill: #b0432e" transform="translate(197.516667 352.270675)">(c = 3, degree 7,100)</text>
   </g>
   <g id="text_20">
    <text style="font-size: 10px; font-family: 'DejaVu Sans Mono'; text-anchor: start; fill: #6c685f" x="101.9" y="64.08" transform="rotate(-0 101.9 64.08)">f(c, d) = binomial(d, c) candidates at codimension c · linear axes, no log scale</text>
   </g>
   <g id="patch_7">
    <path d="M 101.9 374.2 
L 132.991667 374.2 
L 132.991667 374.17399 
L 101.9 374.17399 
L 101.9 374.2 
z
" style="fill: none; opacity: 0.9; stroke: #6c685f; stroke-width: 1.2; stroke-linejoin: miter"/>
   </g>
   <g id="axes_2">
    <g id="patch_8">
     <path d="M 251.14 248.1496 
L 411.86 248.1496 
L 411.86 146.1088 
L 251.14 146.1088 
z
" style="fill: #f5f3ee"/>
    </g>
    <g id="matplotlib.axis_3">
     <g id="xtick_8">
      <g id="line2d_28">
       <defs>
        <path id="mae489aef50" d="M 0 0 
L 0 3 
" style="stroke: #6c685f; stroke-width: 0.8"/>
       </defs>
       <g>
        <use xlink:href="#mae489aef50" x="251.14" y="248.1496" style="fill: #6c685f; stroke: #6c685f; stroke-width: 0.8"/>
       </g>
      </g>
      <g id="text_21">
       <text style="font-size: 8.5px; font-family: 'DejaVu Sans Mono'; text-anchor: middle; fill: #6c685f" x="251.14" y="261.153428" transform="rotate(-0 251.14 261.153428)">0</text>
      </g>
     </g>
     <g id="xtick_9">
      <g id="line2d_29">
       <g>
        <use xlink:href="#mae489aef50" x="374.770769" y="248.1496" style="fill: #6c685f; stroke: #6c685f; stroke-width: 0.8"/>
       </g>
      </g>
      <g id="text_22">
       <text style="font-size: 8.5px; font-family: 'DejaVu Sans Mono'; text-anchor: middle; fill: #6c685f" x="374.770769" y="261.153428" transform="rotate(-0 374.770769 261.153428)">500</text>
      </g>
     </g>
    </g>
    <g id="matplotlib.axis_4"/>
    <g id="line2d_30">
     <path d="M 251.881785 248.149596 
L 264.986646 248.040809 
L 272.157231 247.761963 
L 278.338769 247.302583 
L 283.778523 246.679192 
L 288.723754 245.897638 
L 293.421723 244.93608 
L 297.872431 243.803392 
L 302.075877 242.514515 
L 306.279323 240.993122 
L 310.235508 239.331552 
L 314.191692 237.430862 
L 318.147877 235.274975 
L 321.8568 233.007766 
L 325.565723 230.488889 
L 329.274646 227.705098 
L 332.983569 224.643148 
L 336.692492 221.289793 
L 340.401415 217.631787 
L 344.110338 213.655885 
L 347.819262 209.348841 
L 351.528185 204.697409 
L 355.237108 199.688344 
L 358.946031 194.3084 
L 362.654954 188.544331 
L 366.363877 182.382892 
L 370.0728 175.810836 
L 374.028985 168.333129 
L 377.985169 160.357087 
L 381.941354 151.866633 
L 385.897538 142.845692 
L 389.853723 133.27819 
L 393.809908 123.14805 
L 398.013354 111.750313 
L 402.2168 99.679981 
L 406.420246 86.917773 
L 410.623692 73.444408 
L 411.86 69.343506 
L 411.86 69.343506 
" clip-path="url(#pc5409493e6)" style="fill: none; stroke: #0072b2; stroke-width: 2; stroke-linecap: square"/>
    </g>
    <g id="patch_9">
     <path d="M 251.14 248.1496 
L 251.14 146.1088 
" style="fill: none; stroke: #6c685f; stroke-width: 0.8; stroke-linejoin: miter; stroke-linecap: square"/>
    </g>
    <g id="patch_10">
     <path d="M 411.86 248.1496 
L 411.86 146.1088 
" style="fill: none; stroke: #6c685f; stroke-width: 0.8; stroke-linejoin: miter; stroke-linecap: square"/>
    </g>
    <g id="patch_11">
     <path d="M 251.14 248.1496 
L 411.86 248.1496 
" style="fill: none; stroke: #6c685f; stroke-width: 0.8; stroke-linejoin: miter; stroke-linecap: square"/>
    </g>
    <g id="patch_12">
     <path d="M 251.14 146.1088 
L 411.86 146.1088 
" style="fill: none; stroke: #6c685f; stroke-width: 0.8; stroke-linejoin: miter; stroke-linecap: square"/>
    </g>
    <g id="text_23">
     <text style="font-size: 9px; font-family: 'DejaVu Sans Mono'; fill: #6c685f" transform="translate(257.321538 158.882175)">Macaulay2's memory wall,</text>
     <text style="font-size: 9px; font-family: 'DejaVu Sans Mono'; fill: #6c685f" transform="translate(257.321538 169.017582)">matched runs: 20,708,500</text>
     <text style="font-size: 9px; font-family: 'DejaVu Sans Mono'; fill: #6c685f" transform="translate(257.321538 179.152988)">(c = 3, degree 500)</text>
    </g>
    <g id="text_24">
     <text style="font-size: 9px; font-family: 'DejaVu Sans Mono'; text-anchor: middle; fill: #6c685f" x="331.5" y="142.1088" transform="rotate(-0 331.5 142.1088)">zoom on the sliver at the origin: 0 to 26 million</text>
    </g>
    <g id="line2d_31">
     <defs>
      <path id="mbc9e9d75a8" d="M 0 4 
C 1.060812 4 2.078319 3.578535 2.828427 2.828427 
C 3.578535 2.078319 4 1.060812 4 0 
C 4 -1.060812 3.578535 -2.078319 2.828427 -2.828427 
C 2.078319 -3.578535 1.060812 -4 0 -4 
C -1.060812 -4 -2.078319 -3.578535 -2.828427 -2.828427 
C -3.578535 -2.078319 -4 -1.060812 -4 0 
C -4 1.060812 -3.578535 2.078319 -2.828427 2.828427 
C -2.078319 3.578535 -1.060812 4 0 4 
z
" style="stroke: #6c685f; stroke-width: 2"/>
     </defs>
     <g clip-path="url(#pc5409493e6)">
      <use xlink:href="#mbc9e9d75a8" x="374.770769" y="166.876065" style="fill: #fbfaf8; stroke: #6c685f; stroke-width: 2"/>
     </g>
    </g>
   </g>
   <g id="line2d_32">
    <defs>
     <path id="m805faeb5c8" d="M 0 5 
C 1.326016 5 2.597899 4.473168 3.535534 3.535534 
C 4.473168 2.597899 5 1.326016 5 0 
C 5 -1.326016 4.473168 -2.597899 3.535534 -3.535534 
C 2.597899 -4.473168 1.326016 -5 0 -5 
C -1.326016 -5 -2.597899 -4.473168 -3.535534 -3.535534 
C -4.473168 -2.597899 -5 -1.326016 -5 0 
C -5 1.326016 -4.473168 2.597899 -3.535534 3.535534 
C -2.597899 4.473168 -1.326016 5 0 5 
z
" style="stroke: #b0432e; stroke-width: 2.4"/>
    </defs>
    <g clip-path="url(#pccfb0c42e8)">
     <use xlink:href="#m805faeb5c8" x="441.516667" y="314.549519" style="fill-opacity: 0; stroke: #b0432e; stroke-width: 2.4"/>
    </g>
   </g>
   <g id="line2d_33">
    <defs>
     <path id="ma104627195" d="M 0 2 
C 0.530406 2 1.03916 1.789267 1.414214 1.414214 
C 1.789267 1.03916 2 0.530406 2 0 
C 2 -0.530406 1.789267 -1.03916 1.414214 -1.414214 
C 1.03916 -1.789267 0.530406 -2 0 -2 
C -0.530406 -2 -1.03916 -1.789267 -1.414214 -1.414214 
C -1.789267 -1.03916 -2 -0.530406 -2 0 
C -2 0.530406 -1.789267 1.03916 -1.414214 1.414214 
C -1.03916 1.789267 -0.530406 2 0 2 
z
" style="stroke: #b0432e"/>
    </defs>
    <g clip-path="url(#pccfb0c42e8)">
     <use xlink:href="#ma104627195" x="441.516667" y="314.549519" style="fill: #b0432e; stroke: #b0432e"/>
    </g>
   </g>
  </g>
  <g id="text_25">
   <text style="font-weight: 700; font-size: 13.5px; font-family: 'DejaVu Sans Mono'; text-anchor: start; fill: #1b1b17" x="45.864" y="22.785891" transform="rotate(-0 45.864 22.785891)">Search space: degree sequences vs. max degree</text>
  </g>
 </g>
 <defs>
  <clipPath id="pccfb0c42e8">
   <rect x="101.9" y="74.08" width="574" height="300.12"/>
  </clipPath>
  <clipPath id="pc5409493e6">
   <rect x="251.14" y="146.1088" width="160.72" height="102.0408"/>
  </clipPath>
 </defs>
</svg>
