<svg viewBox="0 0 980 560" xmlns="http://www.w3.org/2000/svg" font-family="ui-monospace,Menlo,Consolas,monospace">
<rect width="980" height="560" fill="#FBFAF8"/>
<text x="34" y="34" fill="#1B1B17" font-size="17" font-weight="700">Bad-one search: runtime vs. problem size</text>
<text x="34" y="53" fill="#6C685F" font-size="11.5">codimension 3&#8211;7 &#183; LINEAR axes &#183; C++ (solid) vs. Macaulay2 (dashed) &#183; program CPU time</text>
<line x1="92.0" y1="80" x2="92.0" y2="470" stroke="#E4E1D9"/>
<text x="92.0" y="488" fill="#6C685F" font-size="11.5" text-anchor="middle">0</text>
<line x1="246.8" y1="80" x2="246.8" y2="470" stroke="#E4E1D9"/>
<text x="246.8" y="488" fill="#6C685F" font-size="11.5" text-anchor="middle">5M</text>
<line x1="401.5" y1="80" x2="401.5" y2="470" stroke="#E4E1D9"/>
<text x="401.5" y="488" fill="#6C685F" font-size="11.5" text-anchor="middle">10M</text>
<line x1="556.3" y1="80" x2="556.3" y2="470" stroke="#E4E1D9"/>
<text x="556.3" y="488" fill="#6C685F" font-size="11.5" text-anchor="middle">15M</text>
<line x1="711.0" y1="80" x2="711.0" y2="470" stroke="#E4E1D9"/>
<text x="711.0" y="488" fill="#6C685F" font-size="11.5" text-anchor="middle">20M</text>
<line x1="92" y1="470.0" x2="742" y2="470.0" stroke="#E4E1D9"/>
<text x="83" y="474.0" fill="#6C685F" font-size="11.5" text-anchor="end">0</text>
<line x1="92" y1="375.5" x2="742" y2="375.5" stroke="#E4E1D9"/>
<text x="83" y="379.5" fill="#6C685F" font-size="11.5" text-anchor="end">40 s</text>
<line x1="92" y1="280.9" x2="742" y2="280.9" stroke="#E4E1D9"/>
<text x="83" y="284.9" fill="#6C685F" font-size="11.5" text-anchor="end">80 s</text>
<line x1="92" y1="186.4" x2="742" y2="186.4" stroke="#E4E1D9"/>
<text x="83" y="190.4" fill="#6C685F" font-size="11.5" text-anchor="end">120 s</text>
<line x1="92" y1="91.8" x2="742" y2="91.8" stroke="#E4E1D9"/>
<text x="83" y="95.8" fill="#6C685F" font-size="11.5" text-anchor="end">160 s</text>
<text x="417" y="510" fill="#6C685F" font-size="12.5" text-anchor="middle">number of candidate sequences  n = C(d, c)</text>
<text transform="translate(36,275) rotate(-90)" fill="#6C685F" font-size="12.5" text-anchor="middle">CPU time</text>
<rect x="92" y="80" width="650" height="390" fill="none" stroke="#9C978C" stroke-width="1.2"/>
<rect x="132.2" y="80" width="609.8" height="390" fill="#B0432E" opacity="0.045"/>
<line x1="132.2" y1="80" x2="132.2" y2="470" stroke="#B0432E" stroke-width="1" stroke-dasharray="4 3" opacity="0.5"/>
<text x="139.2" y="96" fill="#B0432E" font-size="11.5">Macaulay2 out of memory &#8594;</text>
<polyline points="92.0,469.8 93.1,465.7 100.7,439.2" fill="none" stroke="#0072B2" stroke-width="1.6" stroke-dasharray="5 3" opacity="0.85"/>
<polyline points="92.0,470.0 93.1,470.0 100.7,469.7 171.6,467.3 733.0,444.0" fill="none" stroke="#0072B2" stroke-width="2.1"/>
<circle cx="92.0" cy="469.8" r="4.3" fill="#FBFAF8" stroke="#0072B2" stroke-width="1.8"/>
<circle cx="92.0" cy="470.0" r="4.3" fill="#0072B2" stroke="#0072B2" stroke-width="0"/>
<circle cx="93.1" cy="465.7" r="4.3" fill="#FBFAF8" stroke="#0072B2" stroke-width="1.8"/>
<circle cx="93.1" cy="470.0" r="4.3" fill="#0072B2" stroke="#0072B2" stroke-width="0"/>
<circle cx="100.7" cy="439.2" r="4.3" fill="#FBFAF8" stroke="#0072B2" stroke-width="1.8"/>
<circle cx="100.7" cy="469.7" r="4.3" fill="#0072B2" stroke="#0072B2" stroke-width="0"/>
<circle cx="171.6" cy="467.3" r="4.3" fill="#0072B2" stroke="#0072B2" stroke-width="0"/>
<circle cx="733.0" cy="444.0" r="4.3" fill="#0072B2" stroke="#0072B2" stroke-width="0"/>
<polyline points="92.0,469.8 94.8,457.4" fill="none" stroke="#009E73" stroke-width="1.6" stroke-dasharray="5 3" opacity="0.85"/>
<polyline points="92.0,470.0 94.8,469.9 141.0,467.9 719.1,439.6" fill="none" stroke="#009E73" stroke-width="2.1"/>
<circle cx="92.0" cy="469.8" r="4.3" fill="#FBFAF8" stroke="#009E73" stroke-width="1.8"/>
<circle cx="92.0" cy="470.0" r="4.3" fill="#009E73" stroke="#009E73" stroke-width="0"/>
<circle cx="94.8" cy="457.4" r="4.3" fill="#FBFAF8" stroke="#009E73" stroke-width="1.8"/>
<circle cx="94.8" cy="469.9" r="4.3" fill="#009E73" stroke="#009E73" stroke-width="0"/>
<circle cx="141.0" cy="467.9" r="4.3" fill="#009E73" stroke="#009E73" stroke-width="0"/>
<circle cx="719.1" cy="439.6" r="4.3" fill="#009E73" stroke="#009E73" stroke-width="0"/>
<polyline points="92.0,469.9 93.6,461.0 129.8,232.3" fill="none" stroke="#E69F00" stroke-width="1.6" stroke-dasharray="5 3" opacity="0.85"/>
<polyline points="92.0,470.0 93.6,469.9 129.8,467.9 466.6,443.5" fill="none" stroke="#E69F00" stroke-width="2.1"/>
<circle cx="92.0" cy="469.9" r="4.3" fill="#FBFAF8" stroke="#E69F00" stroke-width="1.8"/>
<circle cx="92.0" cy="470.0" r="4.3" fill="#E69F00" stroke="#E69F00" stroke-width="0"/>
<circle cx="93.6" cy="461.0" r="4.3" fill="#FBFAF8" stroke="#E69F00" stroke-width="1.8"/>
<circle cx="93.6" cy="469.9" r="4.3" fill="#E69F00" stroke="#E69F00" stroke-width="0"/>
<rect x="124.3" y="246.0" width="8.4" height="8.4" fill="#FBFAF8" stroke="#E69F00" stroke-width="1.8"/>
<rect x="124.3" y="462.8" width="8.4" height="8.4" fill="#E69F00" stroke="#E69F00" stroke-width="0"/>
<circle cx="129.8" cy="232.3" r="4.3" fill="#FBFAF8" stroke="#E69F00" stroke-width="1.8"/>
<circle cx="129.8" cy="467.9" r="4.3" fill="#E69F00" stroke="#E69F00" stroke-width="0"/>
<circle cx="466.6" cy="443.5" r="4.3" fill="#E69F00" stroke="#E69F00" stroke-width="0"/>
<polyline points="92.0,469.6 93.2,461.4 120.0,250.0" fill="none" stroke="#D55E00" stroke-width="1.6" stroke-dasharray="5 3" opacity="0.85"/>
<polyline points="92.0,470.0 93.2,469.9 120.0,468.1 583.9,421.3" fill="none" stroke="#D55E00" stroke-width="2.1"/>
<circle cx="92.0" cy="469.6" r="4.3" fill="#FBFAF8" stroke="#D55E00" stroke-width="1.8"/>
<circle cx="92.0" cy="470.0" r="4.3" fill="#D55E00" stroke="#D55E00" stroke-width="0"/>
<circle cx="93.2" cy="461.4" r="4.3" fill="#FBFAF8" stroke="#D55E00" stroke-width="1.8"/>
<circle cx="93.2" cy="469.9" r="4.3" fill="#D55E00" stroke="#D55E00" stroke-width="0"/>
<circle cx="120.0" cy="250.0" r="4.3" fill="#FBFAF8" stroke="#D55E00" stroke-width="1.8"/>
<circle cx="120.0" cy="468.1" r="4.3" fill="#D55E00" stroke="#D55E00" stroke-width="0"/>
<circle cx="583.9" cy="421.3" r="4.3" fill="#D55E00" stroke="#D55E00" stroke-width="0"/>
<polyline points="92.0,469.8 93.0,461.5 102.7,370.3 128.6,100.4" fill="none" stroke="#CC79A7" stroke-width="1.6" stroke-dasharray="5 3" opacity="0.85"/>
<polyline points="92.0,470.0 93.0,469.9 102.7,468.9 128.6,465.8 196.2,456.9" fill="none" stroke="#CC79A7" stroke-width="2.1"/>
<circle cx="92.0" cy="469.8" r="4.3" fill="#FBFAF8" stroke="#CC79A7" stroke-width="1.8"/>
<circle cx="92.0" cy="470.0" r="4.3" fill="#CC79A7" stroke="#CC79A7" stroke-width="0"/>
<circle cx="93.0" cy="461.5" r="4.3" fill="#FBFAF8" stroke="#CC79A7" stroke-width="1.8"/>
<circle cx="93.0" cy="469.9" r="4.3" fill="#CC79A7" stroke="#CC79A7" stroke-width="0"/>
<circle cx="102.7" cy="370.3" r="4.3" fill="#FBFAF8" stroke="#CC79A7" stroke-width="1.8"/>
<circle cx="102.7" cy="468.9" r="4.3" fill="#CC79A7" stroke="#CC79A7" stroke-width="0"/>
<rect x="123.8" y="119.9" width="8.4" height="8.4" fill="#FBFAF8" stroke="#CC79A7" stroke-width="1.8"/>
<rect x="123.8" y="462.1" width="8.4" height="8.4" fill="#CC79A7" stroke="#CC79A7" stroke-width="0"/>
<circle cx="128.6" cy="100.4" r="4.3" fill="#FBFAF8" stroke="#CC79A7" stroke-width="1.8"/>
<circle cx="128.6" cy="465.8" r="4.3" fill="#CC79A7" stroke="#CC79A7" stroke-width="0"/>
<circle cx="196.2" cy="456.9" r="4.3" fill="#CC79A7" stroke="#CC79A7" stroke-width="0"/>
<text x="135.6" y="103.4" fill="#B0432E" font-size="11">M2 hits 156 s at 1.2M</text>
<text x="494.4" y="415.3" fill="#3C5A49" font-size="11">C++ stays under ~20 s all the way to 20M</text>
<text x="764" y="86" fill="#1B1B17" font-size="12" font-weight="700">codimension</text>
<circle cx="771" cy="103" r="5" fill="#0072B2"/><text x="786" y="107" fill="#6C685F" font-size="12">c = 3</text>
<circle cx="771" cy="123" r="5" fill="#009E73"/><text x="786" y="127" fill="#6C685F" font-size="12">c = 4</text>
<circle cx="771" cy="143" r="5" fill="#E69F00"/><text x="786" y="147" fill="#6C685F" font-size="12">c = 5</text>
<circle cx="771" cy="163" r="5" fill="#D55E00"/><text x="786" y="167" fill="#6C685F" font-size="12">c = 6</text>
<circle cx="771" cy="183" r="5" fill="#CC79A7"/><text x="786" y="187" fill="#6C685F" font-size="12">c = 7</text>
<line x1="762" y1="221" x2="778" y2="221" stroke="#1B1B17" stroke-width="2.1"/><circle cx="771" cy="221" r="4.3" fill="#1B1B17"/><text x="786" y="225" fill="#6C685F" font-size="12">C++</text>
<line x1="762" y1="241" x2="778" y2="241" stroke="#1B1B17" stroke-width="1.6" stroke-dasharray="5 3"/><circle cx="771" cy="241" r="4.3" fill="#FBFAF8" stroke="#1B1B17" stroke-width="1.8"/><text x="786" y="245" fill="#6C685F" font-size="12">Macaulay2</text>
</svg>