<svg viewBox="0 0 980 648" xmlns="http://www.w3.org/2000/svg" font-family="ui-monospace,Menlo,Consolas,monospace">
<rect x="0" y="0" width="980" height="648" fill="#FBFAF8"/>
<text x="34" y="34" fill="#1B1B17" font-size="17" font-weight="700">Bad-one search: runtime vs. problem size</text>
<text x="34" y="53" fill="#6C685F" font-size="11.5">codimension 3&#8211;7 &#183; log&#8211;log &#183; C++ engine (solid) vs. Macaulay2 built-in (dashed) &#183; same machine, program CPU time</text>
<line x1="99.1" y1="74" x2="99.1" y2="556" stroke="#F1EFEA" stroke-width="1"/>
<line x1="107.2" y1="74" x2="107.2" y2="556" stroke="#F1EFEA" stroke-width="1"/>
<line x1="114.4" y1="74" x2="114.4" y2="556" stroke="#F1EFEA" stroke-width="1"/>
<line x1="162.9" y1="74" x2="162.9" y2="556" stroke="#F1EFEA" stroke-width="1"/>
<line x1="187.5" y1="74" x2="187.5" y2="556" stroke="#F1EFEA" stroke-width="1"/>
<line x1="205.0" y1="74" x2="205.0" y2="556" stroke="#F1EFEA" stroke-width="1"/>
<line x1="218.6" y1="74" x2="218.6" y2="556" stroke="#F1EFEA" stroke-width="1"/>
<line x1="229.7" y1="74" x2="229.7" y2="556" stroke="#F1EFEA" stroke-width="1"/>
<line x1="239.0" y1="74" x2="239.0" y2="556" stroke="#F1EFEA" stroke-width="1"/>
<line x1="247.1" y1="74" x2="247.1" y2="556" stroke="#F1EFEA" stroke-width="1"/>
<line x1="254.3" y1="74" x2="254.3" y2="556" stroke="#F1EFEA" stroke-width="1"/>
<line x1="302.8" y1="74" x2="302.8" y2="556" stroke="#F1EFEA" stroke-width="1"/>
<line x1="327.5" y1="74" x2="327.5" y2="556" stroke="#F1EFEA" stroke-width="1"/>
<line x1="344.9" y1="74" x2="344.9" y2="556" stroke="#F1EFEA" stroke-width="1"/>
<line x1="358.5" y1="74" x2="358.5" y2="556" stroke="#F1EFEA" stroke-width="1"/>
<line x1="369.6" y1="74" x2="369.6" y2="556" stroke="#F1EFEA" stroke-width="1"/>
<line x1="378.9" y1="74" x2="378.9" y2="556" stroke="#F1EFEA" stroke-width="1"/>
<line x1="387.1" y1="74" x2="387.1" y2="556" stroke="#F1EFEA" stroke-width="1"/>
<line x1="394.2" y1="74" x2="394.2" y2="556" stroke="#F1EFEA" stroke-width="1"/>
<line x1="442.7" y1="74" x2="442.7" y2="556" stroke="#F1EFEA" stroke-width="1"/>
<line x1="467.4" y1="74" x2="467.4" y2="556" stroke="#F1EFEA" stroke-width="1"/>
<line x1="484.8" y1="74" x2="484.8" y2="556" stroke="#F1EFEA" stroke-width="1"/>
<line x1="498.4" y1="74" x2="498.4" y2="556" stroke="#F1EFEA" stroke-width="1"/>
<line x1="509.5" y1="74" x2="509.5" y2="556" stroke="#F1EFEA" stroke-width="1"/>
<line x1="518.9" y1="74" x2="518.9" y2="556" stroke="#F1EFEA" stroke-width="1"/>
<line x1="527.0" y1="74" x2="527.0" y2="556" stroke="#F1EFEA" stroke-width="1"/>
<line x1="534.1" y1="74" x2="534.1" y2="556" stroke="#F1EFEA" stroke-width="1"/>
<line x1="582.6" y1="74" x2="582.6" y2="556" stroke="#F1EFEA" stroke-width="1"/>
<line x1="607.3" y1="74" x2="607.3" y2="556" stroke="#F1EFEA" stroke-width="1"/>
<line x1="624.8" y1="74" x2="624.8" y2="556" stroke="#F1EFEA" stroke-width="1"/>
<line x1="638.3" y1="74" x2="638.3" y2="556" stroke="#F1EFEA" stroke-width="1"/>
<line x1="649.4" y1="74" x2="649.4" y2="556" stroke="#F1EFEA" stroke-width="1"/>
<line x1="658.8" y1="74" x2="658.8" y2="556" stroke="#F1EFEA" stroke-width="1"/>
<line x1="666.9" y1="74" x2="666.9" y2="556" stroke="#F1EFEA" stroke-width="1"/>
<line x1="674.0" y1="74" x2="674.0" y2="556" stroke="#F1EFEA" stroke-width="1"/>
<line x1="722.6" y1="74" x2="722.6" y2="556" stroke="#F1EFEA" stroke-width="1"/>
<line x1="120.8" y1="74" x2="120.8" y2="556" stroke="#E4E1D9" stroke-width="1"/>
<text x="120.8" y="574" fill="#6C685F" font-size="11.5" text-anchor="middle">1K</text>
<line x1="260.7" y1="74" x2="260.7" y2="556" stroke="#E4E1D9" stroke-width="1"/>
<text x="260.7" y="574" fill="#6C685F" font-size="11.5" text-anchor="middle">10K</text>
<line x1="400.6" y1="74" x2="400.6" y2="556" stroke="#E4E1D9" stroke-width="1"/>
<text x="400.6" y="574" fill="#6C685F" font-size="11.5" text-anchor="middle">100K</text>
<line x1="540.5" y1="74" x2="540.5" y2="556" stroke="#E4E1D9" stroke-width="1"/>
<text x="540.5" y="574" fill="#6C685F" font-size="11.5" text-anchor="middle">1M</text>
<line x1="680.4" y1="74" x2="680.4" y2="556" stroke="#E4E1D9" stroke-width="1"/>
<text x="680.4" y="574" fill="#6C685F" font-size="11.5" text-anchor="middle">10M</text>
<text x="416" y="596" fill="#6C685F" font-size="12.5" text-anchor="middle">number of candidate sequences  n = C(d, c)</text>
<line x1="90" y1="551.9" x2="742" y2="551.9" stroke="#F1EFEA" stroke-width="1"/>
<line x1="90" y1="544.2" x2="742" y2="544.2" stroke="#F1EFEA" stroke-width="1"/>
<line x1="90" y1="537.9" x2="742" y2="537.9" stroke="#F1EFEA" stroke-width="1"/>
<line x1="90" y1="532.6" x2="742" y2="532.6" stroke="#F1EFEA" stroke-width="1"/>
<line x1="90" y1="528.0" x2="742" y2="528.0" stroke="#F1EFEA" stroke-width="1"/>
<line x1="90" y1="523.9" x2="742" y2="523.9" stroke="#F1EFEA" stroke-width="1"/>
<line x1="90" y1="496.4" x2="742" y2="496.4" stroke="#F1EFEA" stroke-width="1"/>
<line x1="90" y1="482.4" x2="742" y2="482.4" stroke="#F1EFEA" stroke-width="1"/>
<line x1="90" y1="472.5" x2="742" y2="472.5" stroke="#F1EFEA" stroke-width="1"/>
<line x1="90" y1="464.8" x2="742" y2="464.8" stroke="#F1EFEA" stroke-width="1"/>
<line x1="90" y1="458.5" x2="742" y2="458.5" stroke="#F1EFEA" stroke-width="1"/>
<line x1="90" y1="453.2" x2="742" y2="453.2" stroke="#F1EFEA" stroke-width="1"/>
<line x1="90" y1="448.6" x2="742" y2="448.6" stroke="#F1EFEA" stroke-width="1"/>
<line x1="90" y1="444.5" x2="742" y2="444.5" stroke="#F1EFEA" stroke-width="1"/>
<line x1="90" y1="417.0" x2="742" y2="417.0" stroke="#F1EFEA" stroke-width="1"/>
<line x1="90" y1="403.0" x2="742" y2="403.0" stroke="#F1EFEA" stroke-width="1"/>
<line x1="90" y1="393.1" x2="742" y2="393.1" stroke="#F1EFEA" stroke-width="1"/>
<line x1="90" y1="385.4" x2="742" y2="385.4" stroke="#F1EFEA" stroke-width="1"/>
<line x1="90" y1="379.1" x2="742" y2="379.1" stroke="#F1EFEA" stroke-width="1"/>
<line x1="90" y1="373.8" x2="742" y2="373.8" stroke="#F1EFEA" stroke-width="1"/>
<line x1="90" y1="369.1" x2="742" y2="369.1" stroke="#F1EFEA" stroke-width="1"/>
<line x1="90" y1="365.1" x2="742" y2="365.1" stroke="#F1EFEA" stroke-width="1"/>
<line x1="90" y1="337.5" x2="742" y2="337.5" stroke="#F1EFEA" stroke-width="1"/>
<line x1="90" y1="323.6" x2="742" y2="323.6" stroke="#F1EFEA" stroke-width="1"/>
<line x1="90" y1="313.6" x2="742" y2="313.6" stroke="#F1EFEA" stroke-width="1"/>
<line x1="90" y1="305.9" x2="742" y2="305.9" stroke="#F1EFEA" stroke-width="1"/>
<line x1="90" y1="299.7" x2="742" y2="299.7" stroke="#F1EFEA" stroke-width="1"/>
<line x1="90" y1="294.3" x2="742" y2="294.3" stroke="#F1EFEA" stroke-width="1"/>
<line x1="90" y1="289.7" x2="742" y2="289.7" stroke="#F1EFEA" stroke-width="1"/>
<line x1="90" y1="285.7" x2="742" y2="285.7" stroke="#F1EFEA" stroke-width="1"/>
<line x1="90" y1="258.1" x2="742" y2="258.1" stroke="#F1EFEA" stroke-width="1"/>
<line x1="90" y1="244.2" x2="742" y2="244.2" stroke="#F1EFEA" stroke-width="1"/>
<line x1="90" y1="234.2" x2="742" y2="234.2" stroke="#F1EFEA" stroke-width="1"/>
<line x1="90" y1="226.5" x2="742" y2="226.5" stroke="#F1EFEA" stroke-width="1"/>
<line x1="90" y1="220.3" x2="742" y2="220.3" stroke="#F1EFEA" stroke-width="1"/>
<line x1="90" y1="214.9" x2="742" y2="214.9" stroke="#F1EFEA" stroke-width="1"/>
<line x1="90" y1="210.3" x2="742" y2="210.3" stroke="#F1EFEA" stroke-width="1"/>
<line x1="90" y1="206.3" x2="742" y2="206.3" stroke="#F1EFEA" stroke-width="1"/>
<line x1="90" y1="178.7" x2="742" y2="178.7" stroke="#F1EFEA" stroke-width="1"/>
<line x1="90" y1="164.8" x2="742" y2="164.8" stroke="#F1EFEA" stroke-width="1"/>
<line x1="90" y1="154.8" x2="742" y2="154.8" stroke="#F1EFEA" stroke-width="1"/>
<line x1="90" y1="147.1" x2="742" y2="147.1" stroke="#F1EFEA" stroke-width="1"/>
<line x1="90" y1="140.8" x2="742" y2="140.8" stroke="#F1EFEA" stroke-width="1"/>
<line x1="90" y1="135.5" x2="742" y2="135.5" stroke="#F1EFEA" stroke-width="1"/>
<line x1="90" y1="130.9" x2="742" y2="130.9" stroke="#F1EFEA" stroke-width="1"/>
<line x1="90" y1="126.9" x2="742" y2="126.9" stroke="#F1EFEA" stroke-width="1"/>
<line x1="90" y1="99.3" x2="742" y2="99.3" stroke="#F1EFEA" stroke-width="1"/>
<line x1="90" y1="85.3" x2="742" y2="85.3" stroke="#F1EFEA" stroke-width="1"/>
<line x1="90" y1="75.4" x2="742" y2="75.4" stroke="#F1EFEA" stroke-width="1"/>
<line x1="90" y1="520.3" x2="742" y2="520.3" stroke="#E4E1D9" stroke-width="1"/>
<text x="81" y="524.3" fill="#6C685F" font-size="11.5" text-anchor="end">1 ms</text>
<line x1="90" y1="440.9" x2="742" y2="440.9" stroke="#E4E1D9" stroke-width="1"/>
<text x="81" y="444.9" fill="#6C685F" font-size="11.5" text-anchor="end">10 ms</text>
<line x1="90" y1="361.5" x2="742" y2="361.5" stroke="#E4E1D9" stroke-width="1"/>
<text x="81" y="365.5" fill="#6C685F" font-size="11.5" text-anchor="end">0.1 s</text>
<line x1="90" y1="282.0" x2="742" y2="282.0" stroke="#E4E1D9" stroke-width="1"/>
<text x="81" y="286.0" fill="#6C685F" font-size="11.5" text-anchor="end">1 s</text>
<line x1="90" y1="202.6" x2="742" y2="202.6" stroke="#E4E1D9" stroke-width="1"/>
<text x="81" y="206.6" fill="#6C685F" font-size="11.5" text-anchor="end">10 s</text>
<line x1="90" y1="123.2" x2="742" y2="123.2" stroke="#E4E1D9" stroke-width="1"/>
<text x="81" y="127.2" fill="#6C685F" font-size="11.5" text-anchor="end">100 s</text>
<text transform="translate(32,315) rotate(-90)" fill="#6C685F" font-size="12.5" text-anchor="middle">CPU time</text>
<rect x="556.5" y="74" width="185.5" height="482" fill="#B0432E" opacity="0.045"/>
<line x1="556.5" y1="74" x2="556.5" y2="556" stroke="#B0432E" stroke-width="1" stroke-dasharray="4 3" opacity="0.5"/>
<text x="563.5" y="90" fill="#B0432E" font-size="11.5">Macaulay2 runs out of memory &#8594;</text>
<rect x="90" y="74" width="652" height="482" fill="none" stroke="#9C978C" stroke-width="1.2"/>
<polyline points="128.7,364.1 335.4,261.2 463.4,193.5" fill="none" stroke="#0072B2" stroke-width="1.6" stroke-dasharray="5 3" opacity="0.85"/>
<polyline points="128.7,506.3 335.4,420.2 463.4,354.7 597.9,277.1 724.7,199.4" fill="none" stroke="#0072B2" stroke-width="2.1"/>
<circle cx="128.7" cy="364.1" r="4.3" fill="#FBFAF8" stroke="#0072B2" stroke-width="1.8"/>
<circle cx="128.7" cy="506.3" r="4.3" fill="#0072B2" stroke="#0072B2" stroke-width="0"/>
<circle cx="335.4" cy="261.2" r="4.3" fill="#FBFAF8" stroke="#0072B2" stroke-width="1.8"/>
<circle cx="335.4" cy="420.2" r="4.3" fill="#0072B2" stroke="#0072B2" stroke-width="0"/>
<circle cx="463.4" cy="193.5" r="4.3" fill="#FBFAF8" stroke="#0072B2" stroke-width="1.8"/>
<circle cx="463.4" cy="354.7" r="4.3" fill="#0072B2" stroke="#0072B2" stroke-width="0"/>
<circle cx="597.9" cy="277.1" r="4.3" fill="#0072B2" stroke="#0072B2" stroke-width="0"/>
<circle cx="724.7" cy="199.4" r="4.3" fill="#0072B2" stroke="#0072B2" stroke-width="0"/>
<polyline points="139.7,369.0 395.1,224.4" fill="none" stroke="#009E73" stroke-width="1.6" stroke-dasharray="5 3" opacity="0.85"/>
<polyline points="139.7,537.9 395.1,388.3 568.4,285.9 723.3,194.0" fill="none" stroke="#009E73" stroke-width="2.1"/>
<circle cx="139.7" cy="369.0" r="4.3" fill="#FBFAF8" stroke="#009E73" stroke-width="1.8"/>
<circle cx="139.7" cy="537.9" r="4.3" fill="#009E73" stroke="#009E73" stroke-width="0"/>
<circle cx="395.1" cy="224.4" r="4.3" fill="#FBFAF8" stroke="#009E73" stroke-width="1.8"/>
<circle cx="395.1" cy="388.3" r="4.3" fill="#009E73" stroke="#009E73" stroke-width="0"/>
<circle cx="568.4" cy="285.9" r="4.3" fill="#009E73" stroke="#009E73" stroke-width="0"/>
<circle cx="723.3" cy="194.0" r="4.3" fill="#009E73" stroke="#009E73" stroke-width="0"/>
<polyline points="106.6,383.5 362.2,236.0 552.7,123.0" fill="none" stroke="#E69F00" stroke-width="1.6" stroke-dasharray="5 3" opacity="0.85"/>
<polyline points="106.6,551.9 362.2,399.5 552.7,286.5 692.0,198.7" fill="none" stroke="#E69F00" stroke-width="2.1"/>
<circle cx="106.6" cy="383.5" r="4.3" fill="#FBFAF8" stroke="#E69F00" stroke-width="1.8"/>
<circle cx="106.6" cy="551.9" r="4.3" fill="#E69F00" stroke="#E69F00" stroke-width="0"/>
<circle cx="362.2" cy="236.0" r="4.3" fill="#FBFAF8" stroke="#E69F00" stroke-width="1.8"/>
<circle cx="362.2" cy="399.5" r="4.3" fill="#E69F00" stroke="#E69F00" stroke-width="0"/>
<rect x="546.3" y="121.5" width="8.4" height="8.4" fill="#FBFAF8" stroke="#E69F00" stroke-width="1.8"/>
<rect x="546.3" y="269.6" width="8.4" height="8.4" fill="#E69F00" stroke="#E69F00" stroke-width="0"/>
<circle cx="552.7" cy="123.0" r="4.3" fill="#FBFAF8" stroke="#E69F00" stroke-width="1.8"/>
<circle cx="552.7" cy="286.5" r="4.3" fill="#E69F00" stroke="#E69F00" stroke-width="0"/>
<circle cx="692.0" cy="198.7" r="4.3" fill="#E69F00" stroke="#E69F00" stroke-width="0"/>
<polyline points="116.0,347.3 343.0,237.7 534.5,125.7" fill="none" stroke="#D55E00" stroke-width="1.6" stroke-dasharray="5 3" opacity="0.85"/>
<polyline points="116.0,514.0 343.0,386.4 534.5,289.5 708.6,177.7" fill="none" stroke="#D55E00" stroke-width="2.1"/>
<circle cx="116.0" cy="347.3" r="4.3" fill="#FBFAF8" stroke="#D55E00" stroke-width="1.8"/>
<circle cx="116.0" cy="514.0" r="4.3" fill="#D55E00" stroke="#D55E00" stroke-width="0"/>
<circle cx="343.0" cy="237.7" r="4.3" fill="#FBFAF8" stroke="#D55E00" stroke-width="1.8"/>
<circle cx="343.0" cy="386.4" r="4.3" fill="#D55E00" stroke="#D55E00" stroke-width="0"/>
<circle cx="534.5" cy="125.7" r="4.3" fill="#FBFAF8" stroke="#D55E00" stroke-width="1.8"/>
<circle cx="534.5" cy="289.5" r="4.3" fill="#D55E00" stroke="#D55E00" stroke-width="0"/>
<circle cx="708.6" cy="177.7" r="4.3" fill="#D55E00" stroke="#D55E00" stroke-width="0"/>
<polyline points="106.6,367.3 331.0,237.9 476.1,153.0 550.8,107.8" fill="none" stroke="#CC79A7" stroke-width="1.6" stroke-dasharray="5 3" opacity="0.85"/>
<polyline points="106.6,511.2 331.0,383.8 476.1,307.3 550.8,262.0 614.3,222.9" fill="none" stroke="#CC79A7" stroke-width="2.1"/>
<circle cx="106.6" cy="367.3" r="4.3" fill="#FBFAF8" stroke="#CC79A7" stroke-width="1.8"/>
<circle cx="106.6" cy="511.2" r="4.3" fill="#CC79A7" stroke="#CC79A7" stroke-width="0"/>
<circle cx="331.0" cy="237.9" r="4.3" fill="#FBFAF8" stroke="#CC79A7" stroke-width="1.8"/>
<circle cx="331.0" cy="383.8" r="4.3" fill="#CC79A7" stroke="#CC79A7" stroke-width="0"/>
<circle cx="476.1" cy="153.0" r="4.3" fill="#FBFAF8" stroke="#CC79A7" stroke-width="1.8"/>
<circle cx="476.1" cy="307.3" r="4.3" fill="#CC79A7" stroke="#CC79A7" stroke-width="0"/>
<rect x="545.6" y="105.9" width="8.4" height="8.4" fill="#FBFAF8" stroke="#CC79A7" stroke-width="1.8"/>
<rect x="545.6" y="262.4" width="8.4" height="8.4" fill="#CC79A7" stroke="#CC79A7" stroke-width="0"/>
<circle cx="550.8" cy="107.8" r="4.3" fill="#FBFAF8" stroke="#CC79A7" stroke-width="1.8"/>
<circle cx="550.8" cy="262.0" r="4.3" fill="#CC79A7" stroke="#CC79A7" stroke-width="0"/>
<circle cx="614.3" cy="222.9" r="4.3" fill="#CC79A7" stroke="#CC79A7" stroke-width="0"/>
<text x="716.7" y="190.4" fill="#3C5A49" font-size="11" font-weight="600" text-anchor="end">20.7M seqs &#183; 11 s</text>
<text x="559.8" y="109.8" fill="#B0432E" font-size="11">156 s</text>
<text x="559.8" y="266.0" fill="#3C5A49" font-size="11">1.8 s &#8594; 87&#215;</text>
<text x="766" y="80" fill="#1B1B17" font-size="12" font-weight="700">codimension</text>
<circle cx="773" cy="97" r="5" fill="#0072B2"/><text x="788" y="101" fill="#6C685F" font-size="12">c = 3</text>
<circle cx="773" cy="117" r="5" fill="#009E73"/><text x="788" y="121" fill="#6C685F" font-size="12">c = 4</text>
<circle cx="773" cy="137" r="5" fill="#E69F00"/><text x="788" y="141" fill="#6C685F" font-size="12">c = 5</text>
<circle cx="773" cy="157" r="5" fill="#D55E00"/><text x="788" y="161" fill="#6C685F" font-size="12">c = 6</text>
<circle cx="773" cy="177" r="5" fill="#CC79A7"/><text x="788" y="181" fill="#6C685F" font-size="12">c = 7</text>
<text x="766" y="219" fill="#1B1B17" font-size="12" font-weight="700">series</text>
<line x1="764" y1="236" x2="782" y2="236" stroke="#1B1B17" stroke-width="2.1"/><circle cx="773" cy="236" r="4.3" fill="#1B1B17"/><text x="790" y="240" fill="#6C685F" font-size="12">C++ engine</text>
<line x1="764" y1="256" x2="782" y2="256" stroke="#1B1B17" stroke-width="1.6" stroke-dasharray="5 3"/><circle cx="773" cy="256" r="4.3" fill="#FBFAF8" stroke="#1B1B17" stroke-width="1.8"/><text x="790" y="260" fill="#6C685F" font-size="12">Macaulay2</text>
<rect x="768.8" y="272" width="8.4" height="8.4" fill="#1B1B17"/><text x="790" y="280" fill="#6C685F" font-size="12">raised start deg.</text>
</svg>