<svg viewBox="0 0 980 468" xmlns="http://www.w3.org/2000/svg" font-family="ui-monospace,Menlo,Consolas,monospace">
<rect x="0" y="0" width="980" height="468" fill="#FBFAF8"/>
<text x="34" y="34" fill="#1B1B17" font-size="17" font-weight="700">Speedup: how many times faster than Macaulay2</text>
<text x="34" y="53" fill="#6C685F" font-size="11.5">speedup = M2 CPU time &#247; C++ CPU time, per benchmark point &#183; colored by codimension</text>
<rect x="90" y="142.1" width="652" height="96.2" fill="#3C5A49" opacity="0.08"/>
<text x="736" y="194.2" fill="#3C5A49" font-size="11" text-anchor="end">typical 70&#8211;115&#215;</text>
<line x1="90" y1="388.0" x2="742" y2="388.0" stroke="#E4E1D9" stroke-width="1"/>
<text x="81" y="392.0" fill="#6C685F" font-size="11.5" text-anchor="end">0&#215;</text>
<line x1="90" y1="334.6" x2="742" y2="334.6" stroke="#E4E1D9" stroke-width="1"/>
<text x="81" y="338.6" fill="#6C685F" font-size="11.5" text-anchor="end">25&#215;</text>
<line x1="90" y1="281.1" x2="742" y2="281.1" stroke="#E4E1D9" stroke-width="1"/>
<text x="81" y="285.1" fill="#6C685F" font-size="11.5" text-anchor="end">50&#215;</text>
<line x1="90" y1="227.7" x2="742" y2="227.7" stroke="#E4E1D9" stroke-width="1"/>
<text x="81" y="231.7" fill="#6C685F" font-size="11.5" text-anchor="end">75&#215;</text>
<line x1="90" y1="174.2" x2="742" y2="174.2" stroke="#E4E1D9" stroke-width="1"/>
<text x="81" y="178.2" fill="#6C685F" font-size="11.5" text-anchor="end">100&#215;</text>
<line x1="90" y1="120.8" x2="742" y2="120.8" stroke="#E4E1D9" stroke-width="1"/>
<text x="81" y="124.8" fill="#6C685F" font-size="11.5" text-anchor="end">125&#215;</text>
<line x1="100.1" y1="78" x2="100.1" y2="388" stroke="#F1EFEA" stroke-width="1"/>
<line x1="109.0" y1="78" x2="109.0" y2="388" stroke="#F1EFEA" stroke-width="1"/>
<line x1="116.9" y1="78" x2="116.9" y2="388" stroke="#F1EFEA" stroke-width="1"/>
<line x1="170.5" y1="78" x2="170.5" y2="388" stroke="#F1EFEA" stroke-width="1"/>
<line x1="197.7" y1="78" x2="197.7" y2="388" stroke="#F1EFEA" stroke-width="1"/>
<line x1="217.0" y1="78" x2="217.0" y2="388" stroke="#F1EFEA" stroke-width="1"/>
<line x1="232.0" y1="78" x2="232.0" y2="388" stroke="#F1EFEA" stroke-width="1"/>
<line x1="244.2" y1="78" x2="244.2" y2="388" stroke="#F1EFEA" stroke-width="1"/>
<line x1="254.6" y1="78" x2="254.6" y2="388" stroke="#F1EFEA" stroke-width="1"/>
<line x1="263.5" y1="78" x2="263.5" y2="388" stroke="#F1EFEA" stroke-width="1"/>
<line x1="271.4" y1="78" x2="271.4" y2="388" stroke="#F1EFEA" stroke-width="1"/>
<line x1="325.0" y1="78" x2="325.0" y2="388" stroke="#F1EFEA" stroke-width="1"/>
<line x1="352.2" y1="78" x2="352.2" y2="388" stroke="#F1EFEA" stroke-width="1"/>
<line x1="371.5" y1="78" x2="371.5" y2="388" stroke="#F1EFEA" stroke-width="1"/>
<line x1="386.5" y1="78" x2="386.5" y2="388" stroke="#F1EFEA" stroke-width="1"/>
<line x1="398.7" y1="78" x2="398.7" y2="388" stroke="#F1EFEA" stroke-width="1"/>
<line x1="409.1" y1="78" x2="409.1" y2="388" stroke="#F1EFEA" stroke-width="1"/>
<line x1="418.0" y1="78" x2="418.0" y2="388" stroke="#F1EFEA" stroke-width="1"/>
<line x1="425.9" y1="78" x2="425.9" y2="388" stroke="#F1EFEA" stroke-width="1"/>
<line x1="479.5" y1="78" x2="479.5" y2="388" stroke="#F1EFEA" stroke-width="1"/>
<line x1="506.7" y1="78" x2="506.7" y2="388" stroke="#F1EFEA" stroke-width="1"/>
<line x1="526.0" y1="78" x2="526.0" y2="388" stroke="#F1EFEA" stroke-width="1"/>
<line x1="541.0" y1="78" x2="541.0" y2="388" stroke="#F1EFEA" stroke-width="1"/>
<line x1="553.2" y1="78" x2="553.2" y2="388" stroke="#F1EFEA" stroke-width="1"/>
<line x1="563.6" y1="78" x2="563.6" y2="388" stroke="#F1EFEA" stroke-width="1"/>
<line x1="572.5" y1="78" x2="572.5" y2="388" stroke="#F1EFEA" stroke-width="1"/>
<line x1="580.4" y1="78" x2="580.4" y2="388" stroke="#F1EFEA" stroke-width="1"/>
<line x1="634.0" y1="78" x2="634.0" y2="388" stroke="#F1EFEA" stroke-width="1"/>
<line x1="661.2" y1="78" x2="661.2" y2="388" stroke="#F1EFEA" stroke-width="1"/>
<line x1="680.5" y1="78" x2="680.5" y2="388" stroke="#F1EFEA" stroke-width="1"/>
<line x1="695.5" y1="78" x2="695.5" y2="388" stroke="#F1EFEA" stroke-width="1"/>
<line x1="707.7" y1="78" x2="707.7" y2="388" stroke="#F1EFEA" stroke-width="1"/>
<line x1="718.1" y1="78" x2="718.1" y2="388" stroke="#F1EFEA" stroke-width="1"/>
<line x1="727.0" y1="78" x2="727.0" y2="388" stroke="#F1EFEA" stroke-width="1"/>
<line x1="734.9" y1="78" x2="734.9" y2="388" stroke="#F1EFEA" stroke-width="1"/>
<line x1="124.0" y1="78" x2="124.0" y2="388" stroke="#E4E1D9" stroke-width="1"/>
<text x="124.0" y="406" fill="#6C685F" font-size="11.5" text-anchor="middle">1K</text>
<line x1="278.5" y1="78" x2="278.5" y2="388" stroke="#E4E1D9" stroke-width="1"/>
<text x="278.5" y="406" fill="#6C685F" font-size="11.5" text-anchor="middle">10K</text>
<line x1="433.0" y1="78" x2="433.0" y2="388" stroke="#E4E1D9" stroke-width="1"/>
<text x="433.0" y="406" fill="#6C685F" font-size="11.5" text-anchor="middle">100K</text>
<line x1="587.5" y1="78" x2="587.5" y2="388" stroke="#E4E1D9" stroke-width="1"/>
<text x="587.5" y="406" fill="#6C685F" font-size="11.5" text-anchor="middle">1M</text>
<line x1="742.0" y1="78" x2="742.0" y2="388" stroke="#E4E1D9" stroke-width="1"/>
<text x="742.0" y="406" fill="#6C685F" font-size="11.5" text-anchor="middle">10M</text>
<text x="416" y="428" fill="#6C685F" font-size="12.5" text-anchor="middle">number of candidate sequences  n = C(d, c)</text>
<rect x="90" y="78" width="652" height="310" fill="none" stroke="#9C978C" stroke-width="1.2"/>
<circle cx="132.8" cy="255.9" r="3.6" fill="#0072B2" opacity="0.35"/>
<circle cx="361.0" cy="172.7" r="4.3" fill="#0072B2" stroke="#0072B2" stroke-width="0"/>
<circle cx="502.3" cy="159.3" r="4.3" fill="#0072B2" stroke="#0072B2" stroke-width="0"/>
<circle cx="144.9" cy="102.0" r="3.6" fill="#009E73" opacity="0.35"/>
<circle cx="427.0" cy="140.2" r="4.3" fill="#009E73" stroke="#009E73" stroke-width="0"/>
<circle cx="108.3" cy="106.3" r="3.6" fill="#E69F00" opacity="0.35"/>
<circle cx="390.6" cy="142.9" r="4.3" fill="#E69F00" stroke="#E69F00" stroke-width="0"/>
<rect x="594.4" y="227.1" width="8.4" height="8.4" fill="#E69F00" stroke="#E69F00" stroke-width="0"/>
<circle cx="600.9" cy="143.3" r="4.3" fill="#E69F00" stroke="#E69F00" stroke-width="0"/>
<circle cx="118.7" cy="119.4" r="3.6" fill="#D55E00" opacity="0.35"/>
<circle cx="369.4" cy="228.4" r="4.3" fill="#D55E00" stroke="#D55E00" stroke-width="0"/>
<circle cx="580.9" cy="141.1" r="4.3" fill="#D55E00" stroke="#D55E00" stroke-width="0"/>
<circle cx="108.3" cy="249.3" r="3.6" fill="#CC79A7" opacity="0.35"/>
<circle cx="356.2" cy="241.1" r="4.3" fill="#CC79A7" stroke="#CC79A7" stroke-width="0"/>
<circle cx="516.3" cy="200.5" r="4.3" fill="#CC79A7" stroke="#CC79A7" stroke-width="0"/>
<rect x="593.5" y="183.6" width="8.4" height="8.4" fill="#CC79A7" stroke="#CC79A7" stroke-width="0"/>
<circle cx="598.8" cy="201.0" r="4.3" fill="#CC79A7" stroke="#CC79A7" stroke-width="0"/>
<text x="96" y="92" fill="#6C685F" font-size="10.5">faded = sub-millisecond C++ time (n &lt; 1.4K), high variance</text>
<text x="766" y="88" fill="#1B1B17" font-size="12" font-weight="700">codimension</text>
<circle cx="773" cy="105" r="5" fill="#0072B2"/><text x="788" y="109" fill="#6C685F" font-size="12">c = 3</text>
<circle cx="773" cy="125" r="5" fill="#009E73"/><text x="788" y="129" fill="#6C685F" font-size="12">c = 4</text>
<circle cx="773" cy="145" r="5" fill="#E69F00"/><text x="788" y="149" fill="#6C685F" font-size="12">c = 5</text>
<circle cx="773" cy="165" r="5" fill="#D55E00"/><text x="788" y="169" fill="#6C685F" font-size="12">c = 6</text>
<circle cx="773" cy="185" r="5" fill="#CC79A7"/><text x="788" y="189" fill="#6C685F" font-size="12">c = 7</text>
</svg>