<svg viewBox="0 0 980 560" xmlns="http://www.w3.org/2000/svg" font-family="ui-monospace,Menlo,Consolas,monospace" role="img" aria-labelledby="chart-title chart-desc">
<title id="chart-title">Fresh matched-case end-to-end wall time</title>
<desc id="chart-desc">Grouped bars compare median external wall time for the C++ engine and Macaulay2 across four cases. C++ medians are 0.227, 4.087, 2.785, 1.378 seconds; Macaulay2 medians are 13.963, 87.594, 78.985, 40.416 seconds.</desc>
<rect width="980" height="560" fill="#FBFAF8"/>
<text x="34" y="34" fill="#1B1B17" font-size="17" font-weight="700">Fresh matched-case end-to-end wall time</text>
<text x="34" y="55" fill="#6C685F" font-size="11.5">headline bundle 20260715T202630Z-b2a9bfb8-headline · medians · linear scale · exact outputs match</text>
<line x1="92" y1="440.0" x2="940" y2="440.0" stroke="#E7E4DC"/>
<text x="82" y="444.0" fill="#6C685F" font-size="11.5" text-anchor="end">0 s</text>
<line x1="92" y1="370.4" x2="940" y2="370.4" stroke="#E7E4DC"/>
<text x="82" y="374.4" fill="#6C685F" font-size="11.5" text-anchor="end">20 s</text>
<line x1="92" y1="300.8" x2="940" y2="300.8" stroke="#E7E4DC"/>
<text x="82" y="304.8" fill="#6C685F" font-size="11.5" text-anchor="end">40 s</text>
<line x1="92" y1="231.2" x2="940" y2="231.2" stroke="#E7E4DC"/>
<text x="82" y="235.2" fill="#6C685F" font-size="11.5" text-anchor="end">60 s</text>
<line x1="92" y1="161.6" x2="940" y2="161.6" stroke="#E7E4DC"/>
<text x="82" y="165.6" fill="#6C685F" font-size="11.5" text-anchor="end">80 s</text>
<line x1="92" y1="92.0" x2="940" y2="92.0" stroke="#E7E4DC"/>
<text x="82" y="96.0" fill="#6C685F" font-size="11.5" text-anchor="end">100 s</text>
<line x1="92" y1="92" x2="92" y2="440" stroke="#9C978C"/>
<line x1="92" y1="440" x2="940" y2="440" stroke="#9C978C"/>
<rect x="141" y="439.21" width="44" height="0.79" fill="#0072B2"><title>C++: 0.227 s</title></rect>
<text x="163" y="431.2" fill="#1B1B17" font-size="10.5" text-anchor="middle">0.227</text>
<rect x="195" y="391.41" width="44" height="48.59" fill="#D55E00"><title>Macaulay2: 13.963 s</title></rect>
<text x="217" y="383.4" fill="#1B1B17" font-size="10.5" text-anchor="middle">13.963</text>
<text x="190" y="469" fill="#1B1B17" font-size="11.5" text-anchor="middle">c = 3, d = 120</text>
<text x="190" y="487" fill="#6C685F" font-size="10.5" text-anchor="middle">280,840 candidates</text>
<rect x="341" y="425.78" width="44" height="14.22" fill="#0072B2"><title>C++: 4.087 s</title></rect>
<text x="363" y="417.8" fill="#1B1B17" font-size="10.5" text-anchor="middle">4.087</text>
<rect x="395" y="135.17" width="44" height="304.83" fill="#D55E00"><title>Macaulay2: 87.594 s</title></rect>
<text x="417" y="127.2" fill="#1B1B17" font-size="10.5" text-anchor="middle">87.594</text>
<text x="390" y="469" fill="#1B1B17" font-size="11.5" text-anchor="middle">c = 5, d = 45</text>
<text x="390" y="487" fill="#6C685F" font-size="10.5" text-anchor="middle">1,221,759 candidates</text>
<rect x="541" y="430.31" width="44" height="9.69" fill="#0072B2"><title>C++: 2.785 s</title></rect>
<text x="563" y="422.3" fill="#1B1B17" font-size="10.5" text-anchor="middle">2.785</text>
<rect x="595" y="165.13" width="44" height="274.87" fill="#D55E00"><title>Macaulay2: 78.985 s</title></rect>
<text x="617" y="157.1" fill="#1B1B17" font-size="10.5" text-anchor="middle">78.985</text>
<text x="590" y="469" fill="#1B1B17" font-size="11.5" text-anchor="middle">c = 6, d = 32</text>
<text x="590" y="487" fill="#6C685F" font-size="10.5" text-anchor="middle">906,192 candidates</text>
<rect x="741" y="435.20" width="44" height="4.80" fill="#0072B2"><title>C++: 1.378 s</title></rect>
<text x="763" y="427.2" fill="#1B1B17" font-size="10.5" text-anchor="middle">1.378</text>
<rect x="795" y="299.35" width="44" height="140.65" fill="#D55E00"><title>Macaulay2: 40.416 s</title></rect>
<text x="817" y="291.4" fill="#1B1B17" font-size="10.5" text-anchor="middle">40.416</text>
<text x="790" y="469" fill="#1B1B17" font-size="11.5" text-anchor="middle">c = 7, d = 24</text>
<text x="790" y="487" fill="#6C685F" font-size="10.5" text-anchor="middle">346,104 candidates</text>
<rect x="673" y="69" width="12" height="12" fill="#0072B2"/><text x="691" y="79" fill="#1B1B17" font-size="11.5">C++ engine</text>
<rect x="805" y="69" width="12" height="12" fill="#D55E00"/><text x="823" y="79" fill="#1B1B17" font-size="11.5">Macaulay2</text>
<text x="516" y="526" fill="#6C685F" font-size="11.5" text-anchor="middle">three successful paired repetitions per case · complete exact result arrays match</text>
</svg>
