<svg viewBox="0 0 720 470" xmlns="http://www.w3.org/2000/svg" font-family="ui-monospace,Menlo,Consolas,monospace">
<style>.lbl{fill:#6C685F;font-size:11px}.ttl{fill:#1B1B17;font-size:14.5px;font-weight:600}.ax{fill:#37342D;font-size:11px}</style>
<text x="96" y="26" class="ttl">Bad-one search &#8212; runtime vs. number of sequences</text>
<text x="96" y="44" class="lbl">codimension 3&#8211;7 &#183; log&#8211;log &#183; same machine, program CPU time</text>
<line x1="133.9" y1="60" x2="133.9" y2="392" stroke="#E7E4DC" stroke-width="1"/>
<text x="133.9" y="409" class="ax" text-anchor="middle">1K</text>
<line x1="260.2" y1="60" x2="260.2" y2="392" stroke="#E7E4DC" stroke-width="1"/>
<text x="260.2" y="409" class="ax" text-anchor="middle">10K</text>
<line x1="386.4" y1="60" x2="386.4" y2="392" stroke="#E7E4DC" stroke-width="1"/>
<text x="386.4" y="409" class="ax" text-anchor="middle">100K</text>
<line x1="512.7" y1="60" x2="512.7" y2="392" stroke="#E7E4DC" stroke-width="1"/>
<text x="512.7" y="409" class="ax" text-anchor="middle">1M</text>
<line x1="639.0" y1="60" x2="639.0" y2="392" stroke="#E7E4DC" stroke-width="1"/>
<text x="639.0" y="409" class="ax" text-anchor="middle">10M</text>
<line x1="96" y1="364.8" x2="692" y2="364.8" stroke="#E7E4DC" stroke-width="1"/>
<text x="87" y="368.3" class="ax" text-anchor="end">1ms</text>
<line x1="96" y1="310.4" x2="692" y2="310.4" stroke="#E7E4DC" stroke-width="1"/>
<text x="87" y="313.9" class="ax" text-anchor="end">10ms</text>
<line x1="96" y1="255.9" x2="692" y2="255.9" stroke="#E7E4DC" stroke-width="1"/>
<text x="87" y="259.4" class="ax" text-anchor="end">0.1s</text>
<line x1="96" y1="201.5" x2="692" y2="201.5" stroke="#E7E4DC" stroke-width="1"/>
<text x="87" y="205.0" class="ax" text-anchor="end">1s</text>
<line x1="96" y1="147.1" x2="692" y2="147.1" stroke="#E7E4DC" stroke-width="1"/>
<text x="87" y="150.6" class="ax" text-anchor="end">10s</text>
<line x1="96" y1="92.7" x2="692" y2="92.7" stroke="#E7E4DC" stroke-width="1"/>
<text x="87" y="96.2" class="ax" text-anchor="end">100s</text>
<line x1="96" y1="392" x2="692" y2="392" stroke="#9C978C" stroke-width="1.2"/>
<line x1="96" y1="60" x2="96" y2="392" stroke="#9C978C" stroke-width="1.2"/>
<text x="394" y="426" class="lbl" text-anchor="middle">number of candidate sequences (n)</text>
<line x1="527.1" y1="60" x2="527.1" y2="392" stroke="#B0432E" stroke-width="1" stroke-dasharray="4 3" opacity="0.55"/>
<text x="533.1" y="75" class="lbl" fill="#B0432E">Macaulay2 runs out of memory &#8594;</text>
<circle cx="141.1" cy="257.7" r="4.2" fill="#B0432E" opacity="0.85"/>
<circle cx="327.6" cy="187.2" r="4.2" fill="#B0432E" opacity="0.85"/>
<circle cx="443.1" cy="140.8" r="4.2" fill="#B0432E" opacity="0.85"/>
<circle cx="150.9" cy="261.1" r="4.2" fill="#B0432E" opacity="0.85"/>
<circle cx="381.5" cy="162.0" r="4.2" fill="#B0432E" opacity="0.85"/>
<circle cx="121.1" cy="271.1" r="4.2" fill="#B0432E" opacity="0.85"/>
<circle cx="351.7" cy="169.9" r="4.2" fill="#B0432E" opacity="0.85"/>
<circle cx="523.7" cy="92.5" r="4.2" fill="#B0432E" opacity="0.85"/>
<circle cx="521.7" cy="94.4" r="4.2" fill="#B0432E" opacity="0.85"/>
<circle cx="129.5" cy="246.2" r="4.2" fill="#B0432E" opacity="0.85"/>
<circle cx="334.4" cy="171.1" r="4.2" fill="#B0432E" opacity="0.85"/>
<circle cx="507.3" cy="94.4" r="4.2" fill="#B0432E" opacity="0.85"/>
<circle cx="121.1" cy="260.0" r="4.2" fill="#B0432E" opacity="0.85"/>
<circle cx="323.6" cy="171.3" r="4.2" fill="#B0432E" opacity="0.85"/>
<circle cx="454.5" cy="113.1" r="4.2" fill="#B0432E" opacity="0.85"/>
<circle cx="522.0" cy="82.1" r="4.2" fill="#B0432E" opacity="0.85"/>
<circle cx="521.1" cy="83.7" r="4.2" fill="#B0432E" opacity="0.85"/>
<circle cx="141.1" cy="355.2" r="4.2" fill="#3C5A49" opacity="0.9"/>
<circle cx="327.6" cy="296.2" r="4.2" fill="#3C5A49" opacity="0.9"/>
<circle cx="443.1" cy="251.3" r="4.2" fill="#3C5A49" opacity="0.9"/>
<circle cx="564.5" cy="198.1" r="4.2" fill="#3C5A49" opacity="0.9"/>
<circle cx="678.9" cy="144.9" r="4.2" fill="#3C5A49" opacity="0.9"/>
<circle cx="150.9" cy="376.9" r="4.2" fill="#3C5A49" opacity="0.9"/>
<circle cx="381.5" cy="274.3" r="4.2" fill="#3C5A49" opacity="0.9"/>
<circle cx="537.8" cy="204.2" r="4.2" fill="#3C5A49" opacity="0.9"/>
<circle cx="677.7" cy="141.2" r="4.2" fill="#3C5A49" opacity="0.9"/>
<circle cx="121.1" cy="386.4" r="4.2" fill="#3C5A49" opacity="0.9"/>
<circle cx="351.7" cy="282.0" r="4.2" fill="#3C5A49" opacity="0.9"/>
<circle cx="523.7" cy="204.6" r="4.2" fill="#3C5A49" opacity="0.9"/>
<circle cx="649.4" cy="144.4" r="4.2" fill="#3C5A49" opacity="0.9"/>
<circle cx="521.7" cy="195.9" r="4.2" fill="#3C5A49" opacity="0.9"/>
<circle cx="129.5" cy="360.5" r="4.2" fill="#3C5A49" opacity="0.9"/>
<circle cx="334.4" cy="273.0" r="4.2" fill="#3C5A49" opacity="0.9"/>
<circle cx="507.3" cy="206.6" r="4.2" fill="#3C5A49" opacity="0.9"/>
<circle cx="664.4" cy="130.0" r="4.2" fill="#3C5A49" opacity="0.9"/>
<circle cx="121.1" cy="358.6" r="4.2" fill="#3C5A49" opacity="0.9"/>
<circle cx="323.6" cy="271.3" r="4.2" fill="#3C5A49" opacity="0.9"/>
<circle cx="454.5" cy="218.8" r="4.2" fill="#3C5A49" opacity="0.9"/>
<circle cx="522.0" cy="187.8" r="4.2" fill="#3C5A49" opacity="0.9"/>
<circle cx="579.3" cy="160.9" r="4.2" fill="#3C5A49" opacity="0.9"/>
<circle cx="521.1" cy="191.0" r="4.2" fill="#3C5A49" opacity="0.9"/>
<circle cx="110" cy="82" r="4.2" fill="#3C5A49"/><text x="121" y="86" class="ax">C++ engine</text>
<circle cx="110" cy="101" r="4.2" fill="#B0432E"/><text x="121" y="105" class="ax">Macaulay2 (built-in)</text>
</svg>