<?xml version="1.0" encoding="utf-8" standalone="no"?>
<!DOCTYPE svg PUBLIC "-//W3C//DTD SVG 1.1//EN"
  "http://www.w3.org/Graphics/SVG/1.1/DTD/svg11.dtd">
<svg xmlns:xlink="http://www.w3.org/1999/xlink" width="705.6pt" height="417.6pt" viewBox="0 0 705.6 417.6" xmlns="http://www.w3.org/2000/svg" version="1.1">
 <metadata>
  <rdf:RDF xmlns:dc="http://purl.org/dc/elements/1.1/" xmlns:cc="http://creativecommons.org/ns#" xmlns:rdf="http://www.w3.org/1999/02/22-rdf-syntax-ns#">
   <cc:Work>
    <dc:type rdf:resource="http://purl.org/dc/dcmitype/StillImage"/>
    <dc:date>2026-07-15T11:12:24.062779</dc:date>
    <dc:format>image/svg+xml</dc:format>
    <dc:creator>
     <cc:Agent>
      <dc:title>Matplotlib v3.10.9, https://matplotlib.org/</dc:title>
     </cc:Agent>
    </dc:creator>
   </cc:Work>
  </rdf:RDF>
 </metadata>
 <defs>
  <style type="text/css">*{stroke-linejoin: round; stroke-linecap: butt}</style>
 </defs>
 <g id="figure_1">
  <g id="patch_1">
   <path d="M 0 417.6 
L 705.6 417.6 
L 705.6 0 
L 0 0 
z
" style="fill: #fbfaf8"/>
  </g>
  <g id="axes_1">
   <g id="patch_2">
    <path d="M 95.6 374.2 
L 694.8 374.2 
L 694.8 74.08 
L 95.6 74.08 
z
" style="fill: #fbfaf8"/>
   </g>
   <g id="matplotlib.axis_1">
    <g id="xtick_1">
     <g id="line2d_1">
      <path d="M 95.6 374.2 
L 95.6 74.08 
" clip-path="url(#pc4bbd7ec0d)" style="fill: none; stroke: #e7e4dc; stroke-width: 0.8; stroke-linecap: square"/>
     </g>
     <g id="line2d_2">
      <defs>
       <path id="ma1574431c4" d="M 0 0 
L 0 3.5 
" style="stroke: #6c685f; stroke-width: 0.8"/>
      </defs>
      <g>
       <use xlink:href="#ma1574431c4" x="95.6" y="374.2" style="fill: #6c685f; stroke: #6c685f; stroke-width: 0.8"/>
      </g>
     </g>
     <g id="text_1">
      <text style="font-size: 10.5px; font-family: 'DejaVu Sans Mono'; text-anchor: middle; fill: #6c685f" x="95.6" y="389.234141" transform="rotate(-0 95.6 389.234141)">0</text>
     </g>
    </g>
    <g id="xtick_2">
     <g id="line2d_3">
      <path d="M 175.493333 374.2 
L 175.493333 74.08 
" clip-path="url(#pc4bbd7ec0d)" style="fill: none; stroke: #e7e4dc; stroke-width: 0.8; stroke-linecap: square"/>
     </g>
     <g id="line2d_4">
      <g>
       <use xlink:href="#ma1574431c4" x="175.493333" y="374.2" style="fill: #6c685f; stroke: #6c685f; stroke-width: 0.8"/>
      </g>
     </g>
     <g id="text_2">
      <text style="font-size: 10.5px; font-family: 'DejaVu Sans Mono'; text-anchor: middle; fill: #6c685f" x="175.493333" y="389.234141" transform="rotate(-0 175.493333 389.234141)">1,000</text>
     </g>
    </g>
    <g id="xtick_3">
     <g id="line2d_5">
      <path d="M 255.386667 374.2 
L 255.386667 74.08 
" clip-path="url(#pc4bbd7ec0d)" style="fill: none; stroke: #e7e4dc; stroke-width: 0.8; stroke-linecap: square"/>
     </g>
     <g id="line2d_6">
      <g>
       <use xlink:href="#ma1574431c4" x="255.386667" y="374.2" style="fill: #6c685f; stroke: #6c685f; stroke-width: 0.8"/>
      </g>
     </g>
     <g id="text_3">
      <text style="font-size: 10.5px; font-family: 'DejaVu Sans Mono'; text-anchor: middle; fill: #6c685f" x="255.386667" y="389.234141" transform="rotate(-0 255.386667 389.234141)">2,000</text>
     </g>
    </g>
    <g id="xtick_4">
     <g id="line2d_7">
      <path d="M 335.28 374.2 
L 335.28 74.08 
" clip-path="url(#pc4bbd7ec0d)" style="fill: none; stroke: #e7e4dc; stroke-width: 0.8; stroke-linecap: square"/>
     </g>
     <g id="line2d_8">
      <g>
       <use xlink:href="#ma1574431c4" x="335.28" y="374.2" style="fill: #6c685f; stroke: #6c685f; stroke-width: 0.8"/>
      </g>
     </g>
     <g id="text_4">
      <text style="font-size: 10.5px; font-family: 'DejaVu Sans Mono'; text-anchor: middle; fill: #6c685f" x="335.28" y="389.234141" transform="rotate(-0 335.28 389.234141)">3,000</text>
     </g>
    </g>
    <g id="xtick_5">
     <g id="line2d_9">
      <path d="M 415.173333 374.2 
L 415.173333 74.08 
" clip-path="url(#pc4bbd7ec0d)" style="fill: none; stroke: #e7e4dc; stroke-width: 0.8; stroke-linecap: square"/>
     </g>
     <g id="line2d_10">
      <g>
       <use xlink:href="#ma1574431c4" x="415.173333" y="374.2" style="fill: #6c685f; stroke: #6c685f; stroke-width: 0.8"/>
      </g>
     </g>
     <g id="text_5">
      <text style="font-size: 10.5px; font-family: 'DejaVu Sans Mono'; text-anchor: middle; fill: #6c685f" x="415.173333" y="389.234141" transform="rotate(-0 415.173333 389.234141)">4,000</text>
     </g>
    </g>
    <g id="xtick_6">
     <g id="line2d_11">
      <path d="M 495.066667 374.2 
L 495.066667 74.08 
" clip-path="url(#pc4bbd7ec0d)" style="fill: none; stroke: #e7e4dc; stroke-width: 0.8; stroke-linecap: square"/>
     </g>
     <g id="line2d_12">
      <g>
       <use xlink:href="#ma1574431c4" x="495.066667" y="374.2" style="fill: #6c685f; stroke: #6c685f; stroke-width: 0.8"/>
      </g>
     </g>
     <g id="text_6">
      <text style="font-size: 10.5px; font-family: 'DejaVu Sans Mono'; text-anchor: middle; fill: #6c685f" x="495.066667" y="389.234141" transform="rotate(-0 495.066667 389.234141)">5,000</text>
     </g>
    </g>
    <g id="xtick_7">
     <g id="line2d_13">
      <path d="M 574.96 374.2 
L 574.96 74.08 
" clip-path="url(#pc4bbd7ec0d)" style="fill: none; stroke: #e7e4dc; stroke-width: 0.8; stroke-linecap: square"/>
     </g>
     <g id="line2d_14">
      <g>
       <use xlink:href="#ma1574431c4" x="574.96" y="374.2" style="fill: #6c685f; stroke: #6c685f; stroke-width: 0.8"/>
      </g>
     </g>
     <g id="text_7">
      <text style="font-size: 10.5px; font-family: 'DejaVu Sans Mono'; text-anchor: middle; fill: #6c685f" x="574.96" y="389.234141" transform="rotate(-0 574.96 389.234141)">6,000</text>
     </g>
    </g>
    <g id="xtick_8">
     <g id="line2d_15">
      <path d="M 654.853333 374.2 
L 654.853333 74.08 
" clip-path="url(#pc4bbd7ec0d)" style="fill: none; stroke: #e7e4dc; stroke-width: 0.8; stroke-linecap: square"/>
     </g>
     <g id="line2d_16">
      <g>
       <use xlink:href="#ma1574431c4" x="654.853333" y="374.2" style="fill: #6c685f; stroke: #6c685f; stroke-width: 0.8"/>
      </g>
     </g>
     <g id="text_8">
      <text style="font-size: 10.5px; font-family: 'DejaVu Sans Mono'; text-anchor: middle; fill: #6c685f" x="654.853333" y="389.234141" transform="rotate(-0 654.853333 389.234141)">7,000</text>
     </g>
    </g>
    <g id="text_9">
     <text style="font-size: 11px; font-family: 'DejaVu Sans Mono'; text-anchor: middle; fill: #6c685f" x="395.2" y="403.776094" transform="rotate(-0 395.2 403.776094)">max degree d</text>
    </g>
   </g>
   <g id="matplotlib.axis_2">
    <g id="ytick_1">
     <g id="line2d_17">
      <path d="M 95.6 374.2 
L 694.8 374.2 
" clip-path="url(#pc4bbd7ec0d)" style="fill: none; stroke: #e7e4dc; stroke-width: 0.8; stroke-linecap: square"/>
     </g>
     <g id="line2d_18">
      <defs>
       <path id="m5914084331" d="M 0 0 
L -3.5 0 
" style="stroke: #6c685f; stroke-width: 0.8"/>
      </defs>
      <g>
       <use xlink:href="#m5914084331" x="95.6" y="374.2" style="fill: #6c685f; stroke: #6c685f; stroke-width: 0.8"/>
      </g>
     </g>
     <g id="text_10">
      <text style="font-size: 10.5px; font-family: 'DejaVu Sans Mono'; text-anchor: end; fill: #6c685f" x="88.6" y="378.21707" transform="rotate(-0 88.6 378.21707)">0</text>
     </g>
    </g>
    <g id="ytick_2">
     <g id="line2d_19">
      <path d="M 95.6 277.387097 
L 694.8 277.387097 
" clip-path="url(#pc4bbd7ec0d)" style="fill: none; stroke: #e7e4dc; stroke-width: 0.8; stroke-linecap: square"/>
     </g>
     <g id="line2d_20">
      <g>
       <use xlink:href="#m5914084331" x="95.6" y="277.387097" style="fill: #6c685f; stroke: #6c685f; stroke-width: 0.8"/>
      </g>
     </g>
     <g id="text_11">
      <text style="font-size: 10.5px; font-family: 'DejaVu Sans Mono'; text-anchor: end; fill: #6c685f" x="88.6" y="281.404167" transform="rotate(-0 88.6 281.404167)">20 billion</text>
     </g>
    </g>
    <g id="ytick_3">
     <g id="line2d_21">
      <path d="M 95.6 180.574194 
L 694.8 180.574194 
" clip-path="url(#pc4bbd7ec0d)" style="fill: none; stroke: #e7e4dc; stroke-width: 0.8; stroke-linecap: square"/>
     </g>
     <g id="line2d_22">
      <g>
       <use xlink:href="#m5914084331" x="95.6" y="180.574194" style="fill: #6c685f; stroke: #6c685f; stroke-width: 0.8"/>
      </g>
     </g>
     <g id="text_12">
      <text style="font-size: 10.5px; font-family: 'DejaVu Sans Mono'; text-anchor: end; fill: #6c685f" x="88.6" y="184.591264" transform="rotate(-0 88.6 184.591264)">40 billion</text>
     </g>
    </g>
    <g id="ytick_4">
     <g id="line2d_23">
      <path d="M 95.6 83.76129 
L 694.8 83.76129 
" clip-path="url(#pc4bbd7ec0d)" style="fill: none; stroke: #e7e4dc; stroke-width: 0.8; stroke-linecap: square"/>
     </g>
     <g id="line2d_24">
      <g>
       <use xlink:href="#m5914084331" x="95.6" y="83.76129" style="fill: #6c685f; stroke: #6c685f; stroke-width: 0.8"/>
      </g>
     </g>
     <g id="text_13">
      <text style="font-size: 10.5px; font-family: 'DejaVu Sans Mono'; text-anchor: end; fill: #6c685f" x="88.6" y="87.778361" transform="rotate(-0 88.6 87.778361)">60 billion</text>
     </g>
    </g>
    <g id="text_14">
     <text style="font-size: 11px; font-family: 'DejaVu Sans Mono'; text-anchor: middle; fill: #6c685f" x="19.023438" y="224.14" transform="rotate(-90 19.023438 224.14)">degree sequences to test</text>
    </g>
   </g>
   <g id="patch_3">
    <path d="M 95.6 374.2 
L 95.6 74.08 
" style="fill: none; stroke: #e7e4dc; stroke-width: 0.8; stroke-linejoin: miter; stroke-linecap: square"/>
   </g>
   <g id="patch_4">
    <path d="M 694.8 374.2 
L 694.8 74.08 
" style="fill: none; stroke: #e7e4dc; stroke-width: 0.8; stroke-linejoin: miter; stroke-linecap: square"/>
   </g>
   <g id="patch_5">
    <path d="M 95.6 374.2 
L 694.8 374.2 
" style="fill: none; stroke: #e7e4dc; stroke-width: 0.8; stroke-linejoin: miter; stroke-linecap: square"/>
   </g>
   <g id="patch_6">
    <path d="M 95.6 74.08 
L 694.8 74.08 
" style="fill: none; stroke: #e7e4dc; stroke-width: 0.8; stroke-linejoin: miter; stroke-linecap: square"/>
   </g>
   <g id="line2d_25">
    <path d="M 95.83968 374.2 
L 136.904853 374.089159 
L 158.87552 373.800717 
L 177.250987 373.341325 
L 193.62912 372.713301 
L 208.72896 371.91429 
L 222.87008 370.944775 
L 236.212267 369.809142 
L 248.915307 368.50757 
L 261.138987 367.033746 
L 272.9632 365.38497 
L 284.387947 363.568572 
L 295.49312 361.579022 
L 306.27872 359.422936 
L 316.82464 357.089993 
L 327.13088 354.584588 
L 337.277333 351.890116 
L 347.264 349.007577 
L 357.09088 345.938719 
L 366.757973 342.685999 
L 376.26528 339.252551 
L 385.6128 335.642145 
L 394.880427 331.825222 
L 404.06816 327.800438 
L 413.176 323.566779 
L 422.203947 319.123557 
L 431.152 314.470401 
L 440.02016 309.607248 
L 448.808427 304.534336 
L 457.5168 299.252191 
L 466.225173 293.709577 
L 474.853653 287.954751 
L 483.482133 281.93196 
L 492.03072 275.694686 
L 500.579307 269.18247 
L 509.127893 262.389383 
L 517.67648 255.309495 
L 526.145173 248.007151 
L 534.613867 240.411757 
L 543.08256 232.517548 
L 551.551253 224.318757 
L 560.019947 215.80962 
L 568.48864 206.984371 
L 576.957333 197.837245 
L 585.426027 188.362476 
L 593.89472 178.5543 
L 602.363413 168.406952 
L 610.912 157.81402 
L 619.460587 146.863682 
L 628.009173 135.550006 
L 636.55776 123.867063 
L 645.106347 111.808923 
L 653.734827 99.251585 
L 662.363307 86.299865 
L 670.991787 72.947665 
L 677.862613 62.024872 
L 677.862613 62.024872 
" clip-path="url(#pc4bbd7ec0d)" style="fill: none; stroke: #0072b2; stroke-width: 2.2; stroke-linecap: round"/>
   </g>
   <g id="line2d_26">
    <path d="M 95.919573 374.2 
L 107.903573 374.090925 
L 112.3776 373.818854 
L 115.813013 373.393087 
L 118.689173 372.82206 
L 121.325653 372.071892 
L 123.722453 371.156066 
L 125.959467 370.060499 
L 128.036693 368.800426 
L 130.034027 367.336608 
L 132.03136 365.593585 
L 133.9488 363.626591 
L 135.86624 361.340266 
L 137.78368 358.701788 
L 139.70112 355.676727 
L 141.61856 352.229049 
L 143.536 348.321113 
L 145.45344 343.913672 
L 147.450773 338.747366 
L 149.448107 332.946694 
L 151.44544 326.461736 
L 153.522667 318.935776 
L 155.599893 310.553193 
L 157.67712 301.251325 
L 159.83424 290.549126 
L 161.99136 278.710418 
L 164.228373 265.149655 
L 166.465387 250.193376 
L 168.782293 233.132962 
L 171.0992 214.369961 
L 173.416107 193.794697 
L 175.812907 170.482447 
L 178.209707 144.980675 
L 180.6864 116.187336 
L 183.163093 84.762923 
L 184.840853 61.901835 
L 184.840853 61.901835 
" clip-path="url(#pc4bbd7ec0d)" style="fill: none; stroke: #e69f00; stroke-width: 2.2; stroke-linecap: round"/>
   </g>
   <g id="line2d_27">
    <path d="M 95.999467 374.2 
L 101.911573 374.090904 
L 103.589333 373.83556 
L 104.867627 373.423611 
L 105.90624 372.867688 
L 106.86496 372.107413 
L 107.743787 371.13746 
L 108.622613 369.837177 
L 109.50144 368.128572 
L 110.380267 365.922244 
L 111.259093 363.116601 
L 112.217813 359.237405 
L 113.176533 354.340936 
L 114.135253 348.239077 
L 115.093973 340.721827 
L 116.132587 330.70999 
L 117.1712 318.434482 
L 118.209813 303.531463 
L 119.32832 284.082916 
L 120.446827 260.570353 
L 121.565333 232.387733 
L 122.763733 196.25471 
L 123.962133 153.105417 
L 125.160533 101.96431 
L 126.03936 58.770045 
L 126.03936 58.770045 
" clip-path="url(#pc4bbd7ec0d)" style="fill: none; stroke: #009e73; stroke-width: 2.2; stroke-linecap: round"/>
   </g>
   <g id="line2d_28">
    <path d="M 96.07936 374.2 
L 99.754453 374.101452 
L 100.63328 373.8711 
L 101.272427 373.506728 
L 101.83168 372.956673 
L 102.390933 372.082927 
L 102.950187 370.748289 
L 103.50944 368.775915 
L 104.068693 365.94232 
L 104.627947 361.969812 
L 105.267093 355.595835 
L 105.90624 346.665551 
L 106.545387 334.41729 
L 107.184533 317.930536 
L 107.903573 292.939224 
L 108.622613 259.312325 
L 109.341653 214.811608 
L 110.060693 156.789358 
L 110.859627 72.66903 
L 111.019413 52.955344 
L 111.019413 52.955344 
" clip-path="url(#pc4bbd7ec0d)" style="fill: none; stroke: #d55e00; stroke-width: 2.2; stroke-linecap: round"/>
   </g>
   <g id="line2d_29">
    <path d="M 96.159253 374.2 
L 96.239147 374.2 
L 96.31904 374.2 
L 96.398933 374.199999 
L 96.478827 374.199998 
L 96.55872 374.199996 
L 96.638613 374.199992 
L 96.718507 374.199983 
L 96.7984 374.199969 
L 96.878293 374.199945 
L 96.958187 374.199906 
L 97.03808 374.199846 
L 97.117973 374.199756 
L 97.197867 374.199625 
L 97.27776 374.199437 
L 97.357653 374.199174 
L 97.437547 374.198813 
L 97.51744 374.198325 
L 97.597333 374.197673 
L 97.677227 374.196816 
L 97.75712 374.195701 
L 97.837013 374.194268 
L 97.916907 374.192445 
L 97.9968 374.190145 
L 98.076693 374.187271 
L 98.156587 374.183707 
L 98.23648 374.179321 
L 98.316373 374.173959 
L 98.396267 374.167449 
L 98.47616 374.159592 
L 98.556053 374.150163 
L 98.635947 374.13891 
L 98.71584 374.125546 
L 98.795733 374.109753 
L 98.875627 374.091173 
L 98.95552 374.069407 
L 99.035413 374.044014 
L 99.115307 374.014504 
L 99.1952 373.980333 
L 99.275093 373.940906 
L 99.354987 373.895565 
L 99.43488 373.843588 
L 99.514773 373.784186 
L 99.594667 373.716495 
L 99.67456 373.639574 
L 99.754453 373.552396 
L 99.834347 373.453848 
L 99.91424 373.342719 
L 99.994133 373.217699 
L 100.074027 373.07737 
L 100.15392 372.920202 
L 100.233813 372.744543 
L 100.313707 372.548617 
L 100.3936 372.330509 
L 100.473493 372.088168 
L 100.553387 371.819389 
L 100.63328 371.521813 
L 100.713173 371.192913 
L 100.793067 370.829989 
L 100.87296 370.430157 
L 100.952853 369.990342 
L 101.032747 369.507266 
L 101.11264 368.977441 
L 101.192533 368.397157 
L 101.272427 367.762471 
L 101.35232 367.069199 
L 101.432213 366.312902 
L 101.512107 365.488876 
L 101.592 364.592143 
L 101.671893 363.617433 
L 101.751787 362.559176 
L 101.83168 361.411489 
L 101.911573 360.168162 
L 101.991467 358.822643 
L 102.07136 357.368028 
L 102.151253 355.797044 
L 102.231147 354.102035 
L 102.31104 352.274947 
L 102.390933 350.307315 
L 102.470827 348.190241 
L 102.55072 345.914387 
L 102.630613 343.469952 
L 102.710507 340.846655 
L 102.7904 338.033722 
L 102.870293 335.019866 
L 102.950187 331.793266 
L 103.03008 328.341555 
L 103.109973 324.651795 
L 103.189867 320.710461 
L 103.26976 316.503419 
L 103.349653 312.015907 
L 103.429547 307.232515 
L 103.50944 302.137163 
L 103.589333 296.713078 
L 103.669227 290.942776 
L 103.74912 284.808033 
L 103.829013 278.289868 
L 103.908907 271.368519 
L 103.9888 264.023413 
L 104.068693 256.233149 
L 104.148587 247.97547 
L 104.22848 239.227235 
L 104.308373 229.964398 
L 104.388267 220.161979 
L 104.46816 209.794035 
L 104.548053 198.833637 
L 104.627947 187.25284 
L 104.70784 175.022651 
L 104.787733 162.113009 
L 104.867627 148.492743 
L 104.94752 134.129554 
L 105.027413 118.989976 
L 105.107307 103.03935 
L 105.1872 86.241787 
L 105.267093 68.560143 
L 105.346987 49.955977 
" clip-path="url(#pc4bbd7ec0d)" style="fill: none; stroke: #cc79a7; stroke-width: 2.2; stroke-linecap: round"/>
   </g>
   <g id="text_15">
    <text style="font-weight: 700; font-size: 11px; font-family: 'DejaVu Sans Mono'; text-anchor: start; fill: #0072b2" x="636.896" y="172.361065" transform="rotate(-0 636.896 172.361065)">c = 3</text>
   </g>
   <g id="text_16">
    <text style="font-weight: 700; font-size: 11px; font-family: 'DejaVu Sans Mono'; text-anchor: start; fill: #e69f00" x="189.962027" y="90.08" transform="rotate(-0 189.962027 90.08)">c = 4</text>
   </g>
   <g id="text_17">
    <text style="font-weight: 700; font-size: 11px; font-family: 'DejaVu Sans Mono'; text-anchor: start; fill: #009e73" x="131.88224" y="160.370968" transform="rotate(-0 131.88224 160.370968)">c = 5</text>
   </g>
   <g id="text_18">
    <text style="font-weight: 700; font-size: 11px; font-family: 'DejaVu Sans Mono'; text-anchor: start; fill: #d55e00" x="117.181867" y="232.980645" transform="rotate(-0 117.181867 232.980645)">c = 6</text>
   </g>
   <g id="text_19">
    <text style="font-weight: 700; font-size: 11px; font-family: 'DejaVu Sans Mono'; text-anchor: start; fill: #cc79a7" x="111.589333" y="305.590323" transform="rotate(-0 111.589333 305.590323)">c = 7</text>
   </g>
   <g id="text_20">
    <text style="font-size: 10.5px; font-family: 'DejaVu Sans Mono'; fill: #b0432e" transform="translate(418.842667 99.546998)">the 2024 campaign:</text>
    <text style="font-size: 10.5px; font-family: 'DejaVu Sans Mono'; fill: #b0432e" transform="translate(418.842667 111.443826)">59,626,630,700 sequences</text>
    <text style="font-size: 10.5px; font-family: 'DejaVu Sans Mono'; fill: #b0432e" transform="translate(418.842667 123.289795)">(c = 3, degree 7,100)</text>
   </g>
   <g id="text_21">
    <text style="font-size: 10px; font-family: 'DejaVu Sans Mono'; text-anchor: start; fill: #6c685f" x="95.6" y="64.08" transform="rotate(-0 95.6 64.08)">f(c, d) = binomial(d, c) candidates at codimension c · linear axes, no log scale</text>
   </g>
   <g id="patch_7">
    <path d="M 95.6 374.2 
L 147.530667 374.2 
L 147.530667 374.074143 
L 95.6 374.074143 
L 95.6 374.2 
z
" style="fill: none; opacity: 0.9; stroke: #6c685f; stroke-width: 1.2; stroke-linejoin: miter"/>
   </g>
   <g id="axes_2">
    <g id="patch_8">
     <path d="M 251.392 248.1496 
L 419.168 248.1496 
L 419.168 146.1088 
L 251.392 146.1088 
z
" style="fill: #f5f3ee"/>
    </g>
    <g id="matplotlib.axis_3">
     <g id="xtick_9">
      <g id="line2d_30">
       <defs>
        <path id="mf9261a08ce" d="M 0 0 
L 0 3 
" style="stroke: #6c685f; stroke-width: 0.8"/>
       </defs>
       <g>
        <use xlink:href="#mf9261a08ce" x="251.392" y="248.1496" style="fill: #6c685f; stroke: #6c685f; stroke-width: 0.8"/>
       </g>
      </g>
      <g id="text_22">
       <text style="font-size: 8.5px; font-family: 'DejaVu Sans Mono'; text-anchor: middle; fill: #6c685f" x="251.392" y="261.153428" transform="rotate(-0 251.392 261.153428)">0</text>
      </g>
     </g>
     <g id="xtick_10">
      <g id="line2d_31">
       <g>
        <use xlink:href="#mf9261a08ce" x="380.450462" y="248.1496" style="fill: #6c685f; stroke: #6c685f; stroke-width: 0.8"/>
       </g>
      </g>
      <g id="text_23">
       <text style="font-size: 8.5px; font-family: 'DejaVu Sans Mono'; text-anchor: middle; fill: #6c685f" x="380.450462" y="261.153428" transform="rotate(-0 380.450462 261.153428)">500</text>
      </g>
     </g>
    </g>
    <g id="matplotlib.axis_4"/>
    <g id="line2d_32">
     <path d="M 252.166351 248.149596 
L 265.846548 248.040809 
L 273.331938 247.761963 
L 279.784862 247.302583 
L 285.463434 246.679192 
L 290.625772 245.897638 
L 295.529994 244.93608 
L 300.176098 243.803392 
L 304.564086 242.514515 
L 308.952074 240.993122 
L 313.081945 239.331552 
L 317.211815 237.430862 
L 321.341686 235.274975 
L 325.21344 233.007766 
L 329.085194 230.488889 
L 332.956948 227.705098 
L 336.828702 224.643148 
L 340.700455 221.289793 
L 344.572209 217.631787 
L 348.443963 213.655885 
L 352.315717 209.348841 
L 356.187471 204.697409 
L 360.059225 199.688344 
L 363.930978 194.3084 
L 367.802732 188.544331 
L 371.674486 182.382892 
L 375.54624 175.810836 
L 379.417994 168.814919 
L 383.289748 161.381894 
L 387.419618 152.956621 
L 391.549489 144.00287 
L 395.67936 134.504567 
L 399.809231 124.445636 
L 403.939102 113.810002 
L 408.068972 102.58159 
L 412.45696 89.983911 
L 416.844948 76.679612 
L 419.168 69.343506 
L 419.168 69.343506 
" clip-path="url(#p643ef8cdb3)" style="fill: none; stroke: #0072b2; stroke-width: 2; stroke-linecap: square"/>
    </g>
    <g id="patch_9">
     <path d="M 251.392 248.1496 
L 251.392 146.1088 
" style="fill: none; stroke: #6c685f; stroke-width: 0.8; stroke-linejoin: miter; stroke-linecap: square"/>
    </g>
    <g id="patch_10">
     <path d="M 419.168 248.1496 
L 419.168 146.1088 
" style="fill: none; stroke: #6c685f; stroke-width: 0.8; stroke-linejoin: miter; stroke-linecap: square"/>
    </g>
    <g id="patch_11">
     <path d="M 251.392 248.1496 
L 419.168 248.1496 
" style="fill: none; stroke: #6c685f; stroke-width: 0.8; stroke-linejoin: miter; stroke-linecap: square"/>
    </g>
    <g id="patch_12">
     <path d="M 251.392 146.1088 
L 419.168 146.1088 
" style="fill: none; stroke: #6c685f; stroke-width: 0.8; stroke-linejoin: miter; stroke-linecap: square"/>
    </g>
    <g id="text_24">
     <text style="font-size: 9px; font-family: 'DejaVu Sans Mono'; fill: #6c685f" transform="translate(257.844923 158.882175)">Macaulay2's memory wall,</text>
     <text style="font-size: 9px; font-family: 'DejaVu Sans Mono'; fill: #6c685f" transform="translate(257.844923 169.017582)">matched runs: 20,708,500</text>
     <text style="font-size: 9px; font-family: 'DejaVu Sans Mono'; fill: #6c685f" transform="translate(257.844923 179.152988)">(c = 3, degree 500)</text>
    </g>
    <g id="text_25">
     <text style="font-size: 9px; font-family: 'DejaVu Sans Mono'; text-anchor: middle; fill: #6c685f" x="335.28" y="142.1088" transform="rotate(-0 335.28 142.1088)">zoom on the sliver at the origin: 0 to 26 million</text>
    </g>
    <g id="line2d_33">
     <defs>
      <path id="mfa02921053" d="M 0 4 
C 1.060812 4 2.078319 3.578535 2.828427 2.828427 
C 3.578535 2.078319 4 1.060812 4 0 
C 4 -1.060812 3.578535 -2.078319 2.828427 -2.828427 
C 2.078319 -3.578535 1.060812 -4 0 -4 
C -1.060812 -4 -2.078319 -3.578535 -2.828427 -2.828427 
C -3.578535 -2.078319 -4 -1.060812 -4 0 
C -4 1.060812 -3.578535 2.078319 -2.828427 2.828427 
C -2.078319 3.578535 -1.060812 4 0 4 
z
" style="stroke: #6c685f; stroke-width: 2"/>
     </defs>
     <g clip-path="url(#p643ef8cdb3)">
      <use xlink:href="#mfa02921053" x="380.450462" y="166.876065" style="fill: #fbfaf8; stroke: #6c685f; stroke-width: 2"/>
     </g>
    </g>
   </g>
   <g id="line2d_34">
    <defs>
     <path id="m974eff3bdd" d="M 0 5 
C 1.326016 5 2.597899 4.473168 3.535534 3.535534 
C 4.473168 2.597899 5 1.326016 5 0 
C 5 -1.326016 4.473168 -2.597899 3.535534 -3.535534 
C 2.597899 -4.473168 1.326016 -5 0 -5 
C -1.326016 -5 -2.597899 -4.473168 -3.535534 -3.535534 
C -4.473168 -2.597899 -5 -1.326016 -5 0 
C -5 1.326016 -4.473168 2.597899 -3.535534 3.535534 
C -2.597899 4.473168 -1.326016 5 0 5 
z
" style="stroke: #b0432e; stroke-width: 2.4"/>
    </defs>
    <g clip-path="url(#pc4bbd7ec0d)">
     <use xlink:href="#m974eff3bdd" x="662.842667" y="85.568639" style="fill-opacity: 0; stroke: #b0432e; stroke-width: 2.4"/>
    </g>
   </g>
   <g id="line2d_35">
    <defs>
     <path id="m767759baf5" d="M 0 2 
C 0.530406 2 1.03916 1.789267 1.414214 1.414214 
C 1.789267 1.03916 2 0.530406 2 0 
C 2 -0.530406 1.789267 -1.03916 1.414214 -1.414214 
C 1.03916 -1.789267 0.530406 -2 0 -2 
C -0.530406 -2 -1.03916 -1.789267 -1.414214 -1.414214 
C -1.789267 -1.03916 -2 -0.530406 -2 0 
C -2 0.530406 -1.789267 1.03916 -1.414214 1.414214 
C -1.03916 1.789267 -0.530406 2 0 2 
z
" style="stroke: #b0432e"/>
    </defs>
    <g clip-path="url(#pc4bbd7ec0d)">
     <use xlink:href="#m767759baf5" x="662.842667" y="85.568639" style="fill: #b0432e; stroke: #b0432e"/>
    </g>
   </g>
  </g>
  <g id="text_26">
   <text style="font-weight: 700; font-size: 13.5px; font-family: 'DejaVu Sans Mono'; text-anchor: start; fill: #1b1b17" x="45.864" y="22.785891" transform="rotate(-0 45.864 22.785891)">Search space: degree sequences vs. max degree</text>
  </g>
 </g>
 <defs>
  <clipPath id="pc4bbd7ec0d">
   <rect x="95.6" y="74.08" width="599.2" height="300.12"/>
  </clipPath>
  <clipPath id="p643ef8cdb3">
   <rect x="251.392" y="146.1088" width="167.776" height="102.0408"/>
  </clipPath>
 </defs>
</svg>
