<svg viewBox="0 0 980 568" xmlns="http://www.w3.org/2000/svg" font-family="ui-monospace,Menlo,Consolas,monospace">
<rect x="0" y="0" width="980" height="568" fill="#FBFAF8"/>
<text x="34" y="34" fill="#1B1B17" font-size="17" font-weight="700">Peak memory vs. problem size</text>
<text x="34" y="53" fill="#6C685F" font-size="11.5">codimension 3&#8211;7 &#183; log&#8211;log &#183; peak resident set (/usr/bin/time) &#183; C++ (solid) vs. Macaulay2 (dashed)</text>
<line x1="99.1" y1="74" x2="99.1" y2="476" stroke="#F1EFEA" stroke-width="1"/>
<line x1="107.2" y1="74" x2="107.2" y2="476" stroke="#F1EFEA" stroke-width="1"/>
<line x1="114.4" y1="74" x2="114.4" y2="476" stroke="#F1EFEA" stroke-width="1"/>
<line x1="162.9" y1="74" x2="162.9" y2="476" stroke="#F1EFEA" stroke-width="1"/>
<line x1="187.5" y1="74" x2="187.5" y2="476" stroke="#F1EFEA" stroke-width="1"/>
<line x1="205.0" y1="74" x2="205.0" y2="476" stroke="#F1EFEA" stroke-width="1"/>
<line x1="218.6" y1="74" x2="218.6" y2="476" stroke="#F1EFEA" stroke-width="1"/>
<line x1="229.7" y1="74" x2="229.7" y2="476" stroke="#F1EFEA" stroke-width="1"/>
<line x1="239.0" y1="74" x2="239.0" y2="476" stroke="#F1EFEA" stroke-width="1"/>
<line x1="247.1" y1="74" x2="247.1" y2="476" stroke="#F1EFEA" stroke-width="1"/>
<line x1="254.3" y1="74" x2="254.3" y2="476" stroke="#F1EFEA" stroke-width="1"/>
<line x1="302.8" y1="74" x2="302.8" y2="476" stroke="#F1EFEA" stroke-width="1"/>
<line x1="327.5" y1="74" x2="327.5" y2="476" stroke="#F1EFEA" stroke-width="1"/>
<line x1="344.9" y1="74" x2="344.9" y2="476" stroke="#F1EFEA" stroke-width="1"/>
<line x1="358.5" y1="74" x2="358.5" y2="476" stroke="#F1EFEA" stroke-width="1"/>
<line x1="369.6" y1="74" x2="369.6" y2="476" stroke="#F1EFEA" stroke-width="1"/>
<line x1="378.9" y1="74" x2="378.9" y2="476" stroke="#F1EFEA" stroke-width="1"/>
<line x1="387.1" y1="74" x2="387.1" y2="476" stroke="#F1EFEA" stroke-width="1"/>
<line x1="394.2" y1="74" x2="394.2" y2="476" stroke="#F1EFEA" stroke-width="1"/>
<line x1="442.7" y1="74" x2="442.7" y2="476" stroke="#F1EFEA" stroke-width="1"/>
<line x1="467.4" y1="74" x2="467.4" y2="476" stroke="#F1EFEA" stroke-width="1"/>
<line x1="484.8" y1="74" x2="484.8" y2="476" stroke="#F1EFEA" stroke-width="1"/>
<line x1="498.4" y1="74" x2="498.4" y2="476" stroke="#F1EFEA" stroke-width="1"/>
<line x1="509.5" y1="74" x2="509.5" y2="476" stroke="#F1EFEA" stroke-width="1"/>
<line x1="518.9" y1="74" x2="518.9" y2="476" stroke="#F1EFEA" stroke-width="1"/>
<line x1="527.0" y1="74" x2="527.0" y2="476" stroke="#F1EFEA" stroke-width="1"/>
<line x1="534.1" y1="74" x2="534.1" y2="476" stroke="#F1EFEA" stroke-width="1"/>
<line x1="582.6" y1="74" x2="582.6" y2="476" stroke="#F1EFEA" stroke-width="1"/>
<line x1="607.3" y1="74" x2="607.3" y2="476" stroke="#F1EFEA" stroke-width="1"/>
<line x1="624.8" y1="74" x2="624.8" y2="476" stroke="#F1EFEA" stroke-width="1"/>
<line x1="638.3" y1="74" x2="638.3" y2="476" stroke="#F1EFEA" stroke-width="1"/>
<line x1="649.4" y1="74" x2="649.4" y2="476" stroke="#F1EFEA" stroke-width="1"/>
<line x1="658.8" y1="74" x2="658.8" y2="476" stroke="#F1EFEA" stroke-width="1"/>
<line x1="666.9" y1="74" x2="666.9" y2="476" stroke="#F1EFEA" stroke-width="1"/>
<line x1="674.0" y1="74" x2="674.0" y2="476" stroke="#F1EFEA" stroke-width="1"/>
<line x1="722.6" y1="74" x2="722.6" y2="476" stroke="#F1EFEA" stroke-width="1"/>
<line x1="120.8" y1="74" x2="120.8" y2="476" stroke="#E4E1D9" stroke-width="1"/>
<text x="120.8" y="494" fill="#6C685F" font-size="11.5" text-anchor="middle">1K</text>
<line x1="260.7" y1="74" x2="260.7" y2="476" stroke="#E4E1D9" stroke-width="1"/>
<text x="260.7" y="494" fill="#6C685F" font-size="11.5" text-anchor="middle">10K</text>
<line x1="400.6" y1="74" x2="400.6" y2="476" stroke="#E4E1D9" stroke-width="1"/>
<text x="400.6" y="494" fill="#6C685F" font-size="11.5" text-anchor="middle">100K</text>
<line x1="540.5" y1="74" x2="540.5" y2="476" stroke="#E4E1D9" stroke-width="1"/>
<text x="540.5" y="494" fill="#6C685F" font-size="11.5" text-anchor="middle">1M</text>
<line x1="680.4" y1="74" x2="680.4" y2="476" stroke="#E4E1D9" stroke-width="1"/>
<text x="680.4" y="494" fill="#6C685F" font-size="11.5" text-anchor="middle">10M</text>
<text x="416" y="516" fill="#6C685F" font-size="12.5" text-anchor="middle">number of candidate sequences  n = C(d, c)</text>
<line x1="90" y1="472.6" x2="742" y2="472.6" stroke="#F1EFEA" stroke-width="1"/>
<line x1="90" y1="456.7" x2="742" y2="456.7" stroke="#F1EFEA" stroke-width="1"/>
<line x1="90" y1="444.4" x2="742" y2="444.4" stroke="#F1EFEA" stroke-width="1"/>
<line x1="90" y1="434.4" x2="742" y2="434.4" stroke="#F1EFEA" stroke-width="1"/>
<line x1="90" y1="425.9" x2="742" y2="425.9" stroke="#F1EFEA" stroke-width="1"/>
<line x1="90" y1="418.5" x2="742" y2="418.5" stroke="#F1EFEA" stroke-width="1"/>
<line x1="90" y1="412.1" x2="742" y2="412.1" stroke="#F1EFEA" stroke-width="1"/>
<line x1="90" y1="368.1" x2="742" y2="368.1" stroke="#F1EFEA" stroke-width="1"/>
<line x1="90" y1="345.7" x2="742" y2="345.7" stroke="#F1EFEA" stroke-width="1"/>
<line x1="90" y1="329.9" x2="742" y2="329.9" stroke="#F1EFEA" stroke-width="1"/>
<line x1="90" y1="317.6" x2="742" y2="317.6" stroke="#F1EFEA" stroke-width="1"/>
<line x1="90" y1="307.6" x2="742" y2="307.6" stroke="#F1EFEA" stroke-width="1"/>
<line x1="90" y1="299.1" x2="742" y2="299.1" stroke="#F1EFEA" stroke-width="1"/>
<line x1="90" y1="291.7" x2="742" y2="291.7" stroke="#F1EFEA" stroke-width="1"/>
<line x1="90" y1="285.2" x2="742" y2="285.2" stroke="#F1EFEA" stroke-width="1"/>
<line x1="90" y1="241.3" x2="742" y2="241.3" stroke="#F1EFEA" stroke-width="1"/>
<line x1="90" y1="218.9" x2="742" y2="218.9" stroke="#F1EFEA" stroke-width="1"/>
<line x1="90" y1="203.1" x2="742" y2="203.1" stroke="#F1EFEA" stroke-width="1"/>
<line x1="90" y1="190.8" x2="742" y2="190.8" stroke="#F1EFEA" stroke-width="1"/>
<line x1="90" y1="180.8" x2="742" y2="180.8" stroke="#F1EFEA" stroke-width="1"/>
<line x1="90" y1="172.3" x2="742" y2="172.3" stroke="#F1EFEA" stroke-width="1"/>
<line x1="90" y1="164.9" x2="742" y2="164.9" stroke="#F1EFEA" stroke-width="1"/>
<line x1="90" y1="158.4" x2="742" y2="158.4" stroke="#F1EFEA" stroke-width="1"/>
<line x1="90" y1="114.4" x2="742" y2="114.4" stroke="#F1EFEA" stroke-width="1"/>
<line x1="90" y1="92.1" x2="742" y2="92.1" stroke="#F1EFEA" stroke-width="1"/>
<line x1="90" y1="76.3" x2="742" y2="76.3" stroke="#F1EFEA" stroke-width="1"/>
<line x1="90" y1="406.3" x2="742" y2="406.3" stroke="#E4E1D9" stroke-width="1"/>
<text x="81" y="410.3" fill="#6C685F" font-size="11.5" text-anchor="end">10 MB</text>
<line x1="90" y1="279.4" x2="742" y2="279.4" stroke="#E4E1D9" stroke-width="1"/>
<text x="81" y="283.4" fill="#6C685F" font-size="11.5" text-anchor="end">100 MB</text>
<line x1="90" y1="152.6" x2="742" y2="152.6" stroke="#E4E1D9" stroke-width="1"/>
<text x="81" y="156.6" fill="#6C685F" font-size="11.5" text-anchor="end">1 GB</text>
<text transform="translate(32,275) rotate(-90)" fill="#6C685F" font-size="12.5" text-anchor="middle">peak memory</text>
<rect x="556.5" y="74" width="185.5" height="402" fill="#B0432E" opacity="0.045"/>
<line x1="556.5" y1="74" x2="556.5" y2="476" stroke="#B0432E" stroke-width="1" stroke-dasharray="4 3" opacity="0.5"/>
<text x="563.5" y="90" fill="#B0432E" font-size="11.5">Macaulay2 runs out of memory &#8594;</text>
<rect x="90" y="74" width="652" height="402" fill="none" stroke="#9C978C" stroke-width="1.2"/>
<line x1="90" y1="279.4" x2="742" y2="279.4" stroke="#B0432E" stroke-width="1" stroke-dasharray="2 3" opacity="0.6"/>
<text x="98" y="273.4" fill="#B0432E" font-size="10.5">Macaulay2 interpreter + package floor &#8776; 100 MB</text>
<polyline points="128.7,280.2 335.4,280.8 463.4,255.9" fill="none" stroke="#0072B2" stroke-width="1.6" stroke-dasharray="5 3" opacity="0.85"/>
<polyline points="128.7,454.1 335.4,421.3 463.4,331.8 597.9,218.8 724.7,104.7" fill="none" stroke="#0072B2" stroke-width="2.1"/>
<circle cx="128.7" cy="280.2" r="4.3" fill="#FBFAF8" stroke="#0072B2" stroke-width="1.8"/>
<circle cx="128.7" cy="454.1" r="4.3" fill="#0072B2" stroke="#0072B2" stroke-width="0"/>
<circle cx="335.4" cy="280.8" r="4.3" fill="#FBFAF8" stroke="#0072B2" stroke-width="1.8"/>
<circle cx="335.4" cy="421.3" r="4.3" fill="#0072B2" stroke="#0072B2" stroke-width="0"/>
<circle cx="463.4" cy="255.9" r="4.3" fill="#FBFAF8" stroke="#0072B2" stroke-width="1.8"/>
<circle cx="463.4" cy="331.8" r="4.3" fill="#0072B2" stroke="#0072B2" stroke-width="0"/>
<circle cx="597.9" cy="218.8" r="4.3" fill="#0072B2" stroke="#0072B2" stroke-width="0"/>
<circle cx="724.7" cy="104.7" r="4.3" fill="#0072B2" stroke="#0072B2" stroke-width="0"/>
<polyline points="139.7,280.2 395.1,276.7" fill="none" stroke="#009E73" stroke-width="1.6" stroke-dasharray="5 3" opacity="0.85"/>
<polyline points="139.7,453.0 395.1,389.3 568.4,247.1 723.3,105.2" fill="none" stroke="#009E73" stroke-width="2.1"/>
<circle cx="139.7" cy="280.2" r="4.3" fill="#FBFAF8" stroke="#009E73" stroke-width="1.8"/>
<circle cx="139.7" cy="453.0" r="4.3" fill="#009E73" stroke="#009E73" stroke-width="0"/>
<circle cx="395.1" cy="276.7" r="4.3" fill="#FBFAF8" stroke="#009E73" stroke-width="1.8"/>
<circle cx="395.1" cy="389.3" r="4.3" fill="#009E73" stroke="#009E73" stroke-width="0"/>
<circle cx="568.4" cy="247.1" r="4.3" fill="#009E73" stroke="#009E73" stroke-width="0"/>
<circle cx="723.3" cy="105.2" r="4.3" fill="#009E73" stroke="#009E73" stroke-width="0"/>
<polyline points="106.6,280.2 362.2,280.8 552.7,194.1" fill="none" stroke="#E69F00" stroke-width="1.6" stroke-dasharray="5 3" opacity="0.85"/>
<polyline points="106.6,457.1 362.2,412.1 552.7,256.3 692.0,138.4" fill="none" stroke="#E69F00" stroke-width="2.1"/>
<circle cx="106.6" cy="280.2" r="4.3" fill="#FBFAF8" stroke="#E69F00" stroke-width="1.8"/>
<circle cx="106.6" cy="457.1" r="4.3" fill="#E69F00" stroke="#E69F00" stroke-width="0"/>
<circle cx="362.2" cy="280.8" r="4.3" fill="#FBFAF8" stroke="#E69F00" stroke-width="1.8"/>
<circle cx="362.2" cy="412.1" r="4.3" fill="#E69F00" stroke="#E69F00" stroke-width="0"/>
<rect x="546.3" y="191.0" width="8.4" height="8.4" fill="#FBFAF8" stroke="#E69F00" stroke-width="1.8"/>
<rect x="546.3" y="253.3" width="8.4" height="8.4" fill="#E69F00" stroke="#E69F00" stroke-width="0"/>
<circle cx="552.7" cy="194.1" r="4.3" fill="#FBFAF8" stroke="#E69F00" stroke-width="1.8"/>
<circle cx="552.7" cy="256.3" r="4.3" fill="#E69F00" stroke="#E69F00" stroke-width="0"/>
<circle cx="692.0" cy="138.4" r="4.3" fill="#E69F00" stroke="#E69F00" stroke-width="0"/>
<polyline points="116.0,280.4 343.0,281.0 534.5,204.5" fill="none" stroke="#D55E00" stroke-width="1.6" stroke-dasharray="5 3" opacity="0.85"/>
<polyline points="116.0,455.0 343.0,416.1 534.5,272.3 708.6,116.0" fill="none" stroke="#D55E00" stroke-width="2.1"/>
<circle cx="116.0" cy="280.4" r="4.3" fill="#FBFAF8" stroke="#D55E00" stroke-width="1.8"/>
<circle cx="116.0" cy="455.0" r="4.3" fill="#D55E00" stroke="#D55E00" stroke-width="0"/>
<circle cx="343.0" cy="281.0" r="4.3" fill="#FBFAF8" stroke="#D55E00" stroke-width="1.8"/>
<circle cx="343.0" cy="416.1" r="4.3" fill="#D55E00" stroke="#D55E00" stroke-width="0"/>
<circle cx="534.5" cy="204.5" r="4.3" fill="#FBFAF8" stroke="#D55E00" stroke-width="1.8"/>
<circle cx="534.5" cy="272.3" r="4.3" fill="#D55E00" stroke="#D55E00" stroke-width="0"/>
<circle cx="708.6" cy="116.0" r="4.3" fill="#D55E00" stroke="#D55E00" stroke-width="0"/>
<polyline points="106.6,280.3 331.0,277.1 476.1,242.8 550.8,191.7" fill="none" stroke="#CC79A7" stroke-width="1.6" stroke-dasharray="5 3" opacity="0.85"/>
<polyline points="106.6,455.0 331.0,421.1 476.1,314.6 550.8,246.0 614.3,194.8" fill="none" stroke="#CC79A7" stroke-width="2.1"/>
<circle cx="106.6" cy="280.3" r="4.3" fill="#FBFAF8" stroke="#CC79A7" stroke-width="1.8"/>
<circle cx="106.6" cy="455.0" r="4.3" fill="#CC79A7" stroke="#CC79A7" stroke-width="0"/>
<circle cx="331.0" cy="277.1" r="4.3" fill="#FBFAF8" stroke="#CC79A7" stroke-width="1.8"/>
<circle cx="331.0" cy="421.1" r="4.3" fill="#CC79A7" stroke="#CC79A7" stroke-width="0"/>
<circle cx="476.1" cy="242.8" r="4.3" fill="#FBFAF8" stroke="#CC79A7" stroke-width="1.8"/>
<circle cx="476.1" cy="314.6" r="4.3" fill="#CC79A7" stroke="#CC79A7" stroke-width="0"/>
<rect x="545.6" y="188.2" width="8.4" height="8.4" fill="#FBFAF8" stroke="#CC79A7" stroke-width="1.8"/>
<rect x="545.6" y="242.3" width="8.4" height="8.4" fill="#CC79A7" stroke="#CC79A7" stroke-width="0"/>
<circle cx="550.8" cy="191.7" r="4.3" fill="#FBFAF8" stroke="#CC79A7" stroke-width="1.8"/>
<circle cx="550.8" cy="246.0" r="4.3" fill="#CC79A7" stroke="#CC79A7" stroke-width="0"/>
<circle cx="614.3" cy="194.8" r="4.3" fill="#CC79A7" stroke="#CC79A7" stroke-width="0"/>
<text x="343.0" y="295.4" fill="#6C685F" font-size="10.5" text-anchor="middle">&#8776;13&#215; less</text>
<text x="540.5" y="204.5" fill="#6C685F" font-size="10.5">3&#8211;3.4&#215; at scale</text>
<text x="716.7" y="96.7" fill="#3C5A49" font-size="11" font-weight="600" text-anchor="end">2.4 GB @ 20.7M</text>
<text x="766" y="80" fill="#1B1B17" font-size="12" font-weight="700">codimension</text>
<circle cx="773" cy="97" r="5" fill="#0072B2"/><text x="788" y="101" fill="#6C685F" font-size="12">c = 3</text>
<circle cx="773" cy="117" r="5" fill="#009E73"/><text x="788" y="121" fill="#6C685F" font-size="12">c = 4</text>
<circle cx="773" cy="137" r="5" fill="#E69F00"/><text x="788" y="141" fill="#6C685F" font-size="12">c = 5</text>
<circle cx="773" cy="157" r="5" fill="#D55E00"/><text x="788" y="161" fill="#6C685F" font-size="12">c = 6</text>
<circle cx="773" cy="177" r="5" fill="#CC79A7"/><text x="788" y="181" fill="#6C685F" font-size="12">c = 7</text>
<circle cx="773" cy="219" r="4.3" fill="#1B1B17"/><text x="788" y="223" fill="#6C685F" font-size="12">C++ (filled)</text>
<circle cx="773" cy="239" r="4.3" fill="#FBFAF8" stroke="#1B1B17" stroke-width="1.8"/><text x="788" y="243" fill="#6C685F" font-size="12">M2 (hollow)</text>
</svg>