<svg viewBox="0 0 980 560" xmlns="http://www.w3.org/2000/svg" font-family="ui-monospace,Menlo,Consolas,monospace" role="img" aria-labelledby="chart-title chart-desc">
<title id="chart-title">Fresh matched-case median peak RSS</title>
<desc id="chart-desc">Grouped bars compare median peak resident set size for the C++ engine and Macaulay2 across four cases. Macaulay2 used between 3.1 and 4.0 times the C++ process median peak RSS.</desc>
<rect width="980" height="560" fill="#FBFAF8"/>
<text x="34" y="34" fill="#1B1B17" font-size="17" font-weight="700">Fresh matched-case median peak RSS</text>
<text x="34" y="55" fill="#6C685F" font-size="11.5">headline bundle 20260715T202630Z-b2a9bfb8-headline · GNU time peak RSS · linear scale</text>
<line x1="92" y1="440.0" x2="940" y2="440.0" stroke="#E7E4DC"/>
<text x="82" y="444.0" fill="#6C685F" font-size="11.5" text-anchor="end">0 MiB</text>
<line x1="92" y1="370.4" x2="940" y2="370.4" stroke="#E7E4DC"/>
<text x="82" y="374.4" fill="#6C685F" font-size="11.5" text-anchor="end">100 MiB</text>
<line x1="92" y1="300.8" x2="940" y2="300.8" stroke="#E7E4DC"/>
<text x="82" y="304.8" fill="#6C685F" font-size="11.5" text-anchor="end">200 MiB</text>
<line x1="92" y1="231.2" x2="940" y2="231.2" stroke="#E7E4DC"/>
<text x="82" y="235.2" fill="#6C685F" font-size="11.5" text-anchor="end">300 MiB</text>
<line x1="92" y1="161.6" x2="940" y2="161.6" stroke="#E7E4DC"/>
<text x="82" y="165.6" fill="#6C685F" font-size="11.5" text-anchor="end">400 MiB</text>
<line x1="92" y1="92.0" x2="940" y2="92.0" stroke="#E7E4DC"/>
<text x="82" y="96.0" fill="#6C685F" font-size="11.5" text-anchor="end">500 MiB</text>
<line x1="92" y1="92" x2="92" y2="440" stroke="#9C978C"/>
<line x1="92" y1="440" x2="940" y2="440" stroke="#9C978C"/>
<rect x="141" y="413.12" width="44" height="26.88" fill="#0072B2"><title>C++: 38.6 MiB</title></rect>
<text x="163" y="405.1" fill="#1B1B17" font-size="10.5" text-anchor="middle">38.6</text>
<rect x="195" y="333.70" width="44" height="106.30" fill="#D55E00"><title>Macaulay2: 152.7 MiB</title></rect>
<text x="217" y="325.7" fill="#1B1B17" font-size="10.5" text-anchor="middle">152.7</text>
<text x="190" y="469" fill="#1B1B17" font-size="11.5" text-anchor="middle">c = 3, d = 120</text>
<text x="190" y="487" fill="#6C685F" font-size="10.5" text-anchor="middle">280,840 candidates</text>
<rect x="341" y="333.90" width="44" height="106.10" fill="#0072B2"><title>C++: 152.4 MiB</title></rect>
<text x="363" y="325.9" fill="#1B1B17" font-size="10.5" text-anchor="middle">152.4</text>
<rect x="395" y="112.19" width="44" height="327.81" fill="#D55E00"><title>Macaulay2: 471.0 MiB</title></rect>
<text x="417" y="104.2" fill="#1B1B17" font-size="10.5" text-anchor="middle">471.0</text>
<text x="390" y="469" fill="#1B1B17" font-size="11.5" text-anchor="middle">c = 5, d = 45</text>
<text x="390" y="487" fill="#6C685F" font-size="10.5" text-anchor="middle">1,221,759 candidates</text>
<rect x="541" y="360.71" width="44" height="79.29" fill="#0072B2"><title>C++: 113.9 MiB</title></rect>
<text x="563" y="352.7" fill="#1B1B17" font-size="10.5" text-anchor="middle">113.9</text>
<rect x="595" y="169.38" width="44" height="270.62" fill="#D55E00"><title>Macaulay2: 388.8 MiB</title></rect>
<text x="617" y="161.4" fill="#1B1B17" font-size="10.5" text-anchor="middle">388.8</text>
<text x="590" y="469" fill="#1B1B17" font-size="11.5" text-anchor="middle">c = 6, d = 32</text>
<text x="590" y="487" fill="#6C685F" font-size="10.5" text-anchor="middle">906,192 candidates</text>
<rect x="741" y="403.15" width="44" height="36.85" fill="#0072B2"><title>C++: 52.9 MiB</title></rect>
<text x="763" y="395.1" fill="#1B1B17" font-size="10.5" text-anchor="middle">52.9</text>
<rect x="795" y="304.41" width="44" height="135.59" fill="#D55E00"><title>Macaulay2: 194.8 MiB</title></rect>
<text x="817" y="296.4" fill="#1B1B17" font-size="10.5" text-anchor="middle">194.8</text>
<text x="790" y="469" fill="#1B1B17" font-size="11.5" text-anchor="middle">c = 7, d = 24</text>
<text x="790" y="487" fill="#6C685F" font-size="10.5" text-anchor="middle">346,104 candidates</text>
<rect x="673" y="69" width="12" height="12" fill="#0072B2"/><text x="691" y="79" fill="#1B1B17" font-size="11.5">C++ engine</text>
<rect x="805" y="69" width="12" height="12" fill="#D55E00"/><text x="823" y="79" fill="#1B1B17" font-size="11.5">Macaulay2</text>
<text x="516" y="526" fill="#6C685F" font-size="11.5" text-anchor="middle">three successful paired repetitions per case · complete exact result arrays match</text>
</svg>
