<svg viewBox="0 0 980 560" xmlns="http://www.w3.org/2000/svg" font-family="ui-monospace,Menlo,Consolas,monospace">
<rect width="980" height="560" fill="#FBFAF8"/>
<text x="34" y="34" fill="#1B1B17" font-size="17" font-weight="700">Bad-one search: runtime vs. problem size</text>
<text x="34" y="53" fill="#6C685F" font-size="11.5">codimension 3–7 · linear axes · C++ (solid) vs. Macaulay2 (dashed) · program CPU time, same machine</text>
<line x1="92.0" y1="80" x2="92.0" y2="470" stroke="#E7E4DC"/>
<text x="92.0" y="488" fill="#6C685F" font-size="11.5" text-anchor="middle">0</text>
<line x1="246.8" y1="80" x2="246.8" y2="470" stroke="#E7E4DC"/>
<text x="246.8" y="488" fill="#6C685F" font-size="11.5" text-anchor="middle">5M</text>
<line x1="401.5" y1="80" x2="401.5" y2="470" stroke="#E7E4DC"/>
<text x="401.5" y="488" fill="#6C685F" font-size="11.5" text-anchor="middle">10M</text>
<line x1="556.3" y1="80" x2="556.3" y2="470" stroke="#E7E4DC"/>
<text x="556.3" y="488" fill="#6C685F" font-size="11.5" text-anchor="middle">15M</text>
<line x1="711.0" y1="80" x2="711.0" y2="470" stroke="#E7E4DC"/>
<text x="711.0" y="488" fill="#6C685F" font-size="11.5" text-anchor="middle">20M</text>
<line x1="92" y1="470.0" x2="742" y2="470.0" stroke="#E7E4DC"/>
<text x="83" y="474.0" fill="#6C685F" font-size="11.5" text-anchor="end">0</text>
<line x1="92" y1="348.1" x2="742" y2="348.1" stroke="#E7E4DC"/>
<text x="83" y="352.1" fill="#6C685F" font-size="11.5" text-anchor="end">100 s</text>
<line x1="92" y1="226.2" x2="742" y2="226.2" stroke="#E7E4DC"/>
<text x="83" y="230.2" fill="#6C685F" font-size="11.5" text-anchor="end">200 s</text>
<line x1="92" y1="104.4" x2="742" y2="104.4" stroke="#E7E4DC"/>
<text x="83" y="108.4" fill="#6C685F" font-size="11.5" text-anchor="end">300 s</text>
<text x="417" y="510" fill="#6C685F" font-size="12.5" text-anchor="middle">number of candidate sequences  n = C(d, c)</text>
<text transform="translate(34,275) rotate(-90)" fill="#6C685F" font-size="12.5" text-anchor="middle">CPU time</text>
<rect x="92" y="80" width="650" height="390" fill="none" stroke="#9C978C" stroke-width="1.2"/>
<line x1="732.7" y1="80" x2="732.7" y2="470" stroke="#B0432E" stroke-width="1.2" stroke-dasharray="4 3" opacity="0.7"/>
<text x="726.7" y="95" fill="#B0432E" font-size="11.5" text-anchor="end">Macaulay2 out of memory (~20M) →</text>
<polyline points="92.0,469.9 93.1,467.8 100.7,454.1 171.6,234.5 229.9,103.4" fill="none" stroke="#0072B2" stroke-width="1.7" stroke-dasharray="5 3" opacity="0.9"/>
<polyline points="92.0,470.0 93.1,470.0 100.7,469.9 171.6,468.6 229.9,467.6 733.0,456.6" fill="none" stroke="#0072B2" stroke-width="2.2"/>
<circle cx="92.0" cy="469.9" r="4.3" fill="#FBFAF8" stroke="#0072B2" stroke-width="1.8"/>
<circle cx="92.0" cy="470.0" r="4.3" fill="#0072B2"/>
<circle cx="93.1" cy="467.8" r="4.3" fill="#FBFAF8" stroke="#0072B2" stroke-width="1.8"/>
<circle cx="93.1" cy="470.0" r="4.3" fill="#0072B2"/>
<circle cx="100.7" cy="454.1" r="4.3" fill="#FBFAF8" stroke="#0072B2" stroke-width="1.8"/>
<circle cx="100.7" cy="469.9" r="4.3" fill="#0072B2"/>
<circle cx="171.6" cy="234.5" r="4.3" fill="#FBFAF8" stroke="#0072B2" stroke-width="1.8"/>
<circle cx="171.6" cy="468.6" r="4.3" fill="#0072B2"/>
<circle cx="229.9" cy="103.4" r="4.3" fill="#FBFAF8" stroke="#0072B2" stroke-width="1.8"/>
<circle cx="229.9" cy="467.6" r="4.3" fill="#0072B2"/>
<circle cx="733.0" cy="456.6" r="4.3" fill="#0072B2"/>
<polyline points="92.0,469.9 94.8,463.5" fill="none" stroke="#009E73" stroke-width="1.7" stroke-dasharray="5 3" opacity="0.9"/>
<polyline points="92.0,470.0 94.8,469.9 141.0,468.9 719.1,454.3" fill="none" stroke="#009E73" stroke-width="2.2"/>
<circle cx="92.0" cy="469.9" r="4.3" fill="#FBFAF8" stroke="#009E73" stroke-width="1.8"/>
<circle cx="92.0" cy="470.0" r="4.3" fill="#009E73"/>
<circle cx="94.8" cy="463.5" r="4.3" fill="#FBFAF8" stroke="#009E73" stroke-width="1.8"/>
<circle cx="94.8" cy="469.9" r="4.3" fill="#009E73"/>
<circle cx="141.0" cy="468.9" r="4.3" fill="#009E73"/>
<circle cx="719.1" cy="454.3" r="4.3" fill="#009E73"/>
<polyline points="92.0,469.9 93.6,465.4 129.8,347.4" fill="none" stroke="#E69F00" stroke-width="1.7" stroke-dasharray="5 3" opacity="0.9"/>
<polyline points="92.0,470.0 93.6,470.0 129.8,468.9 466.6,456.3" fill="none" stroke="#E69F00" stroke-width="2.2"/>
<circle cx="92.0" cy="469.9" r="4.3" fill="#FBFAF8" stroke="#E69F00" stroke-width="1.8"/>
<circle cx="92.0" cy="470.0" r="4.3" fill="#E69F00"/>
<circle cx="93.6" cy="465.4" r="4.3" fill="#FBFAF8" stroke="#E69F00" stroke-width="1.8"/>
<circle cx="93.6" cy="470.0" r="4.3" fill="#E69F00"/>
<circle cx="129.8" cy="347.4" r="4.3" fill="#FBFAF8" stroke="#E69F00" stroke-width="1.8"/>
<circle cx="129.8" cy="468.9" r="4.3" fill="#E69F00"/>
<circle cx="466.6" cy="456.3" r="4.3" fill="#E69F00"/>
<circle cx="128.5" cy="356.7" r="4.3" fill="#FBFAF8" stroke="#E69F00" stroke-width="1.8"/>
<circle cx="128.5" cy="468.5" r="4.3" fill="#E69F00"/>
<polyline points="92.0,469.8 93.2,465.6 120.0,356.6" fill="none" stroke="#D55E00" stroke-width="1.7" stroke-dasharray="5 3" opacity="0.9"/>
<polyline points="92.0,470.0 93.2,469.9 120.0,469.0 583.9,444.9" fill="none" stroke="#D55E00" stroke-width="2.2"/>
<circle cx="92.0" cy="469.8" r="4.3" fill="#FBFAF8" stroke="#D55E00" stroke-width="1.8"/>
<circle cx="92.0" cy="470.0" r="4.3" fill="#D55E00"/>
<circle cx="93.2" cy="465.6" r="4.3" fill="#FBFAF8" stroke="#D55E00" stroke-width="1.8"/>
<circle cx="93.2" cy="469.9" r="4.3" fill="#D55E00"/>
<circle cx="120.0" cy="356.6" r="4.3" fill="#FBFAF8" stroke="#D55E00" stroke-width="1.8"/>
<circle cx="120.0" cy="469.0" r="4.3" fill="#D55E00"/>
<circle cx="583.9" cy="444.9" r="4.3" fill="#D55E00"/>
<polyline points="92.0,469.9 93.0,465.6 102.7,418.6 128.6,279.4" fill="none" stroke="#CC79A7" stroke-width="1.7" stroke-dasharray="5 3" opacity="0.9"/>
<polyline points="92.0,470.0 93.0,469.9 102.7,469.4 128.6,467.8 196.2,463.2" fill="none" stroke="#CC79A7" stroke-width="2.2"/>
<circle cx="92.0" cy="469.9" r="4.3" fill="#FBFAF8" stroke="#CC79A7" stroke-width="1.8"/>
<circle cx="92.0" cy="470.0" r="4.3" fill="#CC79A7"/>
<circle cx="93.0" cy="465.6" r="4.3" fill="#FBFAF8" stroke="#CC79A7" stroke-width="1.8"/>
<circle cx="93.0" cy="469.9" r="4.3" fill="#CC79A7"/>
<circle cx="102.7" cy="418.6" r="4.3" fill="#FBFAF8" stroke="#CC79A7" stroke-width="1.8"/>
<circle cx="102.7" cy="469.4" r="4.3" fill="#CC79A7"/>
<circle cx="128.6" cy="279.4" r="4.3" fill="#FBFAF8" stroke="#CC79A7" stroke-width="1.8"/>
<circle cx="128.6" cy="467.8" r="4.3" fill="#CC79A7"/>
<circle cx="196.2" cy="463.2" r="4.3" fill="#CC79A7"/>
<circle cx="128.0" cy="291.6" r="4.3" fill="#FBFAF8" stroke="#CC79A7" stroke-width="1.8"/>
<circle cx="128.0" cy="468.1" r="4.3" fill="#CC79A7"/>
<text x="237.9" y="103.4" fill="#B0432E" font-size="11">M2: ~5 min at 4.5M, still climbing</text>
<text x="370.6" y="436.9" fill="#3C5A49" font-size="11">C++ stays under ~21 s all the way to 20M</text>
<text x="762" y="86" fill="#1B1B17" font-size="12" font-weight="700">codimension</text>
<circle cx="769" cy="104" r="5" fill="#0072B2"/><text x="784" y="108" fill="#6C685F" font-size="12">c = 3</text>
<circle cx="769" cy="124" r="5" fill="#009E73"/><text x="784" y="128" fill="#6C685F" font-size="12">c = 4</text>
<circle cx="769" cy="144" r="5" fill="#E69F00"/><text x="784" y="148" fill="#6C685F" font-size="12">c = 5</text>
<circle cx="769" cy="164" r="5" fill="#D55E00"/><text x="784" y="168" fill="#6C685F" font-size="12">c = 6</text>
<circle cx="769" cy="184" r="5" fill="#CC79A7"/><text x="784" y="188" fill="#6C685F" font-size="12">c = 7</text>
<line x1="760" y1="224" x2="776" y2="224" stroke="#1B1B17" stroke-width="2.2"/><circle cx="768" cy="224" r="4.3" fill="#1B1B17"/><text x="784" y="228" fill="#6C685F" font-size="12">C++ engine</text>
<line x1="760" y1="244" x2="776" y2="244" stroke="#1B1B17" stroke-width="1.7" stroke-dasharray="5 3"/><circle cx="768" cy="244" r="4.3" fill="#FBFAF8" stroke="#1B1B17" stroke-width="1.8"/><text x="784" y="248" fill="#6C685F" font-size="12">Macaulay2</text>
</svg>