<svg xmlns="http://www.w3.org/2000/svg" width="1400" height="1400" viewBox="0 0 1400 1400">
<!-- seed: 7; layers: overlay -->
<!-- generated by: ./build/development/normal/portfolio_export_driver &#45;&#45;seed=7 &#45;&#45;count=70 &#45;&#45;out-dir=artifacts (&#45; is an escaped '-') -->
<!-- Delaunay triangulation and Voronoi diagram computed by this repo's C++ engine; this script only renders. -->
<desc>seed 7; generated by: ./build/development/normal/portfolio_export_driver --seed=7 --count=70 --out-dir=artifacts</desc>
<defs><clipPath id="viewport"><rect x="0" y="0" width="1400" height="1400"/></clipPath></defs>
<rect width="1400" height="1400" fill="#FBFCFD"/>
<g clip-path="url(#viewport)">
<g stroke="#CDC8BA" stroke-width="1.1" fill="none">
<line x1="30.00" y1="373.07" x2="87.91" y2="1194.88"/>
<line x1="30.00" y1="373.07" x2="124.51" y2="757.60"/>
<line x1="30.00" y1="373.07" x2="220.58" y2="69.09"/>
<line x1="30.00" y1="373.07" x2="229.45" y2="581.71"/>
<line x1="30.00" y1="373.07" x2="266.63" y2="94.40"/>
<line x1="30.00" y1="373.07" x2="330.45" y2="484.70"/>
<line x1="87.91" y1="1194.88" x2="104.61" y2="1337.22"/>
<line x1="87.91" y1="1194.88" x2="111.34" y2="1124.95"/>
<line x1="87.91" y1="1194.88" x2="124.51" y2="757.60"/>
<line x1="87.91" y1="1194.88" x2="215.34" y2="1070.07"/>
<line x1="104.61" y1="1337.22" x2="215.34" y2="1070.07"/>
<line x1="104.61" y1="1337.22" x2="413.09" y2="1078.02"/>
<line x1="104.61" y1="1337.22" x2="551.74" y2="1272.18"/>
<line x1="104.61" y1="1337.22" x2="701.43" y2="1370.00"/>
<line x1="111.34" y1="1124.95" x2="124.51" y2="757.60"/>
<line x1="111.34" y1="1124.95" x2="215.34" y2="1070.07"/>
<line x1="124.51" y1="757.60" x2="215.34" y2="1070.07"/>
<line x1="124.51" y1="757.60" x2="229.45" y2="581.71"/>
<line x1="124.51" y1="757.60" x2="277.21" y2="717.91"/>
<line x1="124.51" y1="757.60" x2="299.80" y2="1021.62"/>
<line x1="124.51" y1="757.60" x2="336.99" y2="966.61"/>
<line x1="215.34" y1="1070.07" x2="299.80" y2="1021.62"/>
<line x1="215.34" y1="1070.07" x2="413.09" y2="1078.02"/>
<line x1="220.58" y1="69.09" x2="266.63" y2="94.40"/>
<line x1="220.58" y1="69.09" x2="328.82" y2="78.18"/>
<line x1="220.58" y1="69.09" x2="601.75" y2="41.05"/>
<line x1="229.45" y1="581.71" x2="277.21" y2="717.91"/>
<line x1="229.45" y1="581.71" x2="330.45" y2="484.70"/>
<line x1="229.45" y1="581.71" x2="335.83" y2="718.66"/>
<line x1="229.45" y1="581.71" x2="400.99" y2="636.24"/>
<line x1="266.63" y1="94.40" x2="328.82" y2="78.18"/>
<line x1="266.63" y1="94.40" x2="330.45" y2="484.70"/>
<line x1="266.63" y1="94.40" x2="429.48" y2="192.16"/>
<line x1="277.21" y1="717.91" x2="335.83" y2="718.66"/>
<line x1="277.21" y1="717.91" x2="336.99" y2="966.61"/>
<line x1="277.21" y1="717.91" x2="387.36" y2="917.87"/>
<line x1="299.80" y1="1021.62" x2="336.99" y2="966.61"/>
<line x1="299.80" y1="1021.62" x2="413.09" y2="1078.02"/>
<line x1="328.82" y1="78.18" x2="429.48" y2="192.16"/>
<line x1="328.82" y1="78.18" x2="454.22" y2="78.30"/>
<line x1="328.82" y1="78.18" x2="601.75" y2="41.05"/>
<line x1="330.45" y1="484.70" x2="400.99" y2="636.24"/>
<line x1="330.45" y1="484.70" x2="429.48" y2="192.16"/>
<line x1="330.45" y1="484.70" x2="528.28" y2="288.70"/>
<line x1="330.45" y1="484.70" x2="550.42" y2="640.33"/>
<line x1="330.45" y1="484.70" x2="665.74" y2="449.51"/>
<line x1="335.83" y1="718.66" x2="387.36" y2="917.87"/>
<line x1="335.83" y1="718.66" x2="400.99" y2="636.24"/>
<line x1="335.83" y1="718.66" x2="425.03" y2="676.92"/>
<line x1="335.83" y1="718.66" x2="466.26" y2="860.77"/>
<line x1="335.83" y1="718.66" x2="506.75" y2="752.73"/>
<line x1="336.99" y1="966.61" x2="387.36" y2="917.87"/>
<line x1="336.99" y1="966.61" x2="413.09" y2="1078.02"/>
<line x1="387.36" y1="917.87" x2="413.09" y2="1078.02"/>
<line x1="387.36" y1="917.87" x2="466.26" y2="860.77"/>
<line x1="387.36" y1="917.87" x2="505.52" y2="877.42"/>
<line x1="400.99" y1="636.24" x2="425.03" y2="676.92"/>
<line x1="400.99" y1="636.24" x2="550.42" y2="640.33"/>
<line x1="413.09" y1="1078.02" x2="505.52" y2="877.42"/>
<line x1="413.09" y1="1078.02" x2="513.94" y2="1145.57"/>
<line x1="413.09" y1="1078.02" x2="551.74" y2="1272.18"/>
<line x1="413.09" y1="1078.02" x2="589.21" y2="1010.11"/>
<line x1="425.03" y1="676.92" x2="506.75" y2="752.73"/>
<line x1="425.03" y1="676.92" x2="550.42" y2="640.33"/>
<line x1="429.48" y1="192.16" x2="454.22" y2="78.30"/>
<line x1="429.48" y1="192.16" x2="528.28" y2="288.70"/>
<line x1="429.48" y1="192.16" x2="592.42" y2="97.11"/>
<line x1="454.22" y1="78.30" x2="592.42" y2="97.11"/>
<line x1="454.22" y1="78.30" x2="601.75" y2="41.05"/>
<line x1="466.26" y1="860.77" x2="505.52" y2="877.42"/>
<line x1="466.26" y1="860.77" x2="506.75" y2="752.73"/>
<line x1="466.26" y1="860.77" x2="550.89" y2="793.53"/>
<line x1="505.52" y1="877.42" x2="550.89" y2="793.53"/>
<line x1="505.52" y1="877.42" x2="589.21" y2="1010.11"/>
<line x1="506.75" y1="752.73" x2="550.42" y2="640.33"/>
<line x1="506.75" y1="752.73" x2="550.89" y2="793.53"/>
<line x1="506.75" y1="752.73" x2="625.88" y2="706.97"/>
<line x1="513.94" y1="1145.57" x2="551.74" y2="1272.18"/>
<line x1="513.94" y1="1145.57" x2="589.21" y2="1010.11"/>
<line x1="513.94" y1="1145.57" x2="591.14" y2="1193.62"/>
<line x1="528.28" y1="288.70" x2="592.42" y2="97.11"/>
<line x1="528.28" y1="288.70" x2="660.21" y2="288.55"/>
<line x1="528.28" y1="288.70" x2="665.74" y2="449.51"/>
<line x1="528.28" y1="288.70" x2="681.59" y2="345.48"/>
<line x1="550.42" y1="640.33" x2="625.88" y2="706.97"/>
<line x1="550.42" y1="640.33" x2="665.74" y2="449.51"/>
<line x1="550.42" y1="640.33" x2="694.29" y2="631.67"/>
<line x1="550.89" y1="793.53" x2="589.21" y2="1010.11"/>
<line x1="550.89" y1="793.53" x2="625.88" y2="706.97"/>
<line x1="550.89" y1="793.53" x2="820.11" y2="725.45"/>
<line x1="551.74" y1="1272.18" x2="591.14" y2="1193.62"/>
<line x1="551.74" y1="1272.18" x2="701.43" y2="1370.00"/>
<line x1="589.21" y1="1010.11" x2="591.14" y2="1193.62"/>
<line x1="589.21" y1="1010.11" x2="820.11" y2="725.45"/>
<line x1="589.21" y1="1010.11" x2="869.02" y2="1179.66"/>
<line x1="589.21" y1="1010.11" x2="903.84" y2="849.32"/>
<line x1="589.21" y1="1010.11" x2="946.29" y2="917.75"/>
<line x1="591.14" y1="1193.62" x2="701.43" y2="1370.00"/>
<line x1="591.14" y1="1193.62" x2="869.02" y2="1179.66"/>
<line x1="592.42" y1="97.11" x2="601.75" y2="41.05"/>
<line x1="592.42" y1="97.11" x2="660.21" y2="288.55"/>
<line x1="592.42" y1="97.11" x2="708.05" y2="233.91"/>
<line x1="601.75" y1="41.05" x2="708.05" y2="233.91"/>
<line x1="601.75" y1="41.05" x2="1068.51" y2="30.00"/>
<line x1="625.88" y1="706.97" x2="694.29" y2="631.67"/>
<line x1="625.88" y1="706.97" x2="820.11" y2="725.45"/>
<line x1="660.21" y1="288.55" x2="681.59" y2="345.48"/>
<line x1="660.21" y1="288.55" x2="708.05" y2="233.91"/>
<line x1="660.21" y1="288.55" x2="774.74" y2="270.16"/>
<line x1="665.74" y1="449.51" x2="681.59" y2="345.48"/>
<line x1="665.74" y1="449.51" x2="694.29" y2="631.67"/>
<line x1="665.74" y1="449.51" x2="842.00" y2="531.03"/>
<line x1="665.74" y1="449.51" x2="886.41" y2="481.57"/>
<line x1="681.59" y1="345.48" x2="774.74" y2="270.16"/>
<line x1="681.59" y1="345.48" x2="857.51" y2="305.50"/>
<line x1="681.59" y1="345.48" x2="886.41" y2="481.57"/>
<line x1="694.29" y1="631.67" x2="820.11" y2="725.45"/>
<line x1="694.29" y1="631.67" x2="842.00" y2="531.03"/>
<line x1="701.43" y1="1370.00" x2="869.02" y2="1179.66"/>
<line x1="701.43" y1="1370.00" x2="916.88" y2="1365.52"/>
<line x1="708.05" y1="233.91" x2="774.74" y2="270.16"/>
<line x1="708.05" y1="233.91" x2="1068.51" y2="30.00"/>
<line x1="774.74" y1="270.16" x2="857.51" y2="305.50"/>
<line x1="774.74" y1="270.16" x2="1068.51" y2="30.00"/>
<line x1="820.11" y1="725.45" x2="842.00" y2="531.03"/>
<line x1="820.11" y1="725.45" x2="903.84" y2="849.32"/>
<line x1="820.11" y1="725.45" x2="1052.16" y2="785.02"/>
<line x1="820.11" y1="725.45" x2="1107.34" y2="662.21"/>
<line x1="842.00" y1="531.03" x2="886.41" y2="481.57"/>
<line x1="842.00" y1="531.03" x2="931.04" y2="463.50"/>
<line x1="842.00" y1="531.03" x2="1107.34" y2="662.21"/>
<line x1="857.51" y1="305.50" x2="886.41" y2="481.57"/>
<line x1="857.51" y1="305.50" x2="931.04" y2="463.50"/>
<line x1="857.51" y1="305.50" x2="989.93" y2="446.50"/>
<line x1="857.51" y1="305.50" x2="1068.51" y2="30.00"/>
<line x1="869.02" y1="1179.66" x2="916.88" y2="1365.52"/>
<line x1="869.02" y1="1179.66" x2="946.29" y2="917.75"/>
<line x1="869.02" y1="1179.66" x2="1009.39" y2="1029.34"/>
<line x1="869.02" y1="1179.66" x2="1064.63" y2="1151.61"/>
<line x1="886.41" y1="481.57" x2="931.04" y2="463.50"/>
<line x1="903.84" y1="849.32" x2="946.29" y2="917.75"/>
<line x1="903.84" y1="849.32" x2="1052.16" y2="785.02"/>
<line x1="903.84" y1="849.32" x2="1057.80" y2="843.47"/>
<line x1="916.88" y1="1365.52" x2="1064.63" y2="1151.61"/>
<line x1="916.88" y1="1365.52" x2="1182.45" y2="1119.67"/>
<line x1="931.04" y1="463.50" x2="989.93" y2="446.50"/>
<line x1="931.04" y1="463.50" x2="1107.34" y2="662.21"/>
<line x1="946.29" y1="917.75" x2="1009.39" y2="1029.34"/>
<line x1="946.29" y1="917.75" x2="1057.80" y2="843.47"/>
<line x1="989.93" y1="446.50" x2="1068.51" y2="30.00"/>
<line x1="989.93" y1="446.50" x2="1107.34" y2="662.21"/>
<line x1="989.93" y1="446.50" x2="1164.24" y2="510.24"/>
<line x1="989.93" y1="446.50" x2="1301.82" y2="135.30"/>
<line x1="1009.39" y1="1029.34" x2="1057.80" y2="843.47"/>
<line x1="1009.39" y1="1029.34" x2="1064.63" y2="1151.61"/>
<line x1="1009.39" y1="1029.34" x2="1148.22" y2="1039.96"/>
<line x1="1052.16" y1="785.02" x2="1057.80" y2="843.47"/>
<line x1="1052.16" y1="785.02" x2="1107.34" y2="662.21"/>
<line x1="1052.16" y1="785.02" x2="1134.88" y2="841.64"/>
<line x1="1052.16" y1="785.02" x2="1171.44" y2="674.02"/>
<line x1="1057.80" y1="843.47" x2="1134.88" y2="841.64"/>
<line x1="1057.80" y1="843.47" x2="1148.22" y2="1039.96"/>
<line x1="1064.63" y1="1151.61" x2="1148.22" y2="1039.96"/>
<line x1="1064.63" y1="1151.61" x2="1182.45" y2="1119.67"/>
<line x1="1068.51" y1="30.00" x2="1301.82" y2="135.30"/>
<line x1="1107.34" y1="662.21" x2="1164.24" y2="510.24"/>
<line x1="1107.34" y1="662.21" x2="1171.44" y2="674.02"/>
<line x1="1107.34" y1="662.21" x2="1172.03" y2="622.18"/>
<line x1="1134.88" y1="841.64" x2="1148.22" y2="1039.96"/>
<line x1="1134.88" y1="841.64" x2="1171.44" y2="674.02"/>
<line x1="1134.88" y1="841.64" x2="1256.26" y2="914.18"/>
<line x1="1134.88" y1="841.64" x2="1277.02" y2="851.18"/>
<line x1="1134.88" y1="841.64" x2="1290.05" y2="716.08"/>
<line x1="1148.22" y1="1039.96" x2="1182.45" y2="1119.67"/>
<line x1="1148.22" y1="1039.96" x2="1244.48" y2="1001.54"/>
<line x1="1148.22" y1="1039.96" x2="1256.26" y2="914.18"/>
<line x1="1164.24" y1="510.24" x2="1172.03" y2="622.18"/>
<line x1="1164.24" y1="510.24" x2="1301.82" y2="135.30"/>
<line x1="1164.24" y1="510.24" x2="1352.62" y2="512.79"/>
<line x1="1171.44" y1="674.02" x2="1172.03" y2="622.18"/>
<line x1="1171.44" y1="674.02" x2="1290.05" y2="716.08"/>
<line x1="1172.03" y1="622.18" x2="1290.05" y2="716.08"/>
<line x1="1172.03" y1="622.18" x2="1332.13" y2="663.79"/>
<line x1="1172.03" y1="622.18" x2="1352.62" y2="512.79"/>
<line x1="1182.45" y1="1119.67" x2="1244.48" y2="1001.54"/>
<line x1="1244.48" y1="1001.54" x2="1256.26" y2="914.18"/>
<line x1="1244.48" y1="1001.54" x2="1277.02" y2="851.18"/>
<line x1="1244.48" y1="1001.54" x2="1332.13" y2="663.79"/>
<line x1="1256.26" y1="914.18" x2="1277.02" y2="851.18"/>
<line x1="1277.02" y1="851.18" x2="1290.05" y2="716.08"/>
<line x1="1277.02" y1="851.18" x2="1332.13" y2="663.79"/>
<line x1="1290.05" y1="716.08" x2="1332.13" y2="663.79"/>
<line x1="1301.82" y1="135.30" x2="1352.62" y2="512.79"/>
<line x1="1332.13" y1="663.79" x2="1352.62" y2="512.79"/>
</g>
<g stroke="#1B1B17" stroke-width="1.6" stroke-linecap="round" fill="none">
<line x1="0.00" y1="584.32" x2="24.06" y2="578.41"/>
<line x1="0.00" y1="1126.54" x2="217.02" y2="1199.25"/>
<line x1="0.00" y1="937.05" x2="80.19" y2="939.92"/>
<line x1="263.27" y1="1246.46" x2="306.57" y2="1264.41"/>
<line x1="263.27" y1="1246.46" x2="217.02" y2="1199.25"/>
<line x1="217.02" y1="1199.25" x2="80.19" y2="939.92"/>
<line x1="80.19" y1="939.92" x2="180.14" y2="910.87"/>
<line x1="24.06" y1="578.41" x2="184.29" y2="674.02"/>
<line x1="24.06" y1="578.41" x2="180.09" y2="429.24"/>
<line x1="156.34" y1="240.55" x2="227.69" y2="301.13"/>
<line x1="156.34" y1="240.55" x2="279.50" y2="16.41"/>
<line x1="184.29" y1="674.02" x2="232.67" y2="860.15"/>
<line x1="184.29" y1="674.02" x2="307.65" y2="630.77"/>
<line x1="180.14" y1="910.87" x2="311.56" y2="1139.98"/>
<line x1="180.14" y1="910.87" x2="187.76" y2="905.80"/>
<line x1="279.50" y1="16.41" x2="323.33" y2="184.47"/>
<line x1="279.50" y1="16.41" x2="280.88" y2="0.00"/>
<line x1="180.09" y1="429.24" x2="324.55" y2="579.63"/>
<line x1="180.09" y1="429.24" x2="227.69" y2="301.13"/>
<line x1="227.69" y1="301.13" x2="256.07" y2="296.49"/>
<line x1="307.65" y1="630.77" x2="305.05" y2="832.89"/>
<line x1="307.65" y1="630.77" x2="308.50" y2="630.10"/>
<line x1="232.67" y1="860.15" x2="187.76" y2="905.80"/>
<line x1="232.67" y1="860.15" x2="273.28" y2="850.39"/>
<line x1="187.76" y1="905.80" x2="367.61" y2="1027.39"/>
<line x1="305.05" y1="832.89" x2="273.28" y2="850.39"/>
<line x1="305.05" y1="832.89" x2="373.22" y2="815.26"/>
<line x1="273.28" y1="850.39" x2="413.95" y2="995.74"/>
<line x1="324.55" y1="579.63" x2="308.50" y2="630.10"/>
<line x1="324.55" y1="579.63" x2="479.28" y2="507.61"/>
<line x1="308.50" y1="630.10" x2="372.38" y2="680.59"/>
<line x1="306.57" y1="1264.41" x2="325.61" y2="1287.07"/>
<line x1="306.57" y1="1264.41" x2="311.56" y2="1139.98"/>
<line x1="311.56" y1="1139.98" x2="367.61" y2="1027.39"/>
<line x1="367.61" y1="1027.39" x2="413.95" y2="995.74"/>
<line x1="413.95" y1="995.74" x2="476.57" y2="985.68"/>
<line x1="372.38" y1="680.59" x2="414.38" y2="770.34"/>
<line x1="372.38" y1="680.59" x2="476.23" y2="619.22"/>
<line x1="323.33" y1="184.47" x2="256.07" y2="296.49"/>
<line x1="323.33" y1="184.47" x2="391.48" y2="124.28"/>
<line x1="256.07" y1="296.49" x2="382.35" y2="339.23"/>
<line x1="391.48" y1="124.28" x2="514.69" y2="151.06"/>
<line x1="391.48" y1="124.28" x2="391.60" y2="0.00"/>
<line x1="373.22" y1="815.26" x2="458.65" y2="933.32"/>
<line x1="373.22" y1="815.26" x2="412.64" y2="779.07"/>
<line x1="476.57" y1="985.68" x2="479.08" y2="986.83"/>
<line x1="476.57" y1="985.68" x2="458.65" y2="933.32"/>
<line x1="458.65" y1="933.32" x2="505.38" y2="823.13"/>
<line x1="414.38" y1="770.34" x2="412.64" y2="779.07"/>
<line x1="414.38" y1="770.34" x2="494.97" y2="683.47"/>
<line x1="412.64" y1="779.07" x2="494.85" y2="809.88"/>
<line x1="382.35" y1="339.23" x2="496.80" y2="454.76"/>
<line x1="382.35" y1="339.23" x2="533.95" y2="184.07"/>
<line x1="479.28" y1="507.61" x2="476.23" y2="619.22"/>
<line x1="479.28" y1="507.61" x2="499.37" y2="479.22"/>
<line x1="476.23" y1="619.22" x2="494.97" y2="683.47"/>
<line x1="494.97" y1="683.47" x2="557.89" y2="707.92"/>
<line x1="505.38" y1="823.13" x2="630.95" y2="891.04"/>
<line x1="505.38" y1="823.13" x2="494.85" y2="809.88"/>
<line x1="494.85" y1="809.88" x2="567.05" y2="731.77"/>
<line x1="325.61" y1="1287.07" x2="342.04" y2="1400.00"/>
<line x1="325.61" y1="1287.07" x2="364.91" y2="1259.01"/>
<line x1="364.91" y1="1259.01" x2="503.97" y2="1051.38"/>
<line x1="364.91" y1="1259.01" x2="527.01" y2="1210.61"/>
<line x1="479.08" y1="986.83" x2="503.97" y2="1051.38"/>
<line x1="479.08" y1="986.83" x2="630.95" y2="891.04"/>
<line x1="503.97" y1="1051.38" x2="594.73" y2="1101.82"/>
<line x1="630.95" y1="891.04" x2="715.01" y2="876.17"/>
<line x1="527.01" y1="1210.61" x2="656.38" y2="1275.50"/>
<line x1="527.01" y1="1210.61" x2="594.73" y2="1101.82"/>
<line x1="594.73" y1="1101.82" x2="725.75" y2="1100.44"/>
<line x1="514.69" y1="151.06" x2="533.95" y2="184.07"/>
<line x1="514.69" y1="151.06" x2="527.43" y2="57.48"/>
<line x1="533.95" y1="184.07" x2="594.15" y2="204.22"/>
<line x1="512.92" y1="0.00" x2="527.43" y2="57.48"/>
<line x1="527.43" y1="57.48" x2="736.80" y2="92.34"/>
<line x1="557.89" y1="707.92" x2="567.05" y2="731.77"/>
<line x1="557.89" y1="707.92" x2="622.29" y2="634.99"/>
<line x1="567.05" y1="731.77" x2="709.75" y2="855.40"/>
<line x1="594.15" y1="204.22" x2="594.31" y2="345.78"/>
<line x1="594.15" y1="204.22" x2="611.85" y2="197.95"/>
<line x1="496.80" y1="454.76" x2="499.37" y2="479.22"/>
<line x1="496.80" y1="454.76" x2="580.42" y2="383.29"/>
<line x1="499.37" y1="479.22" x2="617.20" y2="550.43"/>
<line x1="594.31" y1="345.78" x2="580.42" y2="383.29"/>
<line x1="594.31" y1="345.78" x2="720.53" y2="298.38"/>
<line x1="580.42" y1="383.29" x2="783.53" y2="414.23"/>
<line x1="622.29" y1="634.99" x2="722.10" y2="725.66"/>
<line x1="622.29" y1="634.99" x2="617.20" y2="550.43"/>
<line x1="617.20" y1="550.43" x2="734.55" y2="532.05"/>
<line x1="575.02" y1="1400.00" x2="656.38" y2="1275.50"/>
<line x1="656.38" y1="1275.50" x2="732.17" y2="1228.11"/>
<line x1="736.80" y1="92.34" x2="611.85" y2="197.95"/>
<line x1="736.80" y1="92.34" x2="835.19" y2="38.11"/>
<line x1="611.85" y1="197.95" x2="719.54" y2="292.24"/>
<line x1="720.53" y1="298.38" x2="780.14" y2="372.09"/>
<line x1="720.53" y1="298.38" x2="719.54" y2="292.24"/>
<line x1="719.54" y1="292.24" x2="846.65" y2="58.37"/>
<line x1="715.01" y1="876.17" x2="722.10" y2="881.93"/>
<line x1="715.01" y1="876.17" x2="709.75" y2="855.40"/>
<line x1="709.75" y1="855.40" x2="722.10" y2="725.66"/>
<line x1="722.10" y1="725.66" x2="797.52" y2="624.46"/>
<line x1="734.55" y1="532.05" x2="797.52" y2="624.46"/>
<line x1="734.55" y1="532.05" x2="781.01" y2="431.60"/>
<line x1="797.52" y1="624.46" x2="952.29" y2="641.89"/>
<line x1="780.14" y1="372.09" x2="788.14" y2="407.29"/>
<line x1="780.14" y1="372.09" x2="890.96" y2="112.57"/>
<line x1="725.75" y1="1100.44" x2="732.17" y2="1228.11"/>
<line x1="725.75" y1="1100.44" x2="779.93" y2="1011.02"/>
<line x1="732.17" y1="1228.11" x2="807.63" y2="1294.56"/>
<line x1="783.53" y1="414.23" x2="781.01" y2="431.60"/>
<line x1="783.53" y1="414.23" x2="788.14" y2="407.29"/>
<line x1="781.01" y1="431.60" x2="955.62" y2="588.37"/>
<line x1="788.14" y1="407.29" x2="876.45" y2="392.80"/>
<line x1="722.10" y1="881.93" x2="771.58" y2="978.75"/>
<line x1="722.10" y1="881.93" x2="941.72" y2="733.48"/>
<line x1="807.63" y1="1294.56" x2="978.99" y2="1250.43"/>
<line x1="955.62" y1="588.37" x2="969.62" y2="606.84"/>
<line x1="955.62" y1="588.37" x2="876.45" y2="392.80"/>
<line x1="876.45" y1="392.80" x2="934.70" y2="365.68"/>
<line x1="779.93" y1="1011.02" x2="866.43" y2="1036.54"/>
<line x1="779.93" y1="1011.02" x2="771.58" y2="978.75"/>
<line x1="771.58" y1="978.75" x2="980.91" y2="848.89"/>
<line x1="934.70" y1="365.68" x2="997.25" y2="582.32"/>
<line x1="934.70" y1="365.68" x2="1063.50" y2="244.72"/>
<line x1="866.43" y1="1036.54" x2="960.97" y2="1124.83"/>
<line x1="866.43" y1="1036.54" x2="1040.39" y2="938.18"/>
<line x1="941.72" y1="733.48" x2="979.87" y2="821.49"/>
<line x1="941.72" y1="733.48" x2="958.27" y2="669.03"/>
<line x1="980.91" y1="848.89" x2="1040.39" y2="938.18"/>
<line x1="980.91" y1="848.89" x2="979.87" y2="821.49"/>
<line x1="979.87" y1="821.49" x2="1095.57" y2="810.33"/>
<line x1="1040.39" y1="938.18" x2="1085.29" y2="949.87"/>
<line x1="978.99" y1="1250.43" x2="1195.11" y2="1399.72"/>
<line x1="978.99" y1="1250.43" x2="960.97" y2="1124.83"/>
<line x1="960.97" y1="1124.83" x2="1075.88" y2="1072.91"/>
<line x1="835.19" y1="38.11" x2="846.65" y2="58.37"/>
<line x1="846.65" y1="58.37" x2="890.96" y2="112.57"/>
<line x1="890.96" y1="112.57" x2="1063.50" y2="244.72"/>
<line x1="1063.50" y1="244.72" x2="1108.21" y2="253.15"/>
<line x1="952.29" y1="641.89" x2="958.27" y2="669.03"/>
<line x1="952.29" y1="641.89" x2="969.62" y2="606.84"/>
<line x1="958.27" y1="669.03" x2="1125.39" y2="744.12"/>
<line x1="969.62" y1="606.84" x2="997.25" y2="582.32"/>
<line x1="997.25" y1="582.32" x2="1049.46" y2="553.90"/>
<line x1="1095.57" y1="810.33" x2="1098.74" y2="943.68"/>
<line x1="1095.57" y1="810.33" x2="1134.32" y2="753.72"/>
<line x1="1085.29" y1="949.87" x2="1075.88" y2="1072.91"/>
<line x1="1085.29" y1="949.87" x2="1098.74" y2="943.68"/>
<line x1="1075.88" y1="1072.91" x2="1114.34" y2="1101.71"/>
<line x1="1098.74" y1="943.68" x2="1158.67" y2="939.65"/>
<line x1="1049.46" y1="553.90" x2="1095.79" y2="571.25"/>
<line x1="1049.46" y1="553.90" x2="1145.70" y2="290.72"/>
<line x1="1125.39" y1="744.12" x2="1134.32" y2="753.72"/>
<line x1="1125.39" y1="744.12" x2="1143.14" y2="647.77"/>
<line x1="1134.32" y1="753.72" x2="1204.51" y2="769.03"/>
<line x1="1095.79" y1="571.25" x2="1143.14" y2="647.77"/>
<line x1="1095.79" y1="571.25" x2="1257.77" y2="559.97"/>
<line x1="1143.14" y1="647.77" x2="1247.09" y2="648.96"/>
<line x1="1195.11" y1="1399.72" x2="1114.34" y2="1101.71"/>
<line x1="1114.34" y1="1101.71" x2="1211.94" y2="1059.81"/>
<line x1="1211.94" y1="1059.81" x2="1166.74" y2="946.58"/>
<line x1="1158.67" y1="939.65" x2="1166.74" y2="946.58"/>
<line x1="1158.67" y1="939.65" x2="1204.88" y2="862.34"/>
<line x1="1166.74" y1="946.58" x2="1400.00" y2="978.05"/>
<line x1="1204.88" y1="862.34" x2="1400.00" y2="926.61"/>
<line x1="1204.88" y1="862.34" x2="1210.63" y2="776.60"/>
<line x1="1204.51" y1="769.03" x2="1210.63" y2="776.60"/>
<line x1="1204.51" y1="769.03" x2="1247.09" y2="648.96"/>
<line x1="1210.63" y1="776.60" x2="1400.00" y2="794.87"/>
<line x1="1247.09" y1="648.96" x2="1252.20" y2="642.54"/>
<line x1="1108.21" y1="253.15" x2="1145.70" y2="290.72"/>
<line x1="1145.70" y1="290.72" x2="1260.85" y2="332.98"/>
<line x1="1252.20" y1="642.54" x2="1400.00" y2="761.49"/>
<line x1="1252.20" y1="642.54" x2="1268.89" y2="578.32"/>
<line x1="1257.77" y1="559.97" x2="1268.89" y2="578.32"/>
<line x1="1257.77" y1="559.97" x2="1260.85" y2="332.98"/>
</g>
<g fill="#3C5A49" stroke="#FBFCFD" stroke-width="2.0">
<circle cx="30.00" cy="373.07" r="3.5"/>
<circle cx="87.91" cy="1194.88" r="3.5"/>
<circle cx="104.61" cy="1337.22" r="3.5"/>
<circle cx="111.34" cy="1124.95" r="3.5"/>
<circle cx="124.51" cy="757.60" r="3.5"/>
<circle cx="215.34" cy="1070.07" r="3.5"/>
<circle cx="220.58" cy="69.09" r="3.5"/>
<circle cx="229.45" cy="581.71" r="3.5"/>
<circle cx="266.63" cy="94.40" r="3.5"/>
<circle cx="277.21" cy="717.91" r="3.5"/>
<circle cx="299.80" cy="1021.62" r="3.5"/>
<circle cx="328.82" cy="78.18" r="3.5"/>
<circle cx="330.45" cy="484.70" r="3.5"/>
<circle cx="335.83" cy="718.66" r="3.5"/>
<circle cx="336.99" cy="966.61" r="3.5"/>
<circle cx="387.36" cy="917.87" r="3.5"/>
<circle cx="400.99" cy="636.24" r="3.5"/>
<circle cx="413.09" cy="1078.02" r="3.5"/>
<circle cx="425.03" cy="676.92" r="3.5"/>
<circle cx="429.48" cy="192.16" r="3.5"/>
<circle cx="454.22" cy="78.30" r="3.5"/>
<circle cx="466.26" cy="860.77" r="3.5"/>
<circle cx="505.52" cy="877.42" r="3.5"/>
<circle cx="506.75" cy="752.73" r="3.5"/>
<circle cx="513.94" cy="1145.57" r="3.5"/>
<circle cx="528.28" cy="288.70" r="3.5"/>
<circle cx="550.42" cy="640.33" r="3.5"/>
<circle cx="550.89" cy="793.53" r="3.5"/>
<circle cx="551.74" cy="1272.18" r="3.5"/>
<circle cx="589.21" cy="1010.11" r="3.5"/>
<circle cx="591.14" cy="1193.62" r="3.5"/>
<circle cx="592.42" cy="97.11" r="3.5"/>
<circle cx="601.75" cy="41.05" r="3.5"/>
<circle cx="625.88" cy="706.97" r="3.5"/>
<circle cx="660.21" cy="288.55" r="3.5"/>
<circle cx="665.74" cy="449.51" r="3.5"/>
<circle cx="681.59" cy="345.48" r="3.5"/>
<circle cx="694.29" cy="631.67" r="3.5"/>
<circle cx="701.43" cy="1370.00" r="3.5"/>
<circle cx="708.05" cy="233.91" r="3.5"/>
<circle cx="774.74" cy="270.16" r="3.5"/>
<circle cx="820.11" cy="725.45" r="3.5"/>
<circle cx="842.00" cy="531.03" r="3.5"/>
<circle cx="857.51" cy="305.50" r="3.5"/>
<circle cx="869.02" cy="1179.66" r="3.5"/>
<circle cx="886.41" cy="481.57" r="3.5"/>
<circle cx="903.84" cy="849.32" r="3.5"/>
<circle cx="916.88" cy="1365.52" r="3.5"/>
<circle cx="931.04" cy="463.50" r="3.5"/>
<circle cx="946.29" cy="917.75" r="3.5"/>
<circle cx="989.93" cy="446.50" r="3.5"/>
<circle cx="1009.39" cy="1029.34" r="3.5"/>
<circle cx="1052.16" cy="785.02" r="3.5"/>
<circle cx="1057.80" cy="843.47" r="3.5"/>
<circle cx="1064.63" cy="1151.61" r="3.5"/>
<circle cx="1068.51" cy="30.00" r="3.5"/>
<circle cx="1107.34" cy="662.21" r="3.5"/>
<circle cx="1134.88" cy="841.64" r="3.5"/>
<circle cx="1148.22" cy="1039.96" r="3.5"/>
<circle cx="1164.24" cy="510.24" r="3.5"/>
<circle cx="1171.44" cy="674.02" r="3.5"/>
<circle cx="1172.03" cy="622.18" r="3.5"/>
<circle cx="1182.45" cy="1119.67" r="3.5"/>
<circle cx="1244.48" cy="1001.54" r="3.5"/>
<circle cx="1256.26" cy="914.18" r="3.5"/>
<circle cx="1277.02" cy="851.18" r="3.5"/>
<circle cx="1290.05" cy="716.08" r="3.5"/>
<circle cx="1301.82" cy="135.30" r="3.5"/>
<circle cx="1332.13" cy="663.79" r="3.5"/>
<circle cx="1352.62" cy="512.79" r="3.5"/>
</g>
</g>
</svg>
