<svg xmlns="http://www.w3.org/2000/svg" width="1400" height="1400" viewBox="0 0 1400 1400">
<!-- seed: 7; layers: delaunay -->
<!-- generated by: ./build/development/normal/portfolio_export_driver &#45;&#45;seed=7 &#45;&#45;count=70 &#45;&#45;out-dir=artifacts (&#45; is an escaped '-') -->
<!-- Delaunay triangulation and Voronoi diagram computed by this repo's C++ engine; this script only renders. -->
<desc>seed 7; generated by: ./build/development/normal/portfolio_export_driver --seed=7 --count=70 --out-dir=artifacts</desc>
<defs><clipPath id="viewport"><rect x="0" y="0" width="1400" height="1400"/></clipPath></defs>
<rect width="1400" height="1400" fill="#FBFCFD"/>
<g clip-path="url(#viewport)">
<g stroke="#1B1B17" stroke-width="1.6" fill="none">
<line x1="30.00" y1="373.07" x2="87.91" y2="1194.88"/>
<line x1="30.00" y1="373.07" x2="124.51" y2="757.60"/>
<line x1="30.00" y1="373.07" x2="220.58" y2="69.09"/>
<line x1="30.00" y1="373.07" x2="229.45" y2="581.71"/>
<line x1="30.00" y1="373.07" x2="266.63" y2="94.40"/>
<line x1="30.00" y1="373.07" x2="330.45" y2="484.70"/>
<line x1="87.91" y1="1194.88" x2="104.61" y2="1337.22"/>
<line x1="87.91" y1="1194.88" x2="111.34" y2="1124.95"/>
<line x1="87.91" y1="1194.88" x2="124.51" y2="757.60"/>
<line x1="87.91" y1="1194.88" x2="215.34" y2="1070.07"/>
<line x1="104.61" y1="1337.22" x2="215.34" y2="1070.07"/>
<line x1="104.61" y1="1337.22" x2="413.09" y2="1078.02"/>
<line x1="104.61" y1="1337.22" x2="551.74" y2="1272.18"/>
<line x1="104.61" y1="1337.22" x2="701.43" y2="1370.00"/>
<line x1="111.34" y1="1124.95" x2="124.51" y2="757.60"/>
<line x1="111.34" y1="1124.95" x2="215.34" y2="1070.07"/>
<line x1="124.51" y1="757.60" x2="215.34" y2="1070.07"/>
<line x1="124.51" y1="757.60" x2="229.45" y2="581.71"/>
<line x1="124.51" y1="757.60" x2="277.21" y2="717.91"/>
<line x1="124.51" y1="757.60" x2="299.80" y2="1021.62"/>
<line x1="124.51" y1="757.60" x2="336.99" y2="966.61"/>
<line x1="215.34" y1="1070.07" x2="299.80" y2="1021.62"/>
<line x1="215.34" y1="1070.07" x2="413.09" y2="1078.02"/>
<line x1="220.58" y1="69.09" x2="266.63" y2="94.40"/>
<line x1="220.58" y1="69.09" x2="328.82" y2="78.18"/>
<line x1="220.58" y1="69.09" x2="601.75" y2="41.05"/>
<line x1="229.45" y1="581.71" x2="277.21" y2="717.91"/>
<line x1="229.45" y1="581.71" x2="330.45" y2="484.70"/>
<line x1="229.45" y1="581.71" x2="335.83" y2="718.66"/>
<line x1="229.45" y1="581.71" x2="400.99" y2="636.24"/>
<line x1="266.63" y1="94.40" x2="328.82" y2="78.18"/>
<line x1="266.63" y1="94.40" x2="330.45" y2="484.70"/>
<line x1="266.63" y1="94.40" x2="429.48" y2="192.16"/>
<line x1="277.21" y1="717.91" x2="335.83" y2="718.66"/>
<line x1="277.21" y1="717.91" x2="336.99" y2="966.61"/>
<line x1="277.21" y1="717.91" x2="387.36" y2="917.87"/>
<line x1="299.80" y1="1021.62" x2="336.99" y2="966.61"/>
<line x1="299.80" y1="1021.62" x2="413.09" y2="1078.02"/>
<line x1="328.82" y1="78.18" x2="429.48" y2="192.16"/>
<line x1="328.82" y1="78.18" x2="454.22" y2="78.30"/>
<line x1="328.82" y1="78.18" x2="601.75" y2="41.05"/>
<line x1="330.45" y1="484.70" x2="400.99" y2="636.24"/>
<line x1="330.45" y1="484.70" x2="429.48" y2="192.16"/>
<line x1="330.45" y1="484.70" x2="528.28" y2="288.70"/>
<line x1="330.45" y1="484.70" x2="550.42" y2="640.33"/>
<line x1="330.45" y1="484.70" x2="665.74" y2="449.51"/>
<line x1="335.83" y1="718.66" x2="387.36" y2="917.87"/>
<line x1="335.83" y1="718.66" x2="400.99" y2="636.24"/>
<line x1="335.83" y1="718.66" x2="425.03" y2="676.92"/>
<line x1="335.83" y1="718.66" x2="466.26" y2="860.77"/>
<line x1="335.83" y1="718.66" x2="506.75" y2="752.73"/>
<line x1="336.99" y1="966.61" x2="387.36" y2="917.87"/>
<line x1="336.99" y1="966.61" x2="413.09" y2="1078.02"/>
<line x1="387.36" y1="917.87" x2="413.09" y2="1078.02"/>
<line x1="387.36" y1="917.87" x2="466.26" y2="860.77"/>
<line x1="387.36" y1="917.87" x2="505.52" y2="877.42"/>
<line x1="400.99" y1="636.24" x2="425.03" y2="676.92"/>
<line x1="400.99" y1="636.24" x2="550.42" y2="640.33"/>
<line x1="413.09" y1="1078.02" x2="505.52" y2="877.42"/>
<line x1="413.09" y1="1078.02" x2="513.94" y2="1145.57"/>
<line x1="413.09" y1="1078.02" x2="551.74" y2="1272.18"/>
<line x1="413.09" y1="1078.02" x2="589.21" y2="1010.11"/>
<line x1="425.03" y1="676.92" x2="506.75" y2="752.73"/>
<line x1="425.03" y1="676.92" x2="550.42" y2="640.33"/>
<line x1="429.48" y1="192.16" x2="454.22" y2="78.30"/>
<line x1="429.48" y1="192.16" x2="528.28" y2="288.70"/>
<line x1="429.48" y1="192.16" x2="592.42" y2="97.11"/>
<line x1="454.22" y1="78.30" x2="592.42" y2="97.11"/>
<line x1="454.22" y1="78.30" x2="601.75" y2="41.05"/>
<line x1="466.26" y1="860.77" x2="505.52" y2="877.42"/>
<line x1="466.26" y1="860.77" x2="506.75" y2="752.73"/>
<line x1="466.26" y1="860.77" x2="550.89" y2="793.53"/>
<line x1="505.52" y1="877.42" x2="550.89" y2="793.53"/>
<line x1="505.52" y1="877.42" x2="589.21" y2="1010.11"/>
<line x1="506.75" y1="752.73" x2="550.42" y2="640.33"/>
<line x1="506.75" y1="752.73" x2="550.89" y2="793.53"/>
<line x1="506.75" y1="752.73" x2="625.88" y2="706.97"/>
<line x1="513.94" y1="1145.57" x2="551.74" y2="1272.18"/>
<line x1="513.94" y1="1145.57" x2="589.21" y2="1010.11"/>
<line x1="513.94" y1="1145.57" x2="591.14" y2="1193.62"/>
<line x1="528.28" y1="288.70" x2="592.42" y2="97.11"/>
<line x1="528.28" y1="288.70" x2="660.21" y2="288.55"/>
<line x1="528.28" y1="288.70" x2="665.74" y2="449.51"/>
<line x1="528.28" y1="288.70" x2="681.59" y2="345.48"/>
<line x1="550.42" y1="640.33" x2="625.88" y2="706.97"/>
<line x1="550.42" y1="640.33" x2="665.74" y2="449.51"/>
<line x1="550.42" y1="640.33" x2="694.29" y2="631.67"/>
<line x1="550.89" y1="793.53" x2="589.21" y2="1010.11"/>
<line x1="550.89" y1="793.53" x2="625.88" y2="706.97"/>
<line x1="550.89" y1="793.53" x2="820.11" y2="725.45"/>
<line x1="551.74" y1="1272.18" x2="591.14" y2="1193.62"/>
<line x1="551.74" y1="1272.18" x2="701.43" y2="1370.00"/>
<line x1="589.21" y1="1010.11" x2="591.14" y2="1193.62"/>
<line x1="589.21" y1="1010.11" x2="820.11" y2="725.45"/>
<line x1="589.21" y1="1010.11" x2="869.02" y2="1179.66"/>
<line x1="589.21" y1="1010.11" x2="903.84" y2="849.32"/>
<line x1="589.21" y1="1010.11" x2="946.29" y2="917.75"/>
<line x1="591.14" y1="1193.62" x2="701.43" y2="1370.00"/>
<line x1="591.14" y1="1193.62" x2="869.02" y2="1179.66"/>
<line x1="592.42" y1="97.11" x2="601.75" y2="41.05"/>
<line x1="592.42" y1="97.11" x2="660.21" y2="288.55"/>
<line x1="592.42" y1="97.11" x2="708.05" y2="233.91"/>
<line x1="601.75" y1="41.05" x2="708.05" y2="233.91"/>
<line x1="601.75" y1="41.05" x2="1068.51" y2="30.00"/>
<line x1="625.88" y1="706.97" x2="694.29" y2="631.67"/>
<line x1="625.88" y1="706.97" x2="820.11" y2="725.45"/>
<line x1="660.21" y1="288.55" x2="681.59" y2="345.48"/>
<line x1="660.21" y1="288.55" x2="708.05" y2="233.91"/>
<line x1="660.21" y1="288.55" x2="774.74" y2="270.16"/>
<line x1="665.74" y1="449.51" x2="681.59" y2="345.48"/>
<line x1="665.74" y1="449.51" x2="694.29" y2="631.67"/>
<line x1="665.74" y1="449.51" x2="842.00" y2="531.03"/>
<line x1="665.74" y1="449.51" x2="886.41" y2="481.57"/>
<line x1="681.59" y1="345.48" x2="774.74" y2="270.16"/>
<line x1="681.59" y1="345.48" x2="857.51" y2="305.50"/>
<line x1="681.59" y1="345.48" x2="886.41" y2="481.57"/>
<line x1="694.29" y1="631.67" x2="820.11" y2="725.45"/>
<line x1="694.29" y1="631.67" x2="842.00" y2="531.03"/>
<line x1="701.43" y1="1370.00" x2="869.02" y2="1179.66"/>
<line x1="701.43" y1="1370.00" x2="916.88" y2="1365.52"/>
<line x1="708.05" y1="233.91" x2="774.74" y2="270.16"/>
<line x1="708.05" y1="233.91" x2="1068.51" y2="30.00"/>
<line x1="774.74" y1="270.16" x2="857.51" y2="305.50"/>
<line x1="774.74" y1="270.16" x2="1068.51" y2="30.00"/>
<line x1="820.11" y1="725.45" x2="842.00" y2="531.03"/>
<line x1="820.11" y1="725.45" x2="903.84" y2="849.32"/>
<line x1="820.11" y1="725.45" x2="1052.16" y2="785.02"/>
<line x1="820.11" y1="725.45" x2="1107.34" y2="662.21"/>
<line x1="842.00" y1="531.03" x2="886.41" y2="481.57"/>
<line x1="842.00" y1="531.03" x2="931.04" y2="463.50"/>
<line x1="842.00" y1="531.03" x2="1107.34" y2="662.21"/>
<line x1="857.51" y1="305.50" x2="886.41" y2="481.57"/>
<line x1="857.51" y1="305.50" x2="931.04" y2="463.50"/>
<line x1="857.51" y1="305.50" x2="989.93" y2="446.50"/>
<line x1="857.51" y1="305.50" x2="1068.51" y2="30.00"/>
<line x1="869.02" y1="1179.66" x2="916.88" y2="1365.52"/>
<line x1="869.02" y1="1179.66" x2="946.29" y2="917.75"/>
<line x1="869.02" y1="1179.66" x2="1009.39" y2="1029.34"/>
<line x1="869.02" y1="1179.66" x2="1064.63" y2="1151.61"/>
<line x1="886.41" y1="481.57" x2="931.04" y2="463.50"/>
<line x1="903.84" y1="849.32" x2="946.29" y2="917.75"/>
<line x1="903.84" y1="849.32" x2="1052.16" y2="785.02"/>
<line x1="903.84" y1="849.32" x2="1057.80" y2="843.47"/>
<line x1="916.88" y1="1365.52" x2="1064.63" y2="1151.61"/>
<line x1="916.88" y1="1365.52" x2="1182.45" y2="1119.67"/>
<line x1="931.04" y1="463.50" x2="989.93" y2="446.50"/>
<line x1="931.04" y1="463.50" x2="1107.34" y2="662.21"/>
<line x1="946.29" y1="917.75" x2="1009.39" y2="1029.34"/>
<line x1="946.29" y1="917.75" x2="1057.80" y2="843.47"/>
<line x1="989.93" y1="446.50" x2="1068.51" y2="30.00"/>
<line x1="989.93" y1="446.50" x2="1107.34" y2="662.21"/>
<line x1="989.93" y1="446.50" x2="1164.24" y2="510.24"/>
<line x1="989.93" y1="446.50" x2="1301.82" y2="135.30"/>
<line x1="1009.39" y1="1029.34" x2="1057.80" y2="843.47"/>
<line x1="1009.39" y1="1029.34" x2="1064.63" y2="1151.61"/>
<line x1="1009.39" y1="1029.34" x2="1148.22" y2="1039.96"/>
<line x1="1052.16" y1="785.02" x2="1057.80" y2="843.47"/>
<line x1="1052.16" y1="785.02" x2="1107.34" y2="662.21"/>
<line x1="1052.16" y1="785.02" x2="1134.88" y2="841.64"/>
<line x1="1052.16" y1="785.02" x2="1171.44" y2="674.02"/>
<line x1="1057.80" y1="843.47" x2="1134.88" y2="841.64"/>
<line x1="1057.80" y1="843.47" x2="1148.22" y2="1039.96"/>
<line x1="1064.63" y1="1151.61" x2="1148.22" y2="1039.96"/>
<line x1="1064.63" y1="1151.61" x2="1182.45" y2="1119.67"/>
<line x1="1068.51" y1="30.00" x2="1301.82" y2="135.30"/>
<line x1="1107.34" y1="662.21" x2="1164.24" y2="510.24"/>
<line x1="1107.34" y1="662.21" x2="1171.44" y2="674.02"/>
<line x1="1107.34" y1="662.21" x2="1172.03" y2="622.18"/>
<line x1="1134.88" y1="841.64" x2="1148.22" y2="1039.96"/>
<line x1="1134.88" y1="841.64" x2="1171.44" y2="674.02"/>
<line x1="1134.88" y1="841.64" x2="1256.26" y2="914.18"/>
<line x1="1134.88" y1="841.64" x2="1277.02" y2="851.18"/>
<line x1="1134.88" y1="841.64" x2="1290.05" y2="716.08"/>
<line x1="1148.22" y1="1039.96" x2="1182.45" y2="1119.67"/>
<line x1="1148.22" y1="1039.96" x2="1244.48" y2="1001.54"/>
<line x1="1148.22" y1="1039.96" x2="1256.26" y2="914.18"/>
<line x1="1164.24" y1="510.24" x2="1172.03" y2="622.18"/>
<line x1="1164.24" y1="510.24" x2="1301.82" y2="135.30"/>
<line x1="1164.24" y1="510.24" x2="1352.62" y2="512.79"/>
<line x1="1171.44" y1="674.02" x2="1172.03" y2="622.18"/>
<line x1="1171.44" y1="674.02" x2="1290.05" y2="716.08"/>
<line x1="1172.03" y1="622.18" x2="1290.05" y2="716.08"/>
<line x1="1172.03" y1="622.18" x2="1332.13" y2="663.79"/>
<line x1="1172.03" y1="622.18" x2="1352.62" y2="512.79"/>
<line x1="1182.45" y1="1119.67" x2="1244.48" y2="1001.54"/>
<line x1="1244.48" y1="1001.54" x2="1256.26" y2="914.18"/>
<line x1="1244.48" y1="1001.54" x2="1277.02" y2="851.18"/>
<line x1="1244.48" y1="1001.54" x2="1332.13" y2="663.79"/>
<line x1="1256.26" y1="914.18" x2="1277.02" y2="851.18"/>
<line x1="1277.02" y1="851.18" x2="1290.05" y2="716.08"/>
<line x1="1277.02" y1="851.18" x2="1332.13" y2="663.79"/>
<line x1="1290.05" y1="716.08" x2="1332.13" y2="663.79"/>
<line x1="1301.82" y1="135.30" x2="1352.62" y2="512.79"/>
<line x1="1332.13" y1="663.79" x2="1352.62" y2="512.79"/>
</g>
<g fill="#3C5A49" stroke="#FBFCFD" stroke-width="2.0">
<circle cx="30.00" cy="373.07" r="3.5"/>
<circle cx="87.91" cy="1194.88" r="3.5"/>
<circle cx="104.61" cy="1337.22" r="3.5"/>
<circle cx="111.34" cy="1124.95" r="3.5"/>
<circle cx="124.51" cy="757.60" r="3.5"/>
<circle cx="215.34" cy="1070.07" r="3.5"/>
<circle cx="220.58" cy="69.09" r="3.5"/>
<circle cx="229.45" cy="581.71" r="3.5"/>
<circle cx="266.63" cy="94.40" r="3.5"/>
<circle cx="277.21" cy="717.91" r="3.5"/>
<circle cx="299.80" cy="1021.62" r="3.5"/>
<circle cx="328.82" cy="78.18" r="3.5"/>
<circle cx="330.45" cy="484.70" r="3.5"/>
<circle cx="335.83" cy="718.66" r="3.5"/>
<circle cx="336.99" cy="966.61" r="3.5"/>
<circle cx="387.36" cy="917.87" r="3.5"/>
<circle cx="400.99" cy="636.24" r="3.5"/>
<circle cx="413.09" cy="1078.02" r="3.5"/>
<circle cx="425.03" cy="676.92" r="3.5"/>
<circle cx="429.48" cy="192.16" r="3.5"/>
<circle cx="454.22" cy="78.30" r="3.5"/>
<circle cx="466.26" cy="860.77" r="3.5"/>
<circle cx="505.52" cy="877.42" r="3.5"/>
<circle cx="506.75" cy="752.73" r="3.5"/>
<circle cx="513.94" cy="1145.57" r="3.5"/>
<circle cx="528.28" cy="288.70" r="3.5"/>
<circle cx="550.42" cy="640.33" r="3.5"/>
<circle cx="550.89" cy="793.53" r="3.5"/>
<circle cx="551.74" cy="1272.18" r="3.5"/>
<circle cx="589.21" cy="1010.11" r="3.5"/>
<circle cx="591.14" cy="1193.62" r="3.5"/>
<circle cx="592.42" cy="97.11" r="3.5"/>
<circle cx="601.75" cy="41.05" r="3.5"/>
<circle cx="625.88" cy="706.97" r="3.5"/>
<circle cx="660.21" cy="288.55" r="3.5"/>
<circle cx="665.74" cy="449.51" r="3.5"/>
<circle cx="681.59" cy="345.48" r="3.5"/>
<circle cx="694.29" cy="631.67" r="3.5"/>
<circle cx="701.43" cy="1370.00" r="3.5"/>
<circle cx="708.05" cy="233.91" r="3.5"/>
<circle cx="774.74" cy="270.16" r="3.5"/>
<circle cx="820.11" cy="725.45" r="3.5"/>
<circle cx="842.00" cy="531.03" r="3.5"/>
<circle cx="857.51" cy="305.50" r="3.5"/>
<circle cx="869.02" cy="1179.66" r="3.5"/>
<circle cx="886.41" cy="481.57" r="3.5"/>
<circle cx="903.84" cy="849.32" r="3.5"/>
<circle cx="916.88" cy="1365.52" r="3.5"/>
<circle cx="931.04" cy="463.50" r="3.5"/>
<circle cx="946.29" cy="917.75" r="3.5"/>
<circle cx="989.93" cy="446.50" r="3.5"/>
<circle cx="1009.39" cy="1029.34" r="3.5"/>
<circle cx="1052.16" cy="785.02" r="3.5"/>
<circle cx="1057.80" cy="843.47" r="3.5"/>
<circle cx="1064.63" cy="1151.61" r="3.5"/>
<circle cx="1068.51" cy="30.00" r="3.5"/>
<circle cx="1107.34" cy="662.21" r="3.5"/>
<circle cx="1134.88" cy="841.64" r="3.5"/>
<circle cx="1148.22" cy="1039.96" r="3.5"/>
<circle cx="1164.24" cy="510.24" r="3.5"/>
<circle cx="1171.44" cy="674.02" r="3.5"/>
<circle cx="1172.03" cy="622.18" r="3.5"/>
<circle cx="1182.45" cy="1119.67" r="3.5"/>
<circle cx="1244.48" cy="1001.54" r="3.5"/>
<circle cx="1256.26" cy="914.18" r="3.5"/>
<circle cx="1277.02" cy="851.18" r="3.5"/>
<circle cx="1290.05" cy="716.08" r="3.5"/>
<circle cx="1301.82" cy="135.30" r="3.5"/>
<circle cx="1332.13" cy="663.79" r="3.5"/>
<circle cx="1352.62" cy="512.79" r="3.5"/>
</g>
</g>
</svg>
