<svg xmlns="http://www.w3.org/2000/svg" width="1060" height="534" viewBox="0 0 1060 534">
<rect width="1060" height="534" fill="#FBFCFD"/>
<line x1="40.0" y1="121.4" x2="62.2" y2="130.7" stroke="#1B1B17" stroke-width="1" opacity="0.55"/>
<line x1="62.2" y1="130.7" x2="82.6" y2="63.1" stroke="#1B1B17" stroke-width="1" opacity="0.55"/>
<line x1="82.6" y1="63.1" x2="40.0" y2="121.4" stroke="#1B1B17" stroke-width="1" opacity="0.55"/>
<line x1="90.9" y1="361.9" x2="40.0" y2="121.4" stroke="#1B1B17" stroke-width="1" opacity="0.55"/>
<line x1="40.0" y1="121.4" x2="100.1" y2="453.5" stroke="#1B1B17" stroke-width="1" opacity="0.55"/>
<line x1="100.1" y1="453.5" x2="90.9" y2="361.9" stroke="#1B1B17" stroke-width="1" opacity="0.55"/>
<line x1="40.0" y1="121.4" x2="106.6" y2="213.0" stroke="#1B1B17" stroke-width="1" opacity="0.55"/>
<line x1="106.6" y1="213.0" x2="62.2" y2="130.7" stroke="#1B1B17" stroke-width="1" opacity="0.55"/>
<line x1="100.1" y1="453.5" x2="112.2" y2="423.9" stroke="#1B1B17" stroke-width="1" opacity="0.55"/>
<line x1="112.2" y1="423.9" x2="90.9" y2="361.9" stroke="#1B1B17" stroke-width="1" opacity="0.55"/>
<line x1="106.6" y1="213.0" x2="112.2" y2="193.6" stroke="#1B1B17" stroke-width="1" opacity="0.55"/>
<line x1="112.2" y1="193.6" x2="62.2" y2="130.7" stroke="#1B1B17" stroke-width="1" opacity="0.55"/>
<line x1="90.9" y1="361.9" x2="114.0" y2="250.9" stroke="#1B1B17" stroke-width="1" opacity="0.55"/>
<line x1="114.0" y1="250.9" x2="40.0" y2="121.4" stroke="#1B1B17" stroke-width="1" opacity="0.55"/>
<line x1="114.0" y1="250.9" x2="106.6" y2="213.0" stroke="#1B1B17" stroke-width="1" opacity="0.55"/>
<line x1="100.1" y1="453.5" x2="137.1" y2="444.3" stroke="#1B1B17" stroke-width="1" opacity="0.55"/>
<line x1="137.1" y1="444.3" x2="112.2" y2="423.9" stroke="#1B1B17" stroke-width="1" opacity="0.55"/>
<line x1="112.2" y1="423.9" x2="141.8" y2="386.0" stroke="#1B1B17" stroke-width="1" opacity="0.55"/>
<line x1="141.8" y1="386.0" x2="90.9" y2="361.9" stroke="#1B1B17" stroke-width="1" opacity="0.55"/>
<line x1="141.8" y1="386.0" x2="114.0" y2="250.9" stroke="#1B1B17" stroke-width="1" opacity="0.55"/>
<line x1="137.1" y1="444.3" x2="141.8" y2="386.0" stroke="#1B1B17" stroke-width="1" opacity="0.55"/>
<line x1="62.2" y1="130.7" x2="150.1" y2="142.7" stroke="#1B1B17" stroke-width="1" opacity="0.55"/>
<line x1="150.1" y1="142.7" x2="82.6" y2="63.1" stroke="#1B1B17" stroke-width="1" opacity="0.55"/>
<line x1="112.2" y1="193.6" x2="150.1" y2="142.7" stroke="#1B1B17" stroke-width="1" opacity="0.55"/>
<line x1="100.1" y1="453.5" x2="152.9" y2="447.0" stroke="#1B1B17" stroke-width="1" opacity="0.55"/>
<line x1="152.9" y1="447.0" x2="137.1" y2="444.3" stroke="#1B1B17" stroke-width="1" opacity="0.55"/>
<line x1="152.9" y1="447.0" x2="141.8" y2="386.0" stroke="#1B1B17" stroke-width="1" opacity="0.55"/>
<line x1="152.9" y1="447.0" x2="186.2" y2="429.5" stroke="#1B1B17" stroke-width="1" opacity="0.55"/>
<line x1="186.2" y1="429.5" x2="141.8" y2="386.0" stroke="#1B1B17" stroke-width="1" opacity="0.55"/>
<line x1="106.6" y1="213.0" x2="201.0" y2="170.4" stroke="#1B1B17" stroke-width="1" opacity="0.55"/>
<line x1="201.0" y1="170.4" x2="112.2" y2="193.6" stroke="#1B1B17" stroke-width="1" opacity="0.55"/>
<line x1="114.0" y1="250.9" x2="201.0" y2="170.4" stroke="#1B1B17" stroke-width="1" opacity="0.55"/>
<line x1="201.0" y1="170.4" x2="150.1" y2="142.7" stroke="#1B1B17" stroke-width="1" opacity="0.55"/>
<line x1="186.2" y1="143.6" x2="150.1" y2="142.7" stroke="#1B1B17" stroke-width="1" opacity="0.55"/>
<line x1="201.0" y1="170.4" x2="186.2" y2="143.6" stroke="#1B1B17" stroke-width="1" opacity="0.55"/>
<line x1="141.8" y1="386.0" x2="211.1" y2="388.8" stroke="#1B1B17" stroke-width="1" opacity="0.55"/>
<line x1="211.1" y1="388.8" x2="114.0" y2="250.9" stroke="#1B1B17" stroke-width="1" opacity="0.55"/>
<line x1="186.2" y1="429.5" x2="211.1" y2="388.8" stroke="#1B1B17" stroke-width="1" opacity="0.55"/>
<line x1="150.1" y1="142.7" x2="217.6" y2="64.1" stroke="#1B1B17" stroke-width="1" opacity="0.55"/>
<line x1="217.6" y1="64.1" x2="82.6" y2="63.1" stroke="#1B1B17" stroke-width="1" opacity="0.55"/>
<line x1="186.2" y1="143.6" x2="217.6" y2="64.1" stroke="#1B1B17" stroke-width="1" opacity="0.55"/>
<line x1="217.6" y1="64.1" x2="229.6" y2="40.0" stroke="#1B1B17" stroke-width="1" opacity="0.55"/>
<line x1="229.6" y1="40.0" x2="82.6" y2="63.1" stroke="#1B1B17" stroke-width="1" opacity="0.55"/>
<line x1="201.0" y1="170.4" x2="250.9" y2="127.0" stroke="#1B1B17" stroke-width="1" opacity="0.55"/>
<line x1="250.9" y1="127.0" x2="186.2" y2="143.6" stroke="#1B1B17" stroke-width="1" opacity="0.55"/>
<line x1="250.9" y1="127.0" x2="217.6" y2="64.1" stroke="#1B1B17" stroke-width="1" opacity="0.55"/>
<line x1="201.0" y1="170.4" x2="263.9" y2="169.5" stroke="#1B1B17" stroke-width="1" opacity="0.55"/>
<line x1="263.9" y1="169.5" x2="250.9" y2="127.0" stroke="#1B1B17" stroke-width="1" opacity="0.55"/>
<line x1="217.6" y1="64.1" x2="268.5" y2="89.0" stroke="#1B1B17" stroke-width="1" opacity="0.55"/>
<line x1="268.5" y1="89.0" x2="229.6" y2="40.0" stroke="#1B1B17" stroke-width="1" opacity="0.55"/>
<line x1="250.9" y1="127.0" x2="268.5" y2="89.0" stroke="#1B1B17" stroke-width="1" opacity="0.55"/>
<line x1="211.1" y1="388.8" x2="277.8" y2="301.8" stroke="#1B1B17" stroke-width="1" opacity="0.55"/>
<line x1="277.8" y1="301.8" x2="114.0" y2="250.9" stroke="#1B1B17" stroke-width="1" opacity="0.55"/>
<line x1="114.0" y1="250.9" x2="280.5" y2="293.5" stroke="#1B1B17" stroke-width="1" opacity="0.55"/>
<line x1="280.5" y1="293.5" x2="201.0" y2="170.4" stroke="#1B1B17" stroke-width="1" opacity="0.55"/>
<line x1="277.8" y1="301.8" x2="280.5" y2="293.5" stroke="#1B1B17" stroke-width="1" opacity="0.55"/>
<line x1="280.5" y1="293.5" x2="263.9" y2="169.5" stroke="#1B1B17" stroke-width="1" opacity="0.55"/>
<line x1="152.9" y1="447.0" x2="301.8" y2="401.7" stroke="#1B1B17" stroke-width="1" opacity="0.55"/>
<line x1="301.8" y1="401.7" x2="186.2" y2="429.5" stroke="#1B1B17" stroke-width="1" opacity="0.55"/>
<line x1="301.8" y1="401.7" x2="211.1" y2="388.8" stroke="#1B1B17" stroke-width="1" opacity="0.55"/>
<line x1="301.8" y1="401.7" x2="277.8" y2="301.8" stroke="#1B1B17" stroke-width="1" opacity="0.55"/>
<line x1="280.5" y1="293.5" x2="324.9" y2="279.6" stroke="#1B1B17" stroke-width="1" opacity="0.55"/>
<line x1="324.9" y1="279.6" x2="263.9" y2="169.5" stroke="#1B1B17" stroke-width="1" opacity="0.55"/>
<line x1="277.8" y1="301.8" x2="324.9" y2="279.6" stroke="#1B1B17" stroke-width="1" opacity="0.55"/>
<line x1="263.9" y1="169.5" x2="327.7" y2="149.2" stroke="#1B1B17" stroke-width="1" opacity="0.55"/>
<line x1="327.7" y1="149.2" x2="250.9" y2="127.0" stroke="#1B1B17" stroke-width="1" opacity="0.55"/>
<line x1="327.7" y1="149.2" x2="268.5" y2="89.0" stroke="#1B1B17" stroke-width="1" opacity="0.55"/>
<line x1="324.9" y1="279.6" x2="327.7" y2="149.2" stroke="#1B1B17" stroke-width="1" opacity="0.55"/>
<line x1="152.9" y1="447.0" x2="348.1" y2="397.1" stroke="#1B1B17" stroke-width="1" opacity="0.55"/>
<line x1="348.1" y1="397.1" x2="301.8" y2="401.7" stroke="#1B1B17" stroke-width="1" opacity="0.55"/>
<line x1="348.1" y1="397.1" x2="277.8" y2="301.8" stroke="#1B1B17" stroke-width="1" opacity="0.55"/>
<line x1="348.1" y1="397.1" x2="324.9" y2="279.6" stroke="#1B1B17" stroke-width="1" opacity="0.55"/>
<line x1="324.9" y1="279.6" x2="357.3" y2="159.3" stroke="#1B1B17" stroke-width="1" opacity="0.55"/>
<line x1="357.3" y1="159.3" x2="327.7" y2="149.2" stroke="#1B1B17" stroke-width="1" opacity="0.55"/>
<line x1="324.9" y1="279.6" x2="395.2" y2="232.4" stroke="#1B1B17" stroke-width="1" opacity="0.55"/>
<line x1="395.2" y1="232.4" x2="357.3" y2="159.3" stroke="#1B1B17" stroke-width="1" opacity="0.55"/>
<line x1="268.5" y1="89.0" x2="415.6" y2="70.5" stroke="#1B1B17" stroke-width="1" opacity="0.55"/>
<line x1="415.6" y1="70.5" x2="229.6" y2="40.0" stroke="#1B1B17" stroke-width="1" opacity="0.55"/>
<line x1="327.7" y1="149.2" x2="415.6" y2="70.5" stroke="#1B1B17" stroke-width="1" opacity="0.55"/>
<line x1="357.3" y1="159.3" x2="415.6" y2="70.5" stroke="#1B1B17" stroke-width="1" opacity="0.55"/>
<line x1="395.2" y1="232.4" x2="453.5" y2="92.7" stroke="#1B1B17" stroke-width="1" opacity="0.55"/>
<line x1="453.5" y1="92.7" x2="357.3" y2="159.3" stroke="#1B1B17" stroke-width="1" opacity="0.55"/>
<line x1="453.5" y1="92.7" x2="415.6" y2="70.5" stroke="#1B1B17" stroke-width="1" opacity="0.55"/>
<line x1="442.4" y1="81.6" x2="415.6" y2="70.5" stroke="#1B1B17" stroke-width="1" opacity="0.55"/>
<line x1="453.5" y1="92.7" x2="442.4" y2="81.6" stroke="#1B1B17" stroke-width="1" opacity="0.55"/>
<line x1="348.1" y1="397.1" x2="456.3" y2="361.0" stroke="#1B1B17" stroke-width="1" opacity="0.55"/>
<line x1="456.3" y1="361.0" x2="324.9" y2="279.6" stroke="#1B1B17" stroke-width="1" opacity="0.55"/>
<line x1="456.3" y1="361.0" x2="395.2" y2="232.4" stroke="#1B1B17" stroke-width="1" opacity="0.55"/>
<line x1="456.3" y1="361.0" x2="453.5" y2="92.7" stroke="#1B1B17" stroke-width="1" opacity="0.55"/>
<line x1="415.6" y1="70.5" x2="460.0" y2="49.3" stroke="#1B1B17" stroke-width="1" opacity="0.55"/>
<line x1="460.0" y1="49.3" x2="229.6" y2="40.0" stroke="#1B1B17" stroke-width="1" opacity="0.55"/>
<line x1="442.4" y1="81.6" x2="460.0" y2="49.3" stroke="#1B1B17" stroke-width="1" opacity="0.55"/>
<line x1="453.5" y1="92.7" x2="460.0" y2="49.3" stroke="#1B1B17" stroke-width="1" opacity="0.55"/>
<line x1="456.3" y1="361.0" x2="460.0" y2="49.3" stroke="#1B1B17" stroke-width="1" opacity="0.55"/>
<circle cx="40.0" cy="121.4" r="3.2" fill="#3C5A49"/>
<circle cx="62.2" cy="130.7" r="3.2" fill="#3C5A49"/>
<circle cx="82.6" cy="63.1" r="3.2" fill="#3C5A49"/>
<circle cx="90.9" cy="361.9" r="3.2" fill="#3C5A49"/>
<circle cx="100.1" cy="453.5" r="3.2" fill="#3C5A49"/>
<circle cx="106.6" cy="213.0" r="3.2" fill="#3C5A49"/>
<circle cx="112.2" cy="423.9" r="3.2" fill="#3C5A49"/>
<circle cx="112.2" cy="193.6" r="3.2" fill="#3C5A49"/>
<circle cx="114.0" cy="250.9" r="3.2" fill="#3C5A49"/>
<circle cx="137.1" cy="444.3" r="3.2" fill="#3C5A49"/>
<circle cx="141.8" cy="386.0" r="3.2" fill="#3C5A49"/>
<circle cx="150.1" cy="142.7" r="3.2" fill="#3C5A49"/>
<circle cx="152.9" cy="447.0" r="3.2" fill="#3C5A49"/>
<circle cx="186.2" cy="429.5" r="3.2" fill="#3C5A49"/>
<circle cx="186.2" cy="143.6" r="3.2" fill="#3C5A49"/>
<circle cx="201.0" cy="170.4" r="3.2" fill="#3C5A49"/>
<circle cx="211.1" cy="388.8" r="3.2" fill="#3C5A49"/>
<circle cx="217.6" cy="64.1" r="3.2" fill="#3C5A49"/>
<circle cx="229.6" cy="40.0" r="3.2" fill="#3C5A49"/>
<circle cx="250.9" cy="127.0" r="3.2" fill="#3C5A49"/>
<circle cx="263.9" cy="169.5" r="3.2" fill="#3C5A49"/>
<circle cx="268.5" cy="89.0" r="3.2" fill="#3C5A49"/>
<circle cx="277.8" cy="301.8" r="3.2" fill="#3C5A49"/>
<circle cx="280.5" cy="293.5" r="3.2" fill="#3C5A49"/>
<circle cx="301.8" cy="401.7" r="3.2" fill="#3C5A49"/>
<circle cx="324.9" cy="279.6" r="3.2" fill="#3C5A49"/>
<circle cx="327.7" cy="149.2" r="3.2" fill="#3C5A49"/>
<circle cx="348.1" cy="397.1" r="3.2" fill="#3C5A49"/>
<circle cx="357.3" cy="159.3" r="3.2" fill="#3C5A49"/>
<circle cx="395.2" cy="232.4" r="3.2" fill="#3C5A49"/>
<circle cx="415.6" cy="70.5" r="3.2" fill="#3C5A49"/>
<circle cx="442.4" cy="81.6" r="3.2" fill="#3C5A49"/>
<circle cx="453.5" cy="92.7" r="3.2" fill="#3C5A49"/>
<circle cx="456.3" cy="361.0" r="3.2" fill="#3C5A49"/>
<circle cx="460.0" cy="49.3" r="3.2" fill="#3C5A49"/>
<text x="250.0" y="524" font-family="monospace" font-size="15" fill="#9C978C" text-anchor="middle">Delaunay triangulation (35 sites, 60 triangles)</text>
<line x1="624.3" y1="94.4" x2="576.8" y2="208.3" stroke="#1B1B17" stroke-width="1" opacity="0.55"/>
<line x1="624.3" y1="94.4" x2="670.0" y2="108.2" stroke="#1B1B17" stroke-width="1" opacity="0.55"/>
<line x1="-904.4" y1="565.3" x2="489.6" y2="270.4" stroke="#1B1B17" stroke-width="1" opacity="0.55"/>
<line x1="-904.4" y1="565.3" x2="602.9" y2="413.0" stroke="#1B1B17" stroke-width="1" opacity="0.55"/>
<line x1="576.8" y1="208.3" x2="498.0" y2="265.6" stroke="#1B1B17" stroke-width="1" opacity="0.55"/>
<line x1="576.8" y1="208.3" x2="614.9" y2="187.7" stroke="#1B1B17" stroke-width="1" opacity="0.55"/>
<line x1="602.9" y1="413.0" x2="677.2" y2="443.2" stroke="#1B1B17" stroke-width="1" opacity="0.55"/>
<line x1="602.9" y1="413.0" x2="668.5" y2="390.5" stroke="#1B1B17" stroke-width="1" opacity="0.55"/>
<line x1="614.9" y1="187.7" x2="726.3" y2="219.6" stroke="#1B1B17" stroke-width="1" opacity="0.55"/>
<line x1="614.9" y1="187.7" x2="664.6" y2="148.3" stroke="#1B1B17" stroke-width="1" opacity="0.55"/>
<line x1="489.6" y1="270.4" x2="704.1" y2="315.1" stroke="#1B1B17" stroke-width="1" opacity="0.55"/>
<line x1="489.6" y1="270.4" x2="498.0" y2="265.6" stroke="#1B1B17" stroke-width="1" opacity="0.55"/>
<line x1="498.0" y1="265.6" x2="727.0" y2="220.9" stroke="#1B1B17" stroke-width="1" opacity="0.55"/>
<line x1="677.2" y1="443.2" x2="693.8" y2="509.4" stroke="#1B1B17" stroke-width="1" opacity="0.55"/>
<line x1="677.2" y1="443.2" x2="700.1" y2="415.2" stroke="#1B1B17" stroke-width="1" opacity="0.55"/>
<line x1="668.5" y1="390.5" x2="700.1" y2="415.2" stroke="#1B1B17" stroke-width="1" opacity="0.55"/>
<line x1="668.5" y1="390.5" x2="704.1" y2="315.1" stroke="#1B1B17" stroke-width="1" opacity="0.55"/>
<line x1="704.1" y1="315.1" x2="739.6" y2="307.8" stroke="#1B1B17" stroke-width="1" opacity="0.55"/>
<line x1="700.1" y1="415.2" x2="710.2" y2="416.0" stroke="#1B1B17" stroke-width="1" opacity="0.55"/>
<line x1="670.0" y1="108.2" x2="664.6" y2="148.3" stroke="#1B1B17" stroke-width="1" opacity="0.55"/>
<line x1="670.0" y1="108.2" x2="710.0" y2="74.3" stroke="#1B1B17" stroke-width="1" opacity="0.55"/>
<line x1="664.6" y1="148.3" x2="718.2" y2="188.3" stroke="#1B1B17" stroke-width="1" opacity="0.55"/>
<line x1="693.8" y1="509.4" x2="710.2" y2="416.0" stroke="#1B1B17" stroke-width="1" opacity="0.55"/>
<line x1="710.2" y1="416.0" x2="717.1" y2="414.7" stroke="#1B1B17" stroke-width="1" opacity="0.55"/>
<line x1="717.1" y1="414.7" x2="876.1" y2="715.9" stroke="#1B1B17" stroke-width="1" opacity="0.55"/>
<line x1="717.1" y1="414.7" x2="736.1" y2="395.3" stroke="#1B1B17" stroke-width="1" opacity="0.55"/>
<line x1="726.3" y1="219.6" x2="727.0" y2="220.9" stroke="#1B1B17" stroke-width="1" opacity="0.55"/>
<line x1="726.3" y1="219.6" x2="718.2" y2="188.3" stroke="#1B1B17" stroke-width="1" opacity="0.55"/>
<line x1="727.0" y1="220.9" x2="761.0" y2="257.7" stroke="#1B1B17" stroke-width="1" opacity="0.55"/>
<line x1="718.2" y1="188.3" x2="727.4" y2="171.5" stroke="#1B1B17" stroke-width="1" opacity="0.55"/>
<line x1="727.4" y1="171.5" x2="729.5" y2="91.0" stroke="#1B1B17" stroke-width="1" opacity="0.55"/>
<line x1="727.4" y1="171.5" x2="780.3" y2="142.3" stroke="#1B1B17" stroke-width="1" opacity="0.55"/>
<line x1="739.6" y1="307.8" x2="736.1" y2="395.3" stroke="#1B1B17" stroke-width="1" opacity="0.55"/>
<line x1="739.6" y1="307.8" x2="747.9" y2="302.0" stroke="#1B1B17" stroke-width="1" opacity="0.55"/>
<line x1="736.1" y1="395.3" x2="810.0" y2="440.6" stroke="#1B1B17" stroke-width="1" opacity="0.55"/>
<line x1="710.0" y1="74.3" x2="729.5" y2="91.0" stroke="#1B1B17" stroke-width="1" opacity="0.55"/>
<line x1="710.0" y1="74.3" x2="710.4" y2="15.4" stroke="#1B1B17" stroke-width="1" opacity="0.55"/>
<line x1="729.5" y1="91.0" x2="771.4" y2="107.6" stroke="#1B1B17" stroke-width="1" opacity="0.55"/>
<line x1="710.4" y1="15.4" x2="808.9" y2="64.7" stroke="#1B1B17" stroke-width="1" opacity="0.55"/>
<line x1="780.3" y1="142.3" x2="792.2" y2="155.9" stroke="#1B1B17" stroke-width="1" opacity="0.55"/>
<line x1="780.3" y1="142.3" x2="771.4" y2="107.6" stroke="#1B1B17" stroke-width="1" opacity="0.55"/>
<line x1="771.4" y1="107.6" x2="793.6" y2="95.9" stroke="#1B1B17" stroke-width="1" opacity="0.55"/>
<line x1="792.2" y1="155.9" x2="793.4" y2="236.7" stroke="#1B1B17" stroke-width="1" opacity="0.55"/>
<line x1="792.2" y1="155.9" x2="849.2" y2="138.6" stroke="#1B1B17" stroke-width="1" opacity="0.55"/>
<line x1="808.9" y1="64.7" x2="793.6" y2="95.9" stroke="#1B1B17" stroke-width="1" opacity="0.55"/>
<line x1="808.9" y1="64.7" x2="891.9" y2="-1.1" stroke="#1B1B17" stroke-width="1" opacity="0.55"/>
<line x1="793.6" y1="95.9" x2="853.5" y2="123.6" stroke="#1B1B17" stroke-width="1" opacity="0.55"/>
<line x1="747.9" y1="302.0" x2="821.7" y2="358.5" stroke="#1B1B17" stroke-width="1" opacity="0.55"/>
<line x1="747.9" y1="302.0" x2="757.7" y2="270.5" stroke="#1B1B17" stroke-width="1" opacity="0.55"/>
<line x1="761.0" y1="257.7" x2="757.7" y2="270.5" stroke="#1B1B17" stroke-width="1" opacity="0.55"/>
<line x1="761.0" y1="257.7" x2="793.4" y2="236.7" stroke="#1B1B17" stroke-width="1" opacity="0.55"/>
<line x1="757.7" y1="270.5" x2="869.3" y2="307.7" stroke="#1B1B17" stroke-width="1" opacity="0.55"/>
<line x1="793.4" y1="236.7" x2="845.0" y2="229.8" stroke="#1B1B17" stroke-width="1" opacity="0.55"/>
<line x1="876.1" y1="715.9" x2="936.4" y2="914.2" stroke="#1B1B17" stroke-width="1" opacity="0.55"/>
<line x1="876.1" y1="715.9" x2="810.0" y2="440.6" stroke="#1B1B17" stroke-width="1" opacity="0.55"/>
<line x1="810.0" y1="440.6" x2="821.7" y2="358.5" stroke="#1B1B17" stroke-width="1" opacity="0.55"/>
<line x1="821.7" y1="358.5" x2="879.5" y2="344.6" stroke="#1B1B17" stroke-width="1" opacity="0.55"/>
<line x1="845.0" y1="229.8" x2="869.3" y2="307.7" stroke="#1B1B17" stroke-width="1" opacity="0.55"/>
<line x1="845.0" y1="229.8" x2="873.3" y2="214.1" stroke="#1B1B17" stroke-width="1" opacity="0.55"/>
<line x1="869.3" y1="307.7" x2="884.8" y2="340.6" stroke="#1B1B17" stroke-width="1" opacity="0.55"/>
<line x1="849.2" y1="138.6" x2="873.3" y2="214.1" stroke="#1B1B17" stroke-width="1" opacity="0.55"/>
<line x1="849.2" y1="138.6" x2="853.5" y2="123.6" stroke="#1B1B17" stroke-width="1" opacity="0.55"/>
<line x1="853.5" y1="123.6" x2="901.6" y2="76.3" stroke="#1B1B17" stroke-width="1" opacity="0.55"/>
<line x1="873.3" y1="214.1" x2="881.9" y2="214.3" stroke="#1B1B17" stroke-width="1" opacity="0.55"/>
<line x1="936.4" y1="914.2" x2="879.5" y2="344.6" stroke="#1B1B17" stroke-width="1" opacity="0.55"/>
<line x1="879.5" y1="344.6" x2="884.8" y2="340.6" stroke="#1B1B17" stroke-width="1" opacity="0.55"/>
<line x1="884.8" y1="340.6" x2="945.4" y2="328.7" stroke="#1B1B17" stroke-width="1" opacity="0.55"/>
<line x1="881.9" y1="214.3" x2="894.3" y2="217.6" stroke="#1B1B17" stroke-width="1" opacity="0.55"/>
<line x1="881.9" y1="214.3" x2="921.6" y2="98.6" stroke="#1B1B17" stroke-width="1" opacity="0.55"/>
<line x1="894.3" y1="217.6" x2="956.7" y2="310.5" stroke="#1B1B17" stroke-width="1" opacity="0.55"/>
<line x1="894.3" y1="217.6" x2="993.3" y2="166.3" stroke="#1B1B17" stroke-width="1" opacity="0.55"/>
<line x1="891.9" y1="-1.1" x2="901.6" y2="76.3" stroke="#1B1B17" stroke-width="1" opacity="0.55"/>
<line x1="891.9" y1="-1.1" x2="911.4" y2="-120.3" stroke="#1B1B17" stroke-width="1" opacity="0.55"/>
<line x1="901.6" y1="76.3" x2="921.6" y2="98.6" stroke="#1B1B17" stroke-width="1" opacity="0.55"/>
<line x1="921.6" y1="98.6" x2="967.1" y2="128.5" stroke="#1B1B17" stroke-width="1" opacity="0.55"/>
<line x1="993.3" y1="166.3" x2="1135.5" y2="225.6" stroke="#1B1B17" stroke-width="1" opacity="0.55"/>
<line x1="993.3" y1="166.3" x2="967.1" y2="128.5" stroke="#1B1B17" stroke-width="1" opacity="0.55"/>
<line x1="967.1" y1="128.5" x2="967.8" y2="127.4" stroke="#1B1B17" stroke-width="1" opacity="0.55"/>
<line x1="967.8" y1="127.4" x2="996.7" y2="57.6" stroke="#1B1B17" stroke-width="1" opacity="0.55"/>
<line x1="967.8" y1="127.4" x2="1023.2" y2="72.0" stroke="#1B1B17" stroke-width="1" opacity="0.55"/>
<line x1="945.4" y1="328.7" x2="956.7" y2="310.5" stroke="#1B1B17" stroke-width="1" opacity="0.55"/>
<line x1="956.7" y1="310.5" x2="1135.5" y2="225.6" stroke="#1B1B17" stroke-width="1" opacity="0.55"/>
<line x1="1135.5" y1="225.6" x2="1995.3" y2="216.7" stroke="#1B1B17" stroke-width="1" opacity="0.55"/>
<line x1="911.4" y1="-120.3" x2="996.7" y2="57.6" stroke="#1B1B17" stroke-width="1" opacity="0.55"/>
<line x1="996.7" y1="57.6" x2="1023.2" y2="72.0" stroke="#1B1B17" stroke-width="1" opacity="0.55"/>
<line x1="1023.2" y1="72.0" x2="1995.3" y2="216.7" stroke="#1B1B17" stroke-width="1" opacity="0.55"/>
<circle cx="600.0" cy="121.4" r="3.2" fill="#3C5A49"/>
<circle cx="622.2" cy="130.7" r="3.2" fill="#3C5A49"/>
<circle cx="642.6" cy="63.1" r="3.2" fill="#3C5A49"/>
<circle cx="650.9" cy="361.9" r="3.2" fill="#3C5A49"/>
<circle cx="660.1" cy="453.5" r="3.2" fill="#3C5A49"/>
<circle cx="666.6" cy="213.0" r="3.2" fill="#3C5A49"/>
<circle cx="672.2" cy="423.9" r="3.2" fill="#3C5A49"/>
<circle cx="672.2" cy="193.6" r="3.2" fill="#3C5A49"/>
<circle cx="674.0" cy="250.9" r="3.2" fill="#3C5A49"/>
<circle cx="697.1" cy="444.3" r="3.2" fill="#3C5A49"/>
<circle cx="701.8" cy="386.0" r="3.2" fill="#3C5A49"/>
<circle cx="710.1" cy="142.7" r="3.2" fill="#3C5A49"/>
<circle cx="712.9" cy="447.0" r="3.2" fill="#3C5A49"/>
<circle cx="746.2" cy="429.5" r="3.2" fill="#3C5A49"/>
<circle cx="746.2" cy="143.6" r="3.2" fill="#3C5A49"/>
<circle cx="761.0" cy="170.4" r="3.2" fill="#3C5A49"/>
<circle cx="771.1" cy="388.8" r="3.2" fill="#3C5A49"/>
<circle cx="777.6" cy="64.1" r="3.2" fill="#3C5A49"/>
<circle cx="789.6" cy="40.0" r="3.2" fill="#3C5A49"/>
<circle cx="810.9" cy="127.0" r="3.2" fill="#3C5A49"/>
<circle cx="823.9" cy="169.5" r="3.2" fill="#3C5A49"/>
<circle cx="828.5" cy="89.0" r="3.2" fill="#3C5A49"/>
<circle cx="837.8" cy="301.8" r="3.2" fill="#3C5A49"/>
<circle cx="840.5" cy="293.5" r="3.2" fill="#3C5A49"/>
<circle cx="861.8" cy="401.7" r="3.2" fill="#3C5A49"/>
<circle cx="884.9" cy="279.6" r="3.2" fill="#3C5A49"/>
<circle cx="887.7" cy="149.2" r="3.2" fill="#3C5A49"/>
<circle cx="908.1" cy="397.1" r="3.2" fill="#3C5A49"/>
<circle cx="917.3" cy="159.3" r="3.2" fill="#3C5A49"/>
<circle cx="955.2" cy="232.4" r="3.2" fill="#3C5A49"/>
<circle cx="975.6" cy="70.5" r="3.2" fill="#3C5A49"/>
<circle cx="1002.4" cy="81.6" r="3.2" fill="#3C5A49"/>
<circle cx="1013.5" cy="92.7" r="3.2" fill="#3C5A49"/>
<circle cx="1016.3" cy="361.0" r="3.2" fill="#3C5A49"/>
<circle cx="1020.0" cy="49.3" r="3.2" fill="#3C5A49"/>
<text x="810.0" y="524" font-family="monospace" font-size="15" fill="#9C978C" text-anchor="middle">Voronoi diagram (same sites, 86 edges)</text>
</svg>