<svg xmlns="http://www.w3.org/2000/svg" width="1000" height="985" viewBox="0 0 1000 985">
<rect width="1000" height="985" fill="#FBFCFD"/>
<clipPath id="c"><rect width="1000" height="985"/></clipPath>
<g clip-path="url(#c)">
<line x1="69.0" y1="235.0" x2="114.5" y2="254.0" stroke="#CDC8BA" stroke-width="1.1"/>
<line x1="114.5" y1="254.0" x2="156.3" y2="115.4" stroke="#CDC8BA" stroke-width="1.1"/>
<line x1="156.3" y1="115.4" x2="69.0" y2="235.0" stroke="#CDC8BA" stroke-width="1.1"/>
<line x1="173.4" y1="728.7" x2="69.0" y2="235.0" stroke="#CDC8BA" stroke-width="1.1"/>
<line x1="69.0" y1="235.0" x2="192.4" y2="916.7" stroke="#CDC8BA" stroke-width="1.1"/>
<line x1="192.4" y1="916.7" x2="173.4" y2="728.7" stroke="#CDC8BA" stroke-width="1.1"/>
<line x1="69.0" y1="235.0" x2="205.7" y2="423.0" stroke="#CDC8BA" stroke-width="1.1"/>
<line x1="205.7" y1="423.0" x2="114.5" y2="254.0" stroke="#CDC8BA" stroke-width="1.1"/>
<line x1="192.4" y1="916.7" x2="217.1" y2="855.9" stroke="#CDC8BA" stroke-width="1.1"/>
<line x1="217.1" y1="855.9" x2="173.4" y2="728.7" stroke="#CDC8BA" stroke-width="1.1"/>
<line x1="205.7" y1="423.0" x2="217.1" y2="383.1" stroke="#CDC8BA" stroke-width="1.1"/>
<line x1="217.1" y1="383.1" x2="114.5" y2="254.0" stroke="#CDC8BA" stroke-width="1.1"/>
<line x1="173.4" y1="728.7" x2="220.9" y2="500.8" stroke="#CDC8BA" stroke-width="1.1"/>
<line x1="220.9" y1="500.8" x2="69.0" y2="235.0" stroke="#CDC8BA" stroke-width="1.1"/>
<line x1="220.9" y1="500.8" x2="205.7" y2="423.0" stroke="#CDC8BA" stroke-width="1.1"/>
<line x1="192.4" y1="916.7" x2="268.3" y2="897.7" stroke="#CDC8BA" stroke-width="1.1"/>
<line x1="268.3" y1="897.7" x2="217.1" y2="855.9" stroke="#CDC8BA" stroke-width="1.1"/>
<line x1="217.1" y1="855.9" x2="277.8" y2="778.1" stroke="#CDC8BA" stroke-width="1.1"/>
<line x1="277.8" y1="778.1" x2="173.4" y2="728.7" stroke="#CDC8BA" stroke-width="1.1"/>
<line x1="277.8" y1="778.1" x2="220.9" y2="500.8" stroke="#CDC8BA" stroke-width="1.1"/>
<line x1="268.3" y1="897.7" x2="277.8" y2="778.1" stroke="#CDC8BA" stroke-width="1.1"/>
<line x1="114.5" y1="254.0" x2="294.9" y2="278.7" stroke="#CDC8BA" stroke-width="1.1"/>
<line x1="294.9" y1="278.7" x2="156.3" y2="115.4" stroke="#CDC8BA" stroke-width="1.1"/>
<line x1="217.1" y1="383.1" x2="294.9" y2="278.7" stroke="#CDC8BA" stroke-width="1.1"/>
<line x1="192.4" y1="916.7" x2="300.6" y2="903.4" stroke="#CDC8BA" stroke-width="1.1"/>
<line x1="300.6" y1="903.4" x2="268.3" y2="897.7" stroke="#CDC8BA" stroke-width="1.1"/>
<line x1="300.6" y1="903.4" x2="277.8" y2="778.1" stroke="#CDC8BA" stroke-width="1.1"/>
<line x1="300.6" y1="903.4" x2="369.0" y2="867.3" stroke="#CDC8BA" stroke-width="1.1"/>
<line x1="369.0" y1="867.3" x2="277.8" y2="778.1" stroke="#CDC8BA" stroke-width="1.1"/>
<line x1="205.7" y1="423.0" x2="399.4" y2="335.6" stroke="#CDC8BA" stroke-width="1.1"/>
<line x1="399.4" y1="335.6" x2="217.1" y2="383.1" stroke="#CDC8BA" stroke-width="1.1"/>
<line x1="220.9" y1="500.8" x2="399.4" y2="335.6" stroke="#CDC8BA" stroke-width="1.1"/>
<line x1="399.4" y1="335.6" x2="294.9" y2="278.7" stroke="#CDC8BA" stroke-width="1.1"/>
<line x1="369.0" y1="280.6" x2="294.9" y2="278.7" stroke="#CDC8BA" stroke-width="1.1"/>
<line x1="399.4" y1="335.6" x2="369.0" y2="280.6" stroke="#CDC8BA" stroke-width="1.1"/>
<line x1="277.8" y1="778.1" x2="420.2" y2="783.8" stroke="#CDC8BA" stroke-width="1.1"/>
<line x1="420.2" y1="783.8" x2="220.9" y2="500.8" stroke="#CDC8BA" stroke-width="1.1"/>
<line x1="369.0" y1="867.3" x2="420.2" y2="783.8" stroke="#CDC8BA" stroke-width="1.1"/>
<line x1="294.9" y1="278.7" x2="433.5" y2="117.3" stroke="#CDC8BA" stroke-width="1.1"/>
<line x1="433.5" y1="117.3" x2="156.3" y2="115.4" stroke="#CDC8BA" stroke-width="1.1"/>
<line x1="369.0" y1="280.6" x2="433.5" y2="117.3" stroke="#CDC8BA" stroke-width="1.1"/>
<line x1="433.5" y1="117.3" x2="458.2" y2="67.9" stroke="#CDC8BA" stroke-width="1.1"/>
<line x1="458.2" y1="67.9" x2="156.3" y2="115.4" stroke="#CDC8BA" stroke-width="1.1"/>
<line x1="399.4" y1="335.6" x2="501.9" y2="246.4" stroke="#CDC8BA" stroke-width="1.1"/>
<line x1="501.9" y1="246.4" x2="369.0" y2="280.6" stroke="#CDC8BA" stroke-width="1.1"/>
<line x1="501.9" y1="246.4" x2="433.5" y2="117.3" stroke="#CDC8BA" stroke-width="1.1"/>
<line x1="399.4" y1="335.6" x2="528.5" y2="333.7" stroke="#CDC8BA" stroke-width="1.1"/>
<line x1="528.5" y1="333.7" x2="501.9" y2="246.4" stroke="#CDC8BA" stroke-width="1.1"/>
<line x1="433.5" y1="117.3" x2="538.0" y2="168.5" stroke="#CDC8BA" stroke-width="1.1"/>
<line x1="538.0" y1="168.5" x2="458.2" y2="67.9" stroke="#CDC8BA" stroke-width="1.1"/>
<line x1="501.9" y1="246.4" x2="538.0" y2="168.5" stroke="#CDC8BA" stroke-width="1.1"/>
<line x1="420.2" y1="783.8" x2="557.0" y2="605.3" stroke="#CDC8BA" stroke-width="1.1"/>
<line x1="557.0" y1="605.3" x2="220.9" y2="500.8" stroke="#CDC8BA" stroke-width="1.1"/>
<line x1="220.9" y1="500.8" x2="562.7" y2="588.2" stroke="#CDC8BA" stroke-width="1.1"/>
<line x1="562.7" y1="588.2" x2="399.4" y2="335.6" stroke="#CDC8BA" stroke-width="1.1"/>
<line x1="557.0" y1="605.3" x2="562.7" y2="588.2" stroke="#CDC8BA" stroke-width="1.1"/>
<line x1="562.7" y1="588.2" x2="528.5" y2="333.7" stroke="#CDC8BA" stroke-width="1.1"/>
<line x1="300.6" y1="903.4" x2="606.3" y2="810.3" stroke="#CDC8BA" stroke-width="1.1"/>
<line x1="606.3" y1="810.3" x2="369.0" y2="867.3" stroke="#CDC8BA" stroke-width="1.1"/>
<line x1="606.3" y1="810.3" x2="420.2" y2="783.8" stroke="#CDC8BA" stroke-width="1.1"/>
<line x1="606.3" y1="810.3" x2="557.0" y2="605.3" stroke="#CDC8BA" stroke-width="1.1"/>
<line x1="562.7" y1="588.2" x2="653.8" y2="559.7" stroke="#CDC8BA" stroke-width="1.1"/>
<line x1="653.8" y1="559.7" x2="528.5" y2="333.7" stroke="#CDC8BA" stroke-width="1.1"/>
<line x1="557.0" y1="605.3" x2="653.8" y2="559.7" stroke="#CDC8BA" stroke-width="1.1"/>
<line x1="528.5" y1="333.7" x2="659.5" y2="292.0" stroke="#CDC8BA" stroke-width="1.1"/>
<line x1="659.5" y1="292.0" x2="501.9" y2="246.4" stroke="#CDC8BA" stroke-width="1.1"/>
<line x1="659.5" y1="292.0" x2="538.0" y2="168.5" stroke="#CDC8BA" stroke-width="1.1"/>
<line x1="653.8" y1="559.7" x2="659.5" y2="292.0" stroke="#CDC8BA" stroke-width="1.1"/>
<line x1="300.6" y1="903.4" x2="701.3" y2="800.9" stroke="#CDC8BA" stroke-width="1.1"/>
<line x1="701.3" y1="800.9" x2="606.3" y2="810.3" stroke="#CDC8BA" stroke-width="1.1"/>
<line x1="701.3" y1="800.9" x2="557.0" y2="605.3" stroke="#CDC8BA" stroke-width="1.1"/>
<line x1="701.3" y1="800.9" x2="653.8" y2="559.7" stroke="#CDC8BA" stroke-width="1.1"/>
<line x1="653.8" y1="559.7" x2="720.3" y2="312.9" stroke="#CDC8BA" stroke-width="1.1"/>
<line x1="720.3" y1="312.9" x2="659.5" y2="292.0" stroke="#CDC8BA" stroke-width="1.1"/>
<line x1="653.8" y1="559.7" x2="798.1" y2="462.9" stroke="#CDC8BA" stroke-width="1.1"/>
<line x1="798.1" y1="462.9" x2="720.3" y2="312.9" stroke="#CDC8BA" stroke-width="1.1"/>
<line x1="538.0" y1="168.5" x2="839.9" y2="130.6" stroke="#CDC8BA" stroke-width="1.1"/>
<line x1="839.9" y1="130.6" x2="458.2" y2="67.9" stroke="#CDC8BA" stroke-width="1.1"/>
<line x1="659.5" y1="292.0" x2="839.9" y2="130.6" stroke="#CDC8BA" stroke-width="1.1"/>
<line x1="720.3" y1="312.9" x2="839.9" y2="130.6" stroke="#CDC8BA" stroke-width="1.1"/>
<line x1="798.1" y1="462.9" x2="917.7" y2="176.1" stroke="#CDC8BA" stroke-width="1.1"/>
<line x1="917.7" y1="176.1" x2="720.3" y2="312.9" stroke="#CDC8BA" stroke-width="1.1"/>
<line x1="917.7" y1="176.1" x2="839.9" y2="130.6" stroke="#CDC8BA" stroke-width="1.1"/>
<line x1="895.0" y1="153.3" x2="839.9" y2="130.6" stroke="#CDC8BA" stroke-width="1.1"/>
<line x1="917.7" y1="176.1" x2="895.0" y2="153.3" stroke="#CDC8BA" stroke-width="1.1"/>
<line x1="701.3" y1="800.9" x2="923.4" y2="726.8" stroke="#CDC8BA" stroke-width="1.1"/>
<line x1="923.4" y1="726.8" x2="653.8" y2="559.7" stroke="#CDC8BA" stroke-width="1.1"/>
<line x1="923.4" y1="726.8" x2="798.1" y2="462.9" stroke="#CDC8BA" stroke-width="1.1"/>
<line x1="923.4" y1="726.8" x2="917.7" y2="176.1" stroke="#CDC8BA" stroke-width="1.1"/>
<line x1="839.9" y1="130.6" x2="931.0" y2="86.9" stroke="#CDC8BA" stroke-width="1.1"/>
<line x1="931.0" y1="86.9" x2="458.2" y2="67.9" stroke="#CDC8BA" stroke-width="1.1"/>
<line x1="895.0" y1="153.3" x2="931.0" y2="86.9" stroke="#CDC8BA" stroke-width="1.1"/>
<line x1="917.7" y1="176.1" x2="931.0" y2="86.9" stroke="#CDC8BA" stroke-width="1.1"/>
<line x1="923.4" y1="726.8" x2="931.0" y2="86.9" stroke="#CDC8BA" stroke-width="1.1"/>
<line x1="118.8" y1="179.7" x2="21.4" y2="413.3" stroke="#1B1B17" stroke-width="1.7" stroke-linecap="round"/>
<line x1="118.8" y1="179.7" x2="212.7" y2="208.0" stroke="#1B1B17" stroke-width="1.7" stroke-linecap="round"/>
<line x1="-3019.0" y1="1146.1" x2="-157.7" y2="540.8" stroke="#1B1B17" stroke-width="1.7" stroke-linecap="round"/>
<line x1="-3019.0" y1="1146.1" x2="75.0" y2="833.6" stroke="#1B1B17" stroke-width="1.7" stroke-linecap="round"/>
<line x1="21.4" y1="413.3" x2="-140.3" y2="530.9" stroke="#1B1B17" stroke-width="1.7" stroke-linecap="round"/>
<line x1="21.4" y1="413.3" x2="99.6" y2="371.1" stroke="#1B1B17" stroke-width="1.7" stroke-linecap="round"/>
<line x1="75.0" y1="833.6" x2="227.5" y2="895.5" stroke="#1B1B17" stroke-width="1.7" stroke-linecap="round"/>
<line x1="75.0" y1="833.6" x2="209.5" y2="787.4" stroke="#1B1B17" stroke-width="1.7" stroke-linecap="round"/>
<line x1="99.6" y1="371.1" x2="328.3" y2="436.4" stroke="#1B1B17" stroke-width="1.7" stroke-linecap="round"/>
<line x1="99.6" y1="371.1" x2="201.5" y2="290.2" stroke="#1B1B17" stroke-width="1.7" stroke-linecap="round"/>
<line x1="-157.7" y1="540.8" x2="282.7" y2="632.6" stroke="#1B1B17" stroke-width="1.7" stroke-linecap="round"/>
<line x1="-157.7" y1="540.8" x2="-140.3" y2="530.9" stroke="#1B1B17" stroke-width="1.7" stroke-linecap="round"/>
<line x1="-140.3" y1="530.9" x2="329.5" y2="439.2" stroke="#1B1B17" stroke-width="1.7" stroke-linecap="round"/>
<line x1="227.5" y1="895.5" x2="261.4" y2="1031.3" stroke="#1B1B17" stroke-width="1.7" stroke-linecap="round"/>
<line x1="227.5" y1="895.5" x2="274.3" y2="838.0" stroke="#1B1B17" stroke-width="1.7" stroke-linecap="round"/>
<line x1="209.5" y1="787.4" x2="274.3" y2="838.0" stroke="#1B1B17" stroke-width="1.7" stroke-linecap="round"/>
<line x1="209.5" y1="787.4" x2="282.7" y2="632.6" stroke="#1B1B17" stroke-width="1.7" stroke-linecap="round"/>
<line x1="282.7" y1="632.6" x2="355.6" y2="617.6" stroke="#1B1B17" stroke-width="1.7" stroke-linecap="round"/>
<line x1="274.3" y1="838.0" x2="295.2" y2="839.6" stroke="#1B1B17" stroke-width="1.7" stroke-linecap="round"/>
<line x1="212.7" y1="208.0" x2="201.5" y2="290.2" stroke="#1B1B17" stroke-width="1.7" stroke-linecap="round"/>
<line x1="212.7" y1="208.0" x2="294.8" y2="138.3" stroke="#1B1B17" stroke-width="1.7" stroke-linecap="round"/>
<line x1="201.5" y1="290.2" x2="311.6" y2="372.3" stroke="#1B1B17" stroke-width="1.7" stroke-linecap="round"/>
<line x1="261.4" y1="1031.3" x2="295.2" y2="839.6" stroke="#1B1B17" stroke-width="1.7" stroke-linecap="round"/>
<line x1="295.2" y1="839.6" x2="309.3" y2="837.1" stroke="#1B1B17" stroke-width="1.7" stroke-linecap="round"/>
<line x1="309.3" y1="837.1" x2="635.6" y2="1455.3" stroke="#1B1B17" stroke-width="1.7" stroke-linecap="round"/>
<line x1="309.3" y1="837.1" x2="348.4" y2="797.2" stroke="#1B1B17" stroke-width="1.7" stroke-linecap="round"/>
<line x1="328.3" y1="436.4" x2="329.5" y2="439.2" stroke="#1B1B17" stroke-width="1.7" stroke-linecap="round"/>
<line x1="328.3" y1="436.4" x2="311.6" y2="372.3" stroke="#1B1B17" stroke-width="1.7" stroke-linecap="round"/>
<line x1="329.5" y1="439.2" x2="399.4" y2="514.7" stroke="#1B1B17" stroke-width="1.7" stroke-linecap="round"/>
<line x1="311.6" y1="372.3" x2="330.5" y2="337.7" stroke="#1B1B17" stroke-width="1.7" stroke-linecap="round"/>
<line x1="330.5" y1="337.7" x2="334.7" y2="172.6" stroke="#1B1B17" stroke-width="1.7" stroke-linecap="round"/>
<line x1="330.5" y1="337.7" x2="439.1" y2="277.8" stroke="#1B1B17" stroke-width="1.7" stroke-linecap="round"/>
<line x1="355.6" y1="617.6" x2="348.4" y2="797.2" stroke="#1B1B17" stroke-width="1.7" stroke-linecap="round"/>
<line x1="355.6" y1="617.6" x2="372.6" y2="605.6" stroke="#1B1B17" stroke-width="1.7" stroke-linecap="round"/>
<line x1="348.4" y1="797.2" x2="500.0" y2="890.2" stroke="#1B1B17" stroke-width="1.7" stroke-linecap="round"/>
<line x1="294.8" y1="138.3" x2="334.7" y2="172.6" stroke="#1B1B17" stroke-width="1.7" stroke-linecap="round"/>
<line x1="294.8" y1="138.3" x2="295.6" y2="17.4" stroke="#1B1B17" stroke-width="1.7" stroke-linecap="round"/>
<line x1="334.7" y1="172.6" x2="420.8" y2="206.7" stroke="#1B1B17" stroke-width="1.7" stroke-linecap="round"/>
<line x1="295.6" y1="17.4" x2="497.7" y2="118.5" stroke="#1B1B17" stroke-width="1.7" stroke-linecap="round"/>
<line x1="439.1" y1="277.8" x2="463.5" y2="305.8" stroke="#1B1B17" stroke-width="1.7" stroke-linecap="round"/>
<line x1="439.1" y1="277.8" x2="420.8" y2="206.7" stroke="#1B1B17" stroke-width="1.7" stroke-linecap="round"/>
<line x1="420.8" y1="206.7" x2="466.3" y2="182.6" stroke="#1B1B17" stroke-width="1.7" stroke-linecap="round"/>
<line x1="463.5" y1="305.8" x2="465.9" y2="471.7" stroke="#1B1B17" stroke-width="1.7" stroke-linecap="round"/>
<line x1="463.5" y1="305.8" x2="580.4" y2="270.2" stroke="#1B1B17" stroke-width="1.7" stroke-linecap="round"/>
<line x1="497.7" y1="118.5" x2="466.3" y2="182.6" stroke="#1B1B17" stroke-width="1.7" stroke-linecap="round"/>
<line x1="497.7" y1="118.5" x2="668.1" y2="-16.5" stroke="#1B1B17" stroke-width="1.7" stroke-linecap="round"/>
<line x1="466.3" y1="182.6" x2="589.3" y2="239.6" stroke="#1B1B17" stroke-width="1.7" stroke-linecap="round"/>
<line x1="372.6" y1="605.6" x2="524.1" y2="721.7" stroke="#1B1B17" stroke-width="1.7" stroke-linecap="round"/>
<line x1="372.6" y1="605.6" x2="392.7" y2="541.0" stroke="#1B1B17" stroke-width="1.7" stroke-linecap="round"/>
<line x1="399.4" y1="514.7" x2="392.7" y2="541.0" stroke="#1B1B17" stroke-width="1.7" stroke-linecap="round"/>
<line x1="399.4" y1="514.7" x2="465.9" y2="471.7" stroke="#1B1B17" stroke-width="1.7" stroke-linecap="round"/>
<line x1="392.7" y1="541.0" x2="621.8" y2="617.4" stroke="#1B1B17" stroke-width="1.7" stroke-linecap="round"/>
<line x1="465.9" y1="471.7" x2="571.8" y2="457.4" stroke="#1B1B17" stroke-width="1.7" stroke-linecap="round"/>
<line x1="635.6" y1="1455.3" x2="759.5" y2="1862.3" stroke="#1B1B17" stroke-width="1.7" stroke-linecap="round"/>
<line x1="635.6" y1="1455.3" x2="500.0" y2="890.2" stroke="#1B1B17" stroke-width="1.7" stroke-linecap="round"/>
<line x1="500.0" y1="890.2" x2="524.1" y2="721.7" stroke="#1B1B17" stroke-width="1.7" stroke-linecap="round"/>
<line x1="524.1" y1="721.7" x2="642.6" y2="693.1" stroke="#1B1B17" stroke-width="1.7" stroke-linecap="round"/>
<line x1="571.8" y1="457.4" x2="621.8" y2="617.4" stroke="#1B1B17" stroke-width="1.7" stroke-linecap="round"/>
<line x1="571.8" y1="457.4" x2="629.8" y2="425.3" stroke="#1B1B17" stroke-width="1.7" stroke-linecap="round"/>
<line x1="621.8" y1="617.4" x2="653.6" y2="685.0" stroke="#1B1B17" stroke-width="1.7" stroke-linecap="round"/>
<line x1="580.4" y1="270.2" x2="629.8" y2="425.3" stroke="#1B1B17" stroke-width="1.7" stroke-linecap="round"/>
<line x1="580.4" y1="270.2" x2="589.3" y2="239.6" stroke="#1B1B17" stroke-width="1.7" stroke-linecap="round"/>
<line x1="589.3" y1="239.6" x2="688.0" y2="142.3" stroke="#1B1B17" stroke-width="1.7" stroke-linecap="round"/>
<line x1="629.8" y1="425.3" x2="647.5" y2="425.6" stroke="#1B1B17" stroke-width="1.7" stroke-linecap="round"/>
<line x1="759.5" y1="1862.3" x2="642.6" y2="693.1" stroke="#1B1B17" stroke-width="1.7" stroke-linecap="round"/>
<line x1="642.6" y1="693.1" x2="653.6" y2="685.0" stroke="#1B1B17" stroke-width="1.7" stroke-linecap="round"/>
<line x1="653.6" y1="685.0" x2="777.9" y2="660.5" stroke="#1B1B17" stroke-width="1.7" stroke-linecap="round"/>
<line x1="647.5" y1="425.6" x2="673.1" y2="432.5" stroke="#1B1B17" stroke-width="1.7" stroke-linecap="round"/>
<line x1="647.5" y1="425.6" x2="729.1" y2="188.3" stroke="#1B1B17" stroke-width="1.7" stroke-linecap="round"/>
<line x1="673.1" y1="432.5" x2="801.1" y2="623.2" stroke="#1B1B17" stroke-width="1.7" stroke-linecap="round"/>
<line x1="673.1" y1="432.5" x2="876.2" y2="327.1" stroke="#1B1B17" stroke-width="1.7" stroke-linecap="round"/>
<line x1="668.1" y1="-16.5" x2="688.0" y2="142.3" stroke="#1B1B17" stroke-width="1.7" stroke-linecap="round"/>
<line x1="668.1" y1="-16.5" x2="708.2" y2="-261.2" stroke="#1B1B17" stroke-width="1.7" stroke-linecap="round"/>
<line x1="688.0" y1="142.3" x2="729.1" y2="188.3" stroke="#1B1B17" stroke-width="1.7" stroke-linecap="round"/>
<line x1="729.1" y1="188.3" x2="822.5" y2="249.5" stroke="#1B1B17" stroke-width="1.7" stroke-linecap="round"/>
<line x1="876.2" y1="327.1" x2="1168.1" y2="448.9" stroke="#1B1B17" stroke-width="1.7" stroke-linecap="round"/>
<line x1="876.2" y1="327.1" x2="822.5" y2="249.5" stroke="#1B1B17" stroke-width="1.7" stroke-linecap="round"/>
<line x1="822.5" y1="249.5" x2="823.9" y2="247.2" stroke="#1B1B17" stroke-width="1.7" stroke-linecap="round"/>
<line x1="823.9" y1="247.2" x2="883.2" y2="103.9" stroke="#1B1B17" stroke-width="1.7" stroke-linecap="round"/>
<line x1="823.9" y1="247.2" x2="937.6" y2="133.5" stroke="#1B1B17" stroke-width="1.7" stroke-linecap="round"/>
<line x1="777.9" y1="660.5" x2="801.1" y2="623.2" stroke="#1B1B17" stroke-width="1.7" stroke-linecap="round"/>
<line x1="801.1" y1="623.2" x2="1168.1" y2="448.9" stroke="#1B1B17" stroke-width="1.7" stroke-linecap="round"/>
<line x1="1168.1" y1="448.9" x2="2932.9" y2="430.6" stroke="#1B1B17" stroke-width="1.7" stroke-linecap="round"/>
<line x1="708.2" y1="-261.2" x2="883.2" y2="103.9" stroke="#1B1B17" stroke-width="1.7" stroke-linecap="round"/>
<line x1="883.2" y1="103.9" x2="937.6" y2="133.5" stroke="#1B1B17" stroke-width="1.7" stroke-linecap="round"/>
<line x1="937.6" y1="133.5" x2="2932.9" y2="430.6" stroke="#1B1B17" stroke-width="1.7" stroke-linecap="round"/>
<circle cx="69.0" cy="235.0" r="5.4" fill="#3C5A49" stroke="#FBFCFD" stroke-width="2"/>
<circle cx="114.5" cy="254.0" r="5.4" fill="#3C5A49" stroke="#FBFCFD" stroke-width="2"/>
<circle cx="156.3" cy="115.4" r="5.4" fill="#3C5A49" stroke="#FBFCFD" stroke-width="2"/>
<circle cx="173.4" cy="728.7" r="5.4" fill="#3C5A49" stroke="#FBFCFD" stroke-width="2"/>
<circle cx="192.4" cy="916.7" r="5.4" fill="#3C5A49" stroke="#FBFCFD" stroke-width="2"/>
<circle cx="205.7" cy="423.0" r="5.4" fill="#3C5A49" stroke="#FBFCFD" stroke-width="2"/>
<circle cx="217.1" cy="855.9" r="5.4" fill="#3C5A49" stroke="#FBFCFD" stroke-width="2"/>
<circle cx="217.1" cy="383.1" r="5.4" fill="#3C5A49" stroke="#FBFCFD" stroke-width="2"/>
<circle cx="220.9" cy="500.8" r="5.4" fill="#3C5A49" stroke="#FBFCFD" stroke-width="2"/>
<circle cx="268.3" cy="897.7" r="5.4" fill="#3C5A49" stroke="#FBFCFD" stroke-width="2"/>
<circle cx="277.8" cy="778.1" r="5.4" fill="#3C5A49" stroke="#FBFCFD" stroke-width="2"/>
<circle cx="294.9" cy="278.7" r="5.4" fill="#3C5A49" stroke="#FBFCFD" stroke-width="2"/>
<circle cx="300.6" cy="903.4" r="5.4" fill="#3C5A49" stroke="#FBFCFD" stroke-width="2"/>
<circle cx="369.0" cy="867.3" r="5.4" fill="#3C5A49" stroke="#FBFCFD" stroke-width="2"/>
<circle cx="369.0" cy="280.6" r="5.4" fill="#3C5A49" stroke="#FBFCFD" stroke-width="2"/>
<circle cx="399.4" cy="335.6" r="5.4" fill="#3C5A49" stroke="#FBFCFD" stroke-width="2"/>
<circle cx="420.2" cy="783.8" r="5.4" fill="#3C5A49" stroke="#FBFCFD" stroke-width="2"/>
<circle cx="433.5" cy="117.3" r="5.4" fill="#3C5A49" stroke="#FBFCFD" stroke-width="2"/>
<circle cx="458.2" cy="67.9" r="5.4" fill="#3C5A49" stroke="#FBFCFD" stroke-width="2"/>
<circle cx="501.9" cy="246.4" r="5.4" fill="#3C5A49" stroke="#FBFCFD" stroke-width="2"/>
<circle cx="528.5" cy="333.7" r="5.4" fill="#3C5A49" stroke="#FBFCFD" stroke-width="2"/>
<circle cx="538.0" cy="168.5" r="5.4" fill="#3C5A49" stroke="#FBFCFD" stroke-width="2"/>
<circle cx="557.0" cy="605.3" r="5.4" fill="#3C5A49" stroke="#FBFCFD" stroke-width="2"/>
<circle cx="562.7" cy="588.2" r="5.4" fill="#3C5A49" stroke="#FBFCFD" stroke-width="2"/>
<circle cx="606.3" cy="810.3" r="5.4" fill="#3C5A49" stroke="#FBFCFD" stroke-width="2"/>
<circle cx="653.8" cy="559.7" r="5.4" fill="#3C5A49" stroke="#FBFCFD" stroke-width="2"/>
<circle cx="659.5" cy="292.0" r="5.4" fill="#3C5A49" stroke="#FBFCFD" stroke-width="2"/>
<circle cx="701.3" cy="800.9" r="5.4" fill="#3C5A49" stroke="#FBFCFD" stroke-width="2"/>
<circle cx="720.3" cy="312.9" r="5.4" fill="#3C5A49" stroke="#FBFCFD" stroke-width="2"/>
<circle cx="798.1" cy="462.9" r="5.4" fill="#3C5A49" stroke="#FBFCFD" stroke-width="2"/>
<circle cx="839.9" cy="130.6" r="5.4" fill="#3C5A49" stroke="#FBFCFD" stroke-width="2"/>
<circle cx="895.0" cy="153.3" r="5.4" fill="#3C5A49" stroke="#FBFCFD" stroke-width="2"/>
<circle cx="917.7" cy="176.1" r="5.4" fill="#3C5A49" stroke="#FBFCFD" stroke-width="2"/>
<circle cx="923.4" cy="726.8" r="5.4" fill="#3C5A49" stroke="#FBFCFD" stroke-width="2"/>
<circle cx="931.0" cy="86.9" r="5.4" fill="#3C5A49" stroke="#FBFCFD" stroke-width="2"/>
</g></svg>