<svg xmlns="http://www.w3.org/2000/svg" width="1400" height="1418" viewBox="0 0 1400 1418">
<!-- seed: 7; layers: sites (raw input) -->
<rect width="1400" height="1418" fill="#FBFCFD"/>
<circle cx="75.0" cy="400.2" r="7" fill="#3C5A49" stroke="#FBFCFD" stroke-width="2.5"/>
<circle cx="129.7" cy="1176.9" r="7" fill="#3C5A49" stroke="#FBFCFD" stroke-width="2.5"/>
<circle cx="145.5" cy="1311.4" r="7" fill="#3C5A49" stroke="#FBFCFD" stroke-width="2.5"/>
<circle cx="151.9" cy="1110.8" r="7" fill="#3C5A49" stroke="#FBFCFD" stroke-width="2.5"/>
<circle cx="164.3" cy="763.6" r="7" fill="#3C5A49" stroke="#FBFCFD" stroke-width="2.5"/>
<circle cx="250.2" cy="1059.0" r="7" fill="#3C5A49" stroke="#FBFCFD" stroke-width="2.5"/>
<circle cx="255.1" cy="112.9" r="7" fill="#3C5A49" stroke="#FBFCFD" stroke-width="2.5"/>
<circle cx="263.5" cy="597.4" r="7" fill="#3C5A49" stroke="#FBFCFD" stroke-width="2.5"/>
<circle cx="298.6" cy="136.8" r="7" fill="#3C5A49" stroke="#FBFCFD" stroke-width="2.5"/>
<circle cx="308.6" cy="726.1" r="7" fill="#3C5A49" stroke="#FBFCFD" stroke-width="2.5"/>
<circle cx="330.0" cy="1013.2" r="7" fill="#3C5A49" stroke="#FBFCFD" stroke-width="2.5"/>
<circle cx="357.4" cy="121.5" r="7" fill="#3C5A49" stroke="#FBFCFD" stroke-width="2.5"/>
<circle cx="359.0" cy="505.7" r="7" fill="#3C5A49" stroke="#FBFCFD" stroke-width="2.5"/>
<circle cx="364.0" cy="726.8" r="7" fill="#3C5A49" stroke="#FBFCFD" stroke-width="2.5"/>
<circle cx="365.1" cy="961.2" r="7" fill="#3C5A49" stroke="#FBFCFD" stroke-width="2.5"/>
<circle cx="412.7" cy="915.1" r="7" fill="#3C5A49" stroke="#FBFCFD" stroke-width="2.5"/>
<circle cx="425.6" cy="648.9" r="7" fill="#3C5A49" stroke="#FBFCFD" stroke-width="2.5"/>
<circle cx="437.1" cy="1066.5" r="7" fill="#3C5A49" stroke="#FBFCFD" stroke-width="2.5"/>
<circle cx="448.3" cy="687.4" r="7" fill="#3C5A49" stroke="#FBFCFD" stroke-width="2.5"/>
<circle cx="452.5" cy="229.2" r="7" fill="#3C5A49" stroke="#FBFCFD" stroke-width="2.5"/>
<circle cx="475.9" cy="121.6" r="7" fill="#3C5A49" stroke="#FBFCFD" stroke-width="2.5"/>
<circle cx="487.3" cy="861.1" r="7" fill="#3C5A49" stroke="#FBFCFD" stroke-width="2.5"/>
<circle cx="524.4" cy="876.9" r="7" fill="#3C5A49" stroke="#FBFCFD" stroke-width="2.5"/>
<circle cx="525.6" cy="759.0" r="7" fill="#3C5A49" stroke="#FBFCFD" stroke-width="2.5"/>
<circle cx="532.4" cy="1130.3" r="7" fill="#3C5A49" stroke="#FBFCFD" stroke-width="2.5"/>
<circle cx="545.9" cy="320.5" r="7" fill="#3C5A49" stroke="#FBFCFD" stroke-width="2.5"/>
<circle cx="566.8" cy="652.8" r="7" fill="#3C5A49" stroke="#FBFCFD" stroke-width="2.5"/>
<circle cx="567.3" cy="797.6" r="7" fill="#3C5A49" stroke="#FBFCFD" stroke-width="2.5"/>
<circle cx="568.1" cy="1250.0" r="7" fill="#3C5A49" stroke="#FBFCFD" stroke-width="2.5"/>
<circle cx="603.5" cy="1002.3" r="7" fill="#3C5A49" stroke="#FBFCFD" stroke-width="2.5"/>
<circle cx="605.3" cy="1175.7" r="7" fill="#3C5A49" stroke="#FBFCFD" stroke-width="2.5"/>
<circle cx="606.5" cy="139.4" r="7" fill="#3C5A49" stroke="#FBFCFD" stroke-width="2.5"/>
<circle cx="615.4" cy="86.4" r="7" fill="#3C5A49" stroke="#FBFCFD" stroke-width="2.5"/>
<circle cx="638.2" cy="715.8" r="7" fill="#3C5A49" stroke="#FBFCFD" stroke-width="2.5"/>
<circle cx="670.6" cy="320.3" r="7" fill="#3C5A49" stroke="#FBFCFD" stroke-width="2.5"/>
<circle cx="675.8" cy="472.5" r="7" fill="#3C5A49" stroke="#FBFCFD" stroke-width="2.5"/>
<circle cx="690.8" cy="374.1" r="7" fill="#3C5A49" stroke="#FBFCFD" stroke-width="2.5"/>
<circle cx="702.8" cy="644.6" r="7" fill="#3C5A49" stroke="#FBFCFD" stroke-width="2.5"/>
<circle cx="709.6" cy="1342.4" r="7" fill="#3C5A49" stroke="#FBFCFD" stroke-width="2.5"/>
<circle cx="715.8" cy="268.7" r="7" fill="#3C5A49" stroke="#FBFCFD" stroke-width="2.5"/>
<circle cx="778.8" cy="303.0" r="7" fill="#3C5A49" stroke="#FBFCFD" stroke-width="2.5"/>
<circle cx="821.7" cy="733.3" r="7" fill="#3C5A49" stroke="#FBFCFD" stroke-width="2.5"/>
<circle cx="842.4" cy="549.5" r="7" fill="#3C5A49" stroke="#FBFCFD" stroke-width="2.5"/>
<circle cx="857.1" cy="336.4" r="7" fill="#3C5A49" stroke="#FBFCFD" stroke-width="2.5"/>
<circle cx="868.0" cy="1162.5" r="7" fill="#3C5A49" stroke="#FBFCFD" stroke-width="2.5"/>
<circle cx="884.4" cy="502.8" r="7" fill="#3C5A49" stroke="#FBFCFD" stroke-width="2.5"/>
<circle cx="900.9" cy="850.3" r="7" fill="#3C5A49" stroke="#FBFCFD" stroke-width="2.5"/>
<circle cx="913.2" cy="1338.2" r="7" fill="#3C5A49" stroke="#FBFCFD" stroke-width="2.5"/>
<circle cx="926.6" cy="485.7" r="7" fill="#3C5A49" stroke="#FBFCFD" stroke-width="2.5"/>
<circle cx="941.0" cy="915.0" r="7" fill="#3C5A49" stroke="#FBFCFD" stroke-width="2.5"/>
<circle cx="982.2" cy="469.6" r="7" fill="#3C5A49" stroke="#FBFCFD" stroke-width="2.5"/>
<circle cx="1000.6" cy="1020.5" r="7" fill="#3C5A49" stroke="#FBFCFD" stroke-width="2.5"/>
<circle cx="1041.0" cy="789.6" r="7" fill="#3C5A49" stroke="#FBFCFD" stroke-width="2.5"/>
<circle cx="1046.4" cy="844.8" r="7" fill="#3C5A49" stroke="#FBFCFD" stroke-width="2.5"/>
<circle cx="1052.8" cy="1136.0" r="7" fill="#3C5A49" stroke="#FBFCFD" stroke-width="2.5"/>
<circle cx="1056.5" cy="76.0" r="7" fill="#3C5A49" stroke="#FBFCFD" stroke-width="2.5"/>
<circle cx="1093.2" cy="673.5" r="7" fill="#3C5A49" stroke="#FBFCFD" stroke-width="2.5"/>
<circle cx="1119.2" cy="843.1" r="7" fill="#3C5A49" stroke="#FBFCFD" stroke-width="2.5"/>
<circle cx="1131.8" cy="1030.5" r="7" fill="#3C5A49" stroke="#FBFCFD" stroke-width="2.5"/>
<circle cx="1147.0" cy="529.9" r="7" fill="#3C5A49" stroke="#FBFCFD" stroke-width="2.5"/>
<circle cx="1153.8" cy="684.6" r="7" fill="#3C5A49" stroke="#FBFCFD" stroke-width="2.5"/>
<circle cx="1154.3" cy="635.7" r="7" fill="#3C5A49" stroke="#FBFCFD" stroke-width="2.5"/>
<circle cx="1164.2" cy="1105.8" r="7" fill="#3C5A49" stroke="#FBFCFD" stroke-width="2.5"/>
<circle cx="1222.8" cy="994.2" r="7" fill="#3C5A49" stroke="#FBFCFD" stroke-width="2.5"/>
<circle cx="1233.9" cy="911.6" r="7" fill="#3C5A49" stroke="#FBFCFD" stroke-width="2.5"/>
<circle cx="1253.6" cy="852.1" r="7" fill="#3C5A49" stroke="#FBFCFD" stroke-width="2.5"/>
<circle cx="1265.9" cy="724.4" r="7" fill="#3C5A49" stroke="#FBFCFD" stroke-width="2.5"/>
<circle cx="1277.0" cy="175.5" r="7" fill="#3C5A49" stroke="#FBFCFD" stroke-width="2.5"/>
<circle cx="1305.6" cy="675.0" r="7" fill="#3C5A49" stroke="#FBFCFD" stroke-width="2.5"/>
<circle cx="1325.0" cy="532.3" r="7" fill="#3C5A49" stroke="#FBFCFD" stroke-width="2.5"/>
</svg>