<?xml version="1.0" encoding="utf-8" standalone="no"?>
<!DOCTYPE svg PUBLIC "-//W3C//DTD SVG 1.1//EN"
  "http://www.w3.org/Graphics/SVG/1.1/DTD/svg11.dtd">
<svg xmlns:xlink="http://www.w3.org/1999/xlink" width="460.8pt" height="460.8pt" viewBox="0 0 460.8 460.8" xmlns="http://www.w3.org/2000/svg" version="1.1">
 <metadata>
  <rdf:RDF xmlns:dc="http://purl.org/dc/elements/1.1/" xmlns:cc="http://creativecommons.org/ns#" xmlns:rdf="http://www.w3.org/1999/02/22-rdf-syntax-ns#">
   <cc:Work>
    <dc:type rdf:resource="http://purl.org/dc/dcmitype/StillImage"/>
    <dc:date>2026-07-08T07:42:22.762659</dc:date>
    <dc:format>image/svg+xml</dc:format>
    <dc:creator>
     <cc:Agent>
      <dc:title>Matplotlib v3.10.9, https://matplotlib.org/</dc:title>
     </cc:Agent>
    </dc:creator>
   </cc:Work>
  </rdf:RDF>
 </metadata>
 <defs>
  <style type="text/css">*{stroke-linejoin: round; stroke-linecap: butt}</style>
 </defs>
 <g id="figure_1">
  <g id="patch_1">
   <path d="M 0 460.8 
L 460.8 460.8 
L 460.8 0 
L 0 0 
z
" style="fill: #fbfcfd"/>
  </g>
  <g id="axes_1">
   <g id="patch_2">
    <path d="M 34.72 420.727114 
L 445.79388 420.727114 
L 445.79388 36.292152 
L 34.72 36.292152 
z
" style="fill: #fbfcfd"/>
   </g>
   <g id="patch_3">
    <path d="M 250.451276 152.577712 
L 234.571386 318.093495 
L 382.261127 162.297034 
L 340.62615 353.457191 
L 366.298944 403.252798 
L 136.625344 307.355442 
L 233.83369 194.357066 
L 53.405176 265.253397 
L 123.888 53.766468 
L 313.008414 128.441001 
L 343.519502 126.720298 
L 427.108703 152.141469 
L 418.657452 295.846548 
L 356.223035 332.266106 
L 414.490221 164.525753 
z
" clip-path="url(#pdd0da9b714)" style="fill: #cbc6bb; stroke: #cbc6bb; stroke-linejoin: miter"/>
   </g>
   <g id="matplotlib.axis_1">
    <g id="xtick_1">
     <g id="line2d_1">
      <path d="M 78.91596 420.727114 
L 78.91596 36.292152 
" clip-path="url(#pdd0da9b714)" style="fill: none; stroke: #e8e5dc; stroke-width: 0.7; stroke-linecap: square"/>
     </g>
     <g id="line2d_2">
      <defs>
       <path id="mf51cf8ee63" d="M 0 0 
L 0 3.5 
" style="stroke: #9c978c; stroke-width: 0.8"/>
      </defs>
      <g>
       <use xlink:href="#mf51cf8ee63" x="78.91596" y="420.727114" style="fill: #9c978c; stroke: #9c978c; stroke-width: 0.8"/>
      </g>
     </g>
     <g id="text_1">
      <!-- −75 -->
      <g style="fill: #9c978c" transform="translate(70.474085 433.805864) scale(0.08 -0.08)">
       <defs>
        <path id="DejaVuSans-2212" d="M 678 2272 
L 4684 2272 
L 4684 1741 
L 678 1741 
L 678 2272 
z
" transform="scale(0.015625)"/>
        <path id="DejaVuSans-37" d="M 525 4666 
L 3525 4666 
L 3525 4397 
L 1831 0 
L 1172 0 
L 2766 4134 
L 525 4134 
L 525 4666 
z
" transform="scale(0.015625)"/>
        <path id="DejaVuSans-35" d="M 691 4666 
L 3169 4666 
L 3169 4134 
L 1269 4134 
L 1269 2991 
Q 1406 3038 1543 3061 
Q 1681 3084 1819 3084 
Q 2600 3084 3056 2656 
Q 3513 2228 3513 1497 
Q 3513 744 3044 326 
Q 2575 -91 1722 -91 
Q 1428 -91 1123 -41 
Q 819 9 494 109 
L 494 744 
Q 775 591 1075 516 
Q 1375 441 1709 441 
Q 2250 441 2565 725 
Q 2881 1009 2881 1497 
Q 2881 1984 2565 2268 
Q 2250 2553 1709 2553 
Q 1456 2553 1204 2497 
Q 953 2441 691 2322 
L 691 4666 
z
" transform="scale(0.015625)"/>
       </defs>
       <use xlink:href="#DejaVuSans-2212"/>
       <use xlink:href="#DejaVuSans-37" transform="translate(83.789062 0)"/>
       <use xlink:href="#DejaVuSans-35" transform="translate(147.412109 0)"/>
      </g>
     </g>
    </g>
    <g id="xtick_2">
     <g id="line2d_3">
      <path d="M 130.775579 420.727114 
L 130.775579 36.292152 
" clip-path="url(#pdd0da9b714)" style="fill: none; stroke: #e8e5dc; stroke-width: 0.7; stroke-linecap: square"/>
     </g>
     <g id="line2d_4">
      <g>
       <use xlink:href="#mf51cf8ee63" x="130.775579" y="420.727114" style="fill: #9c978c; stroke: #9c978c; stroke-width: 0.8"/>
      </g>
     </g>
     <g id="text_2">
      <!-- −50 -->
      <g style="fill: #9c978c" transform="translate(122.333704 433.805864) scale(0.08 -0.08)">
       <defs>
        <path id="DejaVuSans-30" d="M 2034 4250 
Q 1547 4250 1301 3770 
Q 1056 3291 1056 2328 
Q 1056 1369 1301 889 
Q 1547 409 2034 409 
Q 2525 409 2770 889 
Q 3016 1369 3016 2328 
Q 3016 3291 2770 3770 
Q 2525 4250 2034 4250 
z
M 2034 4750 
Q 2819 4750 3233 4129 
Q 3647 3509 3647 2328 
Q 3647 1150 3233 529 
Q 2819 -91 2034 -91 
Q 1250 -91 836 529 
Q 422 1150 422 2328 
Q 422 3509 836 4129 
Q 1250 4750 2034 4750 
z
" transform="scale(0.015625)"/>
       </defs>
       <use xlink:href="#DejaVuSans-2212"/>
       <use xlink:href="#DejaVuSans-35" transform="translate(83.789062 0)"/>
       <use xlink:href="#DejaVuSans-30" transform="translate(147.412109 0)"/>
      </g>
     </g>
    </g>
    <g id="xtick_3">
     <g id="line2d_5">
      <path d="M 182.635198 420.727114 
L 182.635198 36.292152 
" clip-path="url(#pdd0da9b714)" style="fill: none; stroke: #e8e5dc; stroke-width: 0.7; stroke-linecap: square"/>
     </g>
     <g id="line2d_6">
      <g>
       <use xlink:href="#mf51cf8ee63" x="182.635198" y="420.727114" style="fill: #9c978c; stroke: #9c978c; stroke-width: 0.8"/>
      </g>
     </g>
     <g id="text_3">
      <!-- −25 -->
      <g style="fill: #9c978c" transform="translate(174.193323 433.805864) scale(0.08 -0.08)">
       <defs>
        <path id="DejaVuSans-32" d="M 1228 531 
L 3431 531 
L 3431 0 
L 469 0 
L 469 531 
Q 828 903 1448 1529 
Q 2069 2156 2228 2338 
Q 2531 2678 2651 2914 
Q 2772 3150 2772 3378 
Q 2772 3750 2511 3984 
Q 2250 4219 1831 4219 
Q 1534 4219 1204 4116 
Q 875 4013 500 3803 
L 500 4441 
Q 881 4594 1212 4672 
Q 1544 4750 1819 4750 
Q 2544 4750 2975 4387 
Q 3406 4025 3406 3419 
Q 3406 3131 3298 2873 
Q 3191 2616 2906 2266 
Q 2828 2175 2409 1742 
Q 1991 1309 1228 531 
z
" transform="scale(0.015625)"/>
       </defs>
       <use xlink:href="#DejaVuSans-2212"/>
       <use xlink:href="#DejaVuSans-32" transform="translate(83.789062 0)"/>
       <use xlink:href="#DejaVuSans-35" transform="translate(147.412109 0)"/>
      </g>
     </g>
    </g>
    <g id="xtick_4">
     <g id="line2d_7">
      <path d="M 234.494818 420.727114 
L 234.494818 36.292152 
" clip-path="url(#pdd0da9b714)" style="fill: none; stroke: #e8e5dc; stroke-width: 0.7; stroke-linecap: square"/>
     </g>
     <g id="line2d_8">
      <g>
       <use xlink:href="#mf51cf8ee63" x="234.494818" y="420.727114" style="fill: #9c978c; stroke: #9c978c; stroke-width: 0.8"/>
      </g>
     </g>
     <g id="text_4">
      <!-- 0 -->
      <g style="fill: #9c978c" transform="translate(231.949818 433.805864) scale(0.08 -0.08)">
       <use xlink:href="#DejaVuSans-30"/>
      </g>
     </g>
    </g>
    <g id="xtick_5">
     <g id="line2d_9">
      <path d="M 286.354437 420.727114 
L 286.354437 36.292152 
" clip-path="url(#pdd0da9b714)" style="fill: none; stroke: #e8e5dc; stroke-width: 0.7; stroke-linecap: square"/>
     </g>
     <g id="line2d_10">
      <g>
       <use xlink:href="#mf51cf8ee63" x="286.354437" y="420.727114" style="fill: #9c978c; stroke: #9c978c; stroke-width: 0.8"/>
      </g>
     </g>
     <g id="text_5">
      <!-- 25 -->
      <g style="fill: #9c978c" transform="translate(281.264437 433.805864) scale(0.08 -0.08)">
       <use xlink:href="#DejaVuSans-32"/>
       <use xlink:href="#DejaVuSans-35" transform="translate(63.623047 0)"/>
      </g>
     </g>
    </g>
    <g id="xtick_6">
     <g id="line2d_11">
      <path d="M 338.214056 420.727114 
L 338.214056 36.292152 
" clip-path="url(#pdd0da9b714)" style="fill: none; stroke: #e8e5dc; stroke-width: 0.7; stroke-linecap: square"/>
     </g>
     <g id="line2d_12">
      <g>
       <use xlink:href="#mf51cf8ee63" x="338.214056" y="420.727114" style="fill: #9c978c; stroke: #9c978c; stroke-width: 0.8"/>
      </g>
     </g>
     <g id="text_6">
      <!-- 50 -->
      <g style="fill: #9c978c" transform="translate(333.124056 433.805864) scale(0.08 -0.08)">
       <use xlink:href="#DejaVuSans-35"/>
       <use xlink:href="#DejaVuSans-30" transform="translate(63.623047 0)"/>
      </g>
     </g>
    </g>
    <g id="xtick_7">
     <g id="line2d_13">
      <path d="M 390.073675 420.727114 
L 390.073675 36.292152 
" clip-path="url(#pdd0da9b714)" style="fill: none; stroke: #e8e5dc; stroke-width: 0.7; stroke-linecap: square"/>
     </g>
     <g id="line2d_14">
      <g>
       <use xlink:href="#mf51cf8ee63" x="390.073675" y="420.727114" style="fill: #9c978c; stroke: #9c978c; stroke-width: 0.8"/>
      </g>
     </g>
     <g id="text_7">
      <!-- 75 -->
      <g style="fill: #9c978c" transform="translate(384.983675 433.805864) scale(0.08 -0.08)">
       <use xlink:href="#DejaVuSans-37"/>
       <use xlink:href="#DejaVuSans-35" transform="translate(63.623047 0)"/>
      </g>
     </g>
    </g>
    <g id="xtick_8">
     <g id="line2d_15">
      <path d="M 441.933294 420.727114 
L 441.933294 36.292152 
" clip-path="url(#pdd0da9b714)" style="fill: none; stroke: #e8e5dc; stroke-width: 0.7; stroke-linecap: square"/>
     </g>
     <g id="line2d_16">
      <g>
       <use xlink:href="#mf51cf8ee63" x="441.933294" y="420.727114" style="fill: #9c978c; stroke: #9c978c; stroke-width: 0.8"/>
      </g>
     </g>
     <g id="text_8">
      <!-- 100 -->
      <g style="fill: #9c978c" transform="translate(434.298294 433.805864) scale(0.08 -0.08)">
       <defs>
        <path id="DejaVuSans-31" d="M 794 531 
L 1825 531 
L 1825 4091 
L 703 3866 
L 703 4441 
L 1819 4666 
L 2450 4666 
L 2450 531 
L 3481 531 
L 3481 0 
L 794 0 
L 794 531 
z
" transform="scale(0.015625)"/>
       </defs>
       <use xlink:href="#DejaVuSans-31"/>
       <use xlink:href="#DejaVuSans-30" transform="translate(63.623047 0)"/>
       <use xlink:href="#DejaVuSans-30" transform="translate(127.246094 0)"/>
      </g>
     </g>
    </g>
   </g>
   <g id="matplotlib.axis_2">
    <g id="ytick_1">
     <g id="line2d_17">
      <path d="M 34.72 412.637522 
L 445.79388 412.637522 
" clip-path="url(#pdd0da9b714)" style="fill: none; stroke: #e8e5dc; stroke-width: 0.7; stroke-linecap: square"/>
     </g>
     <g id="line2d_18">
      <defs>
       <path id="m1526c25288" d="M 0 0 
L -3.5 0 
" style="stroke: #9c978c; stroke-width: 0.8"/>
      </defs>
      <g>
       <use xlink:href="#m1526c25288" x="34.72" y="412.637522" style="fill: #9c978c; stroke: #9c978c; stroke-width: 0.8"/>
      </g>
     </g>
     <g id="text_9">
      <!-- −75 -->
      <g style="fill: #9c978c" transform="translate(10.83625 415.676897) scale(0.08 -0.08)">
       <use xlink:href="#DejaVuSans-2212"/>
       <use xlink:href="#DejaVuSans-37" transform="translate(83.789062 0)"/>
       <use xlink:href="#DejaVuSans-35" transform="translate(147.412109 0)"/>
      </g>
     </g>
    </g>
    <g id="ytick_2">
     <g id="line2d_19">
      <path d="M 34.72 360.777903 
L 445.79388 360.777903 
" clip-path="url(#pdd0da9b714)" style="fill: none; stroke: #e8e5dc; stroke-width: 0.7; stroke-linecap: square"/>
     </g>
     <g id="line2d_20">
      <g>
       <use xlink:href="#m1526c25288" x="34.72" y="360.777903" style="fill: #9c978c; stroke: #9c978c; stroke-width: 0.8"/>
      </g>
     </g>
     <g id="text_10">
      <!-- −50 -->
      <g style="fill: #9c978c" transform="translate(10.83625 363.817278) scale(0.08 -0.08)">
       <use xlink:href="#DejaVuSans-2212"/>
       <use xlink:href="#DejaVuSans-35" transform="translate(83.789062 0)"/>
       <use xlink:href="#DejaVuSans-30" transform="translate(147.412109 0)"/>
      </g>
     </g>
    </g>
    <g id="ytick_3">
     <g id="line2d_21">
      <path d="M 34.72 308.918283 
L 445.79388 308.918283 
" clip-path="url(#pdd0da9b714)" style="fill: none; stroke: #e8e5dc; stroke-width: 0.7; stroke-linecap: square"/>
     </g>
     <g id="line2d_22">
      <g>
       <use xlink:href="#m1526c25288" x="34.72" y="308.918283" style="fill: #9c978c; stroke: #9c978c; stroke-width: 0.8"/>
      </g>
     </g>
     <g id="text_11">
      <!-- −25 -->
      <g style="fill: #9c978c" transform="translate(10.83625 311.957658) scale(0.08 -0.08)">
       <use xlink:href="#DejaVuSans-2212"/>
       <use xlink:href="#DejaVuSans-32" transform="translate(83.789062 0)"/>
       <use xlink:href="#DejaVuSans-35" transform="translate(147.412109 0)"/>
      </g>
     </g>
    </g>
    <g id="ytick_4">
     <g id="line2d_23">
      <path d="M 34.72 257.058664 
L 445.79388 257.058664 
" clip-path="url(#pdd0da9b714)" style="fill: none; stroke: #e8e5dc; stroke-width: 0.7; stroke-linecap: square"/>
     </g>
     <g id="line2d_24">
      <g>
       <use xlink:href="#m1526c25288" x="34.72" y="257.058664" style="fill: #9c978c; stroke: #9c978c; stroke-width: 0.8"/>
      </g>
     </g>
     <g id="text_12">
      <!-- 0 -->
      <g style="fill: #9c978c" transform="translate(22.63 260.098039) scale(0.08 -0.08)">
       <use xlink:href="#DejaVuSans-30"/>
      </g>
     </g>
    </g>
    <g id="ytick_5">
     <g id="line2d_25">
      <path d="M 34.72 205.199045 
L 445.79388 205.199045 
" clip-path="url(#pdd0da9b714)" style="fill: none; stroke: #e8e5dc; stroke-width: 0.7; stroke-linecap: square"/>
     </g>
     <g id="line2d_26">
      <g>
       <use xlink:href="#m1526c25288" x="34.72" y="205.199045" style="fill: #9c978c; stroke: #9c978c; stroke-width: 0.8"/>
      </g>
     </g>
     <g id="text_13">
      <!-- 25 -->
      <g style="fill: #9c978c" transform="translate(17.54 208.23842) scale(0.08 -0.08)">
       <use xlink:href="#DejaVuSans-32"/>
       <use xlink:href="#DejaVuSans-35" transform="translate(63.623047 0)"/>
      </g>
     </g>
    </g>
    <g id="ytick_6">
     <g id="line2d_27">
      <path d="M 34.72 153.339426 
L 445.79388 153.339426 
" clip-path="url(#pdd0da9b714)" style="fill: none; stroke: #e8e5dc; stroke-width: 0.7; stroke-linecap: square"/>
     </g>
     <g id="line2d_28">
      <g>
       <use xlink:href="#m1526c25288" x="34.72" y="153.339426" style="fill: #9c978c; stroke: #9c978c; stroke-width: 0.8"/>
      </g>
     </g>
     <g id="text_14">
      <!-- 50 -->
      <g style="fill: #9c978c" transform="translate(17.54 156.378801) scale(0.08 -0.08)">
       <use xlink:href="#DejaVuSans-35"/>
       <use xlink:href="#DejaVuSans-30" transform="translate(63.623047 0)"/>
      </g>
     </g>
    </g>
    <g id="ytick_7">
     <g id="line2d_29">
      <path d="M 34.72 101.479807 
L 445.79388 101.479807 
" clip-path="url(#pdd0da9b714)" style="fill: none; stroke: #e8e5dc; stroke-width: 0.7; stroke-linecap: square"/>
     </g>
     <g id="line2d_30">
      <g>
       <use xlink:href="#m1526c25288" x="34.72" y="101.479807" style="fill: #9c978c; stroke: #9c978c; stroke-width: 0.8"/>
      </g>
     </g>
     <g id="text_15">
      <!-- 75 -->
      <g style="fill: #9c978c" transform="translate(17.54 104.519182) scale(0.08 -0.08)">
       <use xlink:href="#DejaVuSans-37"/>
       <use xlink:href="#DejaVuSans-35" transform="translate(63.623047 0)"/>
      </g>
     </g>
    </g>
    <g id="ytick_8">
     <g id="line2d_31">
      <path d="M 34.72 49.620188 
L 445.79388 49.620188 
" clip-path="url(#pdd0da9b714)" style="fill: none; stroke: #e8e5dc; stroke-width: 0.7; stroke-linecap: square"/>
     </g>
     <g id="line2d_32">
      <g>
       <use xlink:href="#m1526c25288" x="34.72" y="49.620188" style="fill: #9c978c; stroke: #9c978c; stroke-width: 0.8"/>
      </g>
     </g>
     <g id="text_16">
      <!-- 100 -->
      <g style="fill: #9c978c" transform="translate(12.45 52.659563) scale(0.08 -0.08)">
       <use xlink:href="#DejaVuSans-31"/>
       <use xlink:href="#DejaVuSans-30" transform="translate(63.623047 0)"/>
       <use xlink:href="#DejaVuSans-30" transform="translate(127.246094 0)"/>
      </g>
     </g>
    </g>
   </g>
   <g id="line2d_33">
    <path d="M 250.451276 152.577712 
L 234.571386 318.093495 
L 382.261127 162.297034 
L 340.62615 353.457191 
L 366.298944 403.252798 
L 136.625344 307.355442 
L 233.83369 194.357066 
L 53.405176 265.253397 
L 123.888 53.766468 
L 313.008414 128.441001 
L 343.519502 126.720298 
L 427.108703 152.141469 
L 418.657452 295.846548 
L 356.223035 332.266106 
L 414.490221 164.525753 
L 250.451276 152.577712 
" clip-path="url(#pdd0da9b714)" style="fill: none; stroke: #1b1b17; stroke-width: 1.9; stroke-linecap: square"/>
   </g>
   <g id="patch_4">
    <path d="M 34.72 420.727114 
L 34.72 36.292152 
" style="fill: none; stroke: #c9c4b6; stroke-width: 0.8; stroke-linejoin: miter; stroke-linecap: square"/>
   </g>
   <g id="patch_5">
    <path d="M 445.79388 420.727114 
L 445.79388 36.292152 
" style="fill: none; stroke: #c9c4b6; stroke-width: 0.8; stroke-linejoin: miter; stroke-linecap: square"/>
   </g>
   <g id="patch_6">
    <path d="M 34.72 420.727114 
L 445.79388 420.727114 
" style="fill: none; stroke: #c9c4b6; stroke-width: 0.8; stroke-linejoin: miter; stroke-linecap: square"/>
   </g>
   <g id="patch_7">
    <path d="M 34.72 36.292152 
L 445.79388 36.292152 
" style="fill: none; stroke: #c9c4b6; stroke-width: 0.8; stroke-linejoin: miter; stroke-linecap: square"/>
   </g>
   <g id="PathCollection_1">
    <defs>
     <path id="m29ab074ada" d="M 0 3.082207 
C 0.817411 3.082207 1.601453 2.757446 2.179449 2.179449 
C 2.757446 1.601453 3.082207 0.817411 3.082207 0 
C 3.082207 -0.817411 2.757446 -1.601453 2.179449 -2.179449 
C 1.601453 -2.757446 0.817411 -3.082207 0 -3.082207 
C -0.817411 -3.082207 -1.601453 -2.757446 -2.179449 -2.179449 
C -2.757446 -1.601453 -3.082207 -0.817411 -3.082207 0 
C -3.082207 0.817411 -2.757446 1.601453 -2.179449 2.179449 
C -1.601453 2.757446 -0.817411 3.082207 0 3.082207 
z
" style="stroke: #fbfcfd; stroke-width: 1.3"/>
    </defs>
    <g clip-path="url(#pdd0da9b714)">
     <use xlink:href="#m29ab074ada" x="250.451276" y="152.577712" style="fill: #3c5a49; stroke: #fbfcfd; stroke-width: 1.3"/>
     <use xlink:href="#m29ab074ada" x="234.571386" y="318.093495" style="fill: #3c5a49; stroke: #fbfcfd; stroke-width: 1.3"/>
     <use xlink:href="#m29ab074ada" x="382.261127" y="162.297034" style="fill: #3c5a49; stroke: #fbfcfd; stroke-width: 1.3"/>
     <use xlink:href="#m29ab074ada" x="340.62615" y="353.457191" style="fill: #3c5a49; stroke: #fbfcfd; stroke-width: 1.3"/>
     <use xlink:href="#m29ab074ada" x="366.298944" y="403.252798" style="fill: #3c5a49; stroke: #fbfcfd; stroke-width: 1.3"/>
     <use xlink:href="#m29ab074ada" x="136.625344" y="307.355442" style="fill: #3c5a49; stroke: #fbfcfd; stroke-width: 1.3"/>
     <use xlink:href="#m29ab074ada" x="233.83369" y="194.357066" style="fill: #3c5a49; stroke: #fbfcfd; stroke-width: 1.3"/>
     <use xlink:href="#m29ab074ada" x="53.405176" y="265.253397" style="fill: #3c5a49; stroke: #fbfcfd; stroke-width: 1.3"/>
     <use xlink:href="#m29ab074ada" x="123.888" y="53.766468" style="fill: #3c5a49; stroke: #fbfcfd; stroke-width: 1.3"/>
     <use xlink:href="#m29ab074ada" x="313.008414" y="128.441001" style="fill: #3c5a49; stroke: #fbfcfd; stroke-width: 1.3"/>
     <use xlink:href="#m29ab074ada" x="343.519502" y="126.720298" style="fill: #3c5a49; stroke: #fbfcfd; stroke-width: 1.3"/>
     <use xlink:href="#m29ab074ada" x="427.108703" y="152.141469" style="fill: #3c5a49; stroke: #fbfcfd; stroke-width: 1.3"/>
     <use xlink:href="#m29ab074ada" x="418.657452" y="295.846548" style="fill: #3c5a49; stroke: #fbfcfd; stroke-width: 1.3"/>
     <use xlink:href="#m29ab074ada" x="356.223035" y="332.266106" style="fill: #3c5a49; stroke: #fbfcfd; stroke-width: 1.3"/>
     <use xlink:href="#m29ab074ada" x="414.490221" y="164.525753" style="fill: #3c5a49; stroke: #fbfcfd; stroke-width: 1.3"/>
    </g>
   </g>
   <g id="patch_8">
    <path d="M 371.901932 172.610516 
L 392.64578 172.610516 
L 392.64578 151.866668 
L 371.901932 151.866668 
L 371.901932 172.610516 
z
" clip-path="url(#pdd0da9b714)" style="fill: none; stroke: #b4472c; stroke-width: 1.8; stroke-linejoin: miter"/>
   </g>
  </g>
 </g>
 <defs>
  <clipPath id="pdd0da9b714">
   <rect x="34.72" y="36.292152" width="411.07388" height="384.434962"/>
  </clipPath>
 </defs>
</svg>
